<?xml version="1.0" encoding="utf-8"?>
<!-- Generator: Adobe Illustrator 23.0.1, SVG Export Plug-In . SVG Version: 6.00 Build 0)  -->
<svg version="1.1" id="Layer_1" xmlns="http://www.w3.org/2000/svg" xmlns:xlink="http://www.w3.org/1999/xlink" x="0px" y="0px"
	 viewBox="0 0 600 600" style="enable-background:new 0 0 600 600;" xml:space="preserve">
<style type="text/css">
	.st0{fill:none;stroke:#282F6B;stroke-width:16;stroke-miterlimit:10;}
	.st1{fill:#282F6B;}
	.st2{fill:#2196D1;}
	.st3{fill:none;}
	.st4{fill:#2694CC;}
	.st5{fill:#B4C835;}
</style>
<title>awards</title>
<circle class="st0" cx="300" cy="300" r="250"/>
<path class="st1" d="M265.7,429.8c-0.6,0.2-1.3,0.3-1.9,0.5C264.5,430.1,265.1,429.9,265.7,429.8z"/>
<path class="st1" d="M378.9,448.1c-1.5-1-3-1.9-4.6-2.8C375.9,446.3,377.4,447.2,378.9,448.1z"/>
<path class="st1" d="M371.5,443.7c-0.9-0.5-1.8-1-2.7-1.4C369.7,442.8,370.6,443.2,371.5,443.7z"/>
<path class="st1" d="M389.2,455.3c-1-0.8-2-1.5-3-2.3C387.2,453.8,388.2,454.5,389.2,455.3z"/>
<path class="st1" d="M257.9,431.9c-0.6,0.2-1.2,0.4-1.8,0.6C256.7,432.3,257.3,432.1,257.9,431.9z"/>
<path class="st1" d="M272.4,428.3c-0.7,0.1-1.4,0.3-2.1,0.4C271,428.6,271.7,428.4,272.4,428.3z"/>
<path class="st1" d="M245.7,436.3c-0.7,0.3-1.4,0.6-2.1,0.9C244.3,436.9,245,436.6,245.7,436.3z"/>
<path class="st1" d="M238.3,439.6c-0.8,0.4-1.6,0.8-2.4,1.2C236.7,440.4,237.5,440,238.3,439.6z"/>
<path class="st1" d="M384.3,451.7c-1-0.7-2-1.4-3-2C382.3,450.3,383.3,451,384.3,451.7z"/>
<path class="st1" d="M251.9,434l-2.3,0.9L251.9,434z"/>
<path class="st1" d="M278.8,427.1l-1,0.2L278.8,427.1z"/>
<path class="st1" d="M324,427.3l-1.2-0.2L324,427.3z"/>
<path class="st1" d="M331.4,428.7c-0.7-0.1-1.4-0.3-2.1-0.4C330,428.4,330.7,428.6,331.4,428.7z"/>
<path class="st1" d="M345.7,432.5l-1.9-0.7L345.7,432.5z"/>
<path class="st1" d="M352.1,434.8l-2.3-0.9L352.1,434.8z"/>
<path class="st1" d="M287.2,426.2c-0.6,0-1.2,0.1-1.9,0.2C285.9,426.3,286.6,426.2,287.2,426.2z"/>
<path class="st1" d="M337.8,430.2l-1.8-0.4L337.8,430.2z"/>
<path class="st1" d="M294.1,425.7l-2,0.1L294.1,425.7z"/>
<path class="st1" d="M365.8,440.8c-0.8-0.4-1.7-0.8-2.5-1.2C364.1,439.9,365,440.3,365.8,440.8z"/>
<path class="st1" d="M316.4,426.3c-0.6-0.1-1.2-0.1-1.8-0.2C315.2,426.2,315.8,426.3,316.4,426.3z"/>
<path class="st1" d="M358.1,437.1c-0.7-0.3-1.3-0.5-2-0.8C356.8,436.6,357.4,436.9,358.1,437.1z"/>
<path class="st1" d="M309.5,425.8c-0.6,0-1.3-0.1-1.9-0.1C308.3,425.7,308.9,425.7,309.5,425.8z"/>
<path class="st1" d="M227.3,445.4c-1.4,0.9-2.9,1.7-4.3,2.6C224.4,447.1,225.9,446.3,227.3,445.4z"/>
<path class="st1" d="M186.1,481.3c-4.2,5.3-8,11-11.4,16.8C178.1,492.3,182,486.7,186.1,481.3z"/>
<path class="st1" d="M174.7,498.2c-2.6,4.5-5,9.1-7.1,13.9C169.7,507.3,172.1,502.7,174.7,498.2z"/>
<path class="st1" d="M414.9,480.4c-1-1.3-2.1-2.6-3.2-3.8C412.8,477.9,413.9,479.2,414.9,480.4z"/>
<path class="st1" d="M400.7,465c-1-1-2.1-2-3.2-2.9C398.6,463.1,399.6,464,400.7,465z"/>
<path class="st1" d="M204,462.4c-1.1,1-2.1,1.9-3.1,2.9C201.9,464.3,202.9,463.3,204,462.4z"/>
<path class="st1" d="M189.6,477c-1,1.2-2.1,2.5-3.1,3.8C187.6,479.5,188.6,478.3,189.6,477z"/>
<path class="st1" d="M423.9,493c-2.8-4.3-5.7-8.5-8.9-12.5C418.1,484.5,421.1,488.7,423.9,493z"/>
<path class="st1" d="M189.7,477c3.2-3.7,6.5-7.3,10.1-10.7C196.2,469.7,192.9,473.2,189.7,477z"/>
<path class="st1" d="M433.8,511.2c-2.8-6.3-6.1-12.4-9.9-18.2C427.6,498.9,430.9,504.9,433.8,511.2z"/>
<path class="st1" d="M401.6,465.9c3.4,3.3,6.7,6.8,9.9,10.4C408.3,472.7,405,469.2,401.6,465.9z"/>
<path class="st1" d="M232.8,442.4c-0.9,0.5-1.8,1-2.7,1.4C231,443.3,231.9,442.9,232.8,442.4z"/>
<path class="st1" d="M215.4,453.2c-1,0.7-2,1.5-3,2.2C213.4,454.7,214.4,453.9,215.4,453.2z"/>
<path class="st1" d="M396.5,461.2c-2.1-1.8-4.2-3.5-6.4-5.2C392.3,457.7,394.4,459.4,396.5,461.2z"/>
<path class="st1" d="M220.3,449.8c-1,0.6-1.9,1.3-2.9,2C218.3,451.1,219.3,450.5,220.3,449.8z"/>
<path class="st1" d="M210.9,456.6c-2.1,1.6-4.1,3.3-6.1,5.1C206.7,460,208.8,458.3,210.9,456.6z"/>
<path class="st1" d="M401.6,465.9l-0.9-0.9L401.6,465.9z"/>
<path class="st1" d="M374.4,445.4c-1-0.6-1.9-1.1-2.9-1.6C372.5,444.3,373.4,444.9,374.4,445.4z"/>
<path class="st1" d="M349.8,433.9c-1.4-0.5-2.7-1-4.1-1.4C347.1,433,348.4,433.4,349.8,433.9z"/>
<path class="st1" d="M390.1,456l-0.9-0.7L390.1,456z"/>
<path class="st1" d="M386.1,453c-0.6-0.5-1.3-0.9-1.9-1.4C384.9,452.1,385.5,452.6,386.1,453z"/>
<path class="st1" d="M343.8,431.9c-2-0.6-3.9-1.2-5.9-1.7C339.8,430.7,341.8,431.3,343.8,431.9z"/>
<path class="st1" d="M423.9,493L423.9,493L423.9,493z"/>
<path class="st1" d="M415,480.5L415,480.5L415,480.5z"/>
<path class="st1" d="M368.8,442.3c-1-0.5-2-1-3-1.5C366.8,441.3,367.8,441.8,368.8,442.3z"/>
<path class="st1" d="M397.5,462.1l-1-0.9L397.5,462.1z"/>
<path class="st1" d="M356.1,436.3c-1.3-0.5-2.7-1.1-4-1.6C353.4,435.3,354.8,435.8,356.1,436.3z"/>
<path class="st1" d="M363.3,439.5c-1.7-0.8-3.5-1.6-5.2-2.4C359.8,437.9,361.6,438.7,363.3,439.5z"/>
<path class="st1" d="M381.3,449.7c-0.8-0.5-1.6-1-2.4-1.5C379.7,448.6,380.5,449.1,381.3,449.7z"/>
<path class="st1" d="M411.8,476.6l-0.3-0.4L411.8,476.6z"/>
<path class="st1" d="M230.1,443.8c-0.9,0.5-1.9,1.1-2.8,1.6C228.3,444.9,229.2,444.3,230.1,443.8z"/>
<path class="st1" d="M243.6,437.2c-1.8,0.8-3.5,1.6-5.3,2.4C240,438.8,241.8,438,243.6,437.2z"/>
<path class="st1" d="M217.4,451.8l-2,1.4L217.4,451.8z"/>
<path class="st1" d="M204.7,461.7l-0.8,0.7L204.7,461.7z"/>
<path class="st1" d="M212.4,455.4c-0.5,0.4-1,0.8-1.5,1.2C211.4,456.2,211.9,455.9,212.4,455.4z"/>
<path class="st1" d="M235.9,440.8c-1,0.5-2.1,1-3.1,1.6C233.8,441.9,234.8,441.3,235.9,440.8z"/>
<path class="st1" d="M223,448c-0.9,0.6-1.9,1.2-2.8,1.8C221.2,449.2,222.1,448.6,223,448z"/>
<path class="st1" d="M200.8,465.3l-1.1,1L200.8,465.3z"/>
<path class="st1" d="M167.6,512.1L167.6,512.1L167.6,512.1z"/>
<path class="st1" d="M433.8,511.2L433.8,511.2L433.8,511.2z"/>
<path class="st1" d="M186.6,480.8l-0.4,0.5L186.6,480.8z"/>
<path class="st1" d="M174.7,498.1L174.7,498.1z"/>
<path class="st1" d="M189.7,477L189.7,477L189.7,477z"/>
<path class="st1" d="M256.1,432.5c-1.4,0.5-2.9,1-4.3,1.5C253.3,433.5,254.7,433,256.1,432.5z"/>
<path class="st1" d="M307.6,425.7c-2.2-0.1-4.5-0.2-6.7-0.2C303.1,425.5,305.4,425.6,307.6,425.7z"/>
<path class="st1" d="M300.9,425.5c-2.3,0-4.5,0.1-6.7,0.2C296.4,425.6,298.6,425.5,300.9,425.5z"/>
<path class="st1" d="M314.6,426.2c-1.7-0.2-3.3-0.3-5-0.4C311.3,425.9,312.9,426,314.6,426.2z"/>
<path class="st1" d="M292.2,425.8c-1.7,0.1-3.3,0.2-5,0.4C288.8,426,290.5,425.9,292.2,425.8z"/>
<path class="st1" d="M322.9,427.1c-2.1-0.3-4.3-0.6-6.5-0.8C318.6,426.6,320.7,426.8,322.9,427.1z"/>
<path class="st1" d="M249.5,434.9c-1.3,0.5-2.6,1-3.9,1.5C246.9,435.8,248.3,435.3,249.5,434.9z"/>
<path class="st1" d="M329.3,428.3c-1.8-0.4-3.5-0.7-5.3-1C325.8,427.6,327.6,427.9,329.3,428.3z"/>
<path class="st1" d="M336,429.8c-1.5-0.4-3.1-0.7-4.6-1.1C333,429,334.5,429.4,336,429.8z"/>
<path class="st1" d="M263.9,430.3c-2,0.5-4,1.1-6,1.7C259.9,431.3,261.9,430.8,263.9,430.3z"/>
<path class="st1" d="M277.9,427.3c-1.8,0.3-3.7,0.6-5.5,1C274.2,427.9,276,427.6,277.9,427.3z"/>
<path class="st1" d="M270.3,428.7c-1.5,0.3-3.1,0.7-4.6,1C267.3,429.4,268.8,429,270.3,428.7z"/>
<path class="st1" d="M285.3,426.3c-2.2,0.2-4.3,0.5-6.5,0.8C281,426.8,283.1,426.6,285.3,426.3z"/>
<path class="st1" d="M423.9,493L423.9,493c-2.8-4.4-5.7-8.5-8.9-12.5l0,0c-1-1.3-2.1-2.6-3.2-3.8l-0.3-0.4
	c-3.1-3.6-6.4-7.1-9.9-10.4l-0.9-0.9c-1-1-2.1-2-3.2-2.9l-1-0.9c-2.1-1.8-4.2-3.5-6.4-5.2l-0.9-0.7c-1-0.8-2-1.5-3-2.3
	c-0.6-0.5-1.3-0.9-1.9-1.4c-1-0.7-2-1.4-3-2c-0.8-0.5-1.6-1-2.4-1.5c-1.5-0.9-3-1.9-4.6-2.8c-1-0.5-1.9-1.1-2.9-1.6s-1.8-1-2.7-1.4
	s-2-1-3-1.5c-0.8-0.4-1.7-0.8-2.5-1.2c-1.7-0.8-3.5-1.6-5.2-2.4c-0.7-0.3-1.3-0.5-2-0.8c-1.3-0.5-2.7-1.1-4-1.6l-2.3-0.9
	c-1.4-0.5-2.7-1-4.1-1.4l-1.9-0.7c-2-0.6-3.9-1.2-5.9-1.7l-1.8-0.4c-1.5-0.4-3.1-0.7-4.6-1.1c-0.7-0.1-1.4-0.3-2.1-0.4
	c-1.8-0.4-3.5-0.7-5.3-1l-1.2-0.2c-2.1-0.3-4.3-0.6-6.5-0.8c-0.6-0.1-1.2-0.1-1.8-0.2c-1.7-0.2-3.3-0.3-5-0.4
	c-0.6,0-1.3-0.1-1.9-0.1c-2.2-0.1-4.5-0.2-6.7-0.2s-4.5,0.1-6.7,0.2l-2,0.1c-1.7,0.1-3.3,0.2-5,0.4c-0.6,0-1.2,0.1-1.9,0.2
	c-2.2,0.2-4.3,0.5-6.5,0.8l-1,0.2c-1.8,0.3-3.7,0.6-5.5,1c-0.7,0.1-1.4,0.3-2.1,0.4c-1.5,0.3-3.1,0.7-4.6,1
	c-0.6,0.2-1.3,0.3-1.9,0.5c-2,0.5-4,1.1-6,1.7c-0.6,0.2-1.2,0.4-1.8,0.6c-1.4,0.5-2.9,1-4.3,1.5l-2.3,0.9c-1.3,0.5-2.6,1-3.9,1.5
	c-0.7,0.3-1.4,0.6-2.1,0.9c-1.8,0.8-3.5,1.6-5.3,2.4c-0.8,0.4-1.6,0.8-2.4,1.2c-1,0.5-2.1,1-3.1,1.6s-1.8,1-2.7,1.4
	s-1.9,1.1-2.8,1.6c-1.4,0.9-2.9,1.7-4.3,2.6c-0.9,0.6-1.9,1.2-2.8,1.8s-1.9,1.3-2.9,2l-2,1.4c-1,0.7-2,1.5-3,2.2
	c-0.5,0.4-1,0.8-1.5,1.2c-2.1,1.6-4.1,3.3-6.1,5.1l-0.8,0.7c-1.1,1-2.1,1.9-3.1,2.9l-1.1,1c-3.5,3.4-6.9,6.9-10.1,10.7l-0.1,0.1
	c-1,1.2-2.1,2.5-3.1,3.8l-0.4,0.5c-4.2,5.3-8,11-11.4,16.8l0,0c-2.6,4.5-5,9.1-7.1,13.9l0,0c81.5,50.9,185,50.5,266.2-0.8l0,0
	C430.9,504.9,427.6,498.8,423.9,493z"/>
<path class="st2" d="M262.5,209.4c-4.8,0.5-9.5,1.1-14.3,1.6c-16.2,1.6-32.4,4.2-48.3,7.7c-27.9,6-55.2,14.7-81.4,26
	c-7,3-14,6.3-20.9,9.6c-8.8,4-17.8-0.7-19.4-10.2c-0.9-5.4,2.3-11.2,7.8-13.9c18.4-9,37.4-16.8,56.8-23.4
	c16.9-5.7,34.2-10.5,51.7-14.3c17.4-3.8,35-6.6,52.8-8.3c0.2,0.6,0.4,1.2,0.5,1.8c0.5,6.1,3.1,11.8,7.3,16.3
	C257.3,204.9,260,207.1,262.5,209.4z"/>
<path class="st2" d="M345.5,184c0.7,0.6,1.7,0.9,2.7,0.9c21.1,2.3,42,6.1,62.6,11.3c32,8,63.1,19.4,92.8,33.8
	c7.4,3.6,10.4,11.2,7.2,18.1c-3.4,7.1-11.1,9.7-18.6,6c-19.6-9.5-39.7-17.5-60.4-24.2c-24.5-7.8-49.7-13.6-75.2-17.1
	c-4.3-0.6-8.7-1.1-13-1.7c2.6-3.8,4.1-8.2,4.2-12.8c0.1-3.8-1.3-7-2.3-10.4L345.5,184z"/>
<path class="st3" d="M184.1,145c0.2,10.3,4.7,19.1,11.7,26.5c6.4,6.7,14.1,11.3,23.9,12.5V70H184C183.9,95.5,183.7,120.3,184.1,145z
	"/>
<path class="st3" d="M417,69.7h-35.2v113.6c19.1-1.7,35.5-20.5,35.7-41.2c0.2-22.5,0.1-45.1,0-67.6C417.4,73,417.2,71.3,417,69.7z"
	/>
<path class="st1" d="M430.5,67.1c0-7.7-0.9-10.1-6-10.8c-1.6-0.2-3.2-0.2-4.8-0.2c-36.8,0-73.6,0.1-110.4,0.2h-8.8
	c-1.9,0-3.8,0.3-6,0.4c0,3.1,0,5.5,0,8c0.1,28,0.3,56,0.1,83.9c0,3.2-1.5,8.3-3.6,9c-2.7,1-6.9-0.9-9.9-2.6c-4-2.3-7.5-5.6-11.4-8.7
	c-4.3,3.4-8,7-12.4,9.6c-2.5,1.5-6.4,2.8-8.8,1.8c-1.9-0.8-3.3-5-3.4-7.8c-0.4-13.5-0.3-27.1-0.4-40.6c0-17.4,0-34.7,0-53
	c-22.2,0-43.6-0.1-65,0.1c-7.7,0.1-9.1,1.8-9.1,9.9c0,24.4-0.1,48.7,0,73.1c0.1,30.8,19.1,52.9,49.1,58.1c2.3,0.4,4.8,2.7,6.1,4.8
	c3.9,6.3,6.6,13.4,10.9,19.3c14.2,19.3,33.7,29.7,57.4,32.5v65.7c-25.9,6.5-36.9,15.1-35.3,28h85.9c-4.5-20.7-20.9-24.1-36.6-28
	v-65.6c32.9-5.1,55.8-22.3,68.3-53.3c0.7-1.7,3.4-3.3,5.4-3.6c28.6-4.4,48.8-27.8,48.9-57.1C430.8,115.9,430.6,91.5,430.5,67.1z
	 M219.7,184c-9.8-1.2-17.4-5.7-23.9-12.5c-7-7.4-11.6-16.3-11.7-26.5c-0.4-24.7-0.1-49.4-0.1-75h35.7V184z M417.5,142.2
	c-0.2,20.6-16.6,39.4-35.7,41.2V69.7H417c0.3,1.6,0.4,3.2,0.5,4.8C417.5,97.1,417.7,119.7,417.5,142.2L417.5,142.2z"/>
<path class="st4" d="M200.9,445.8h200.5v-41H200.9V445.8z"/>
<path class="st5" d="M230.3,355.6v40.8h141.4v-40.8H230.3z"/>
<path class="st5" d="M280.9,139V56.9h-22.4v82.5C266.3,129.5,273.4,130.1,280.9,139z"/>
</svg>
