<?xml version="1.0" encoding="utf-8"?>
<!-- Generator: Adobe Illustrator 23.0.1, SVG Export Plug-In . SVG Version: 6.00 Build 0)  -->
<svg version="1.1" id="Layer_1" xmlns="http://www.w3.org/2000/svg" xmlns:xlink="http://www.w3.org/1999/xlink" x="0px" y="0px"
	 viewBox="0 0 600 600" style="enable-background:new 0 0 600 600;" xml:space="preserve">
<style type="text/css">
	.st0{fill:none;stroke:#282F6B;stroke-width:18;stroke-miterlimit:10;}
	.st1{fill:#B4C835;}
	.st2{fill:#2694CC;}
	.st3{fill:#282F6B;}
</style>
<title>comprehensive</title>
<circle class="st0" cx="300" cy="300" r="255.9"/>
<path class="st1" d="M400.4,144.5c-6.1-10-17-16.2-28.8-16.3h-0.5c-11.7,0.1-22.3,6.9-28.1,16.6c-3,5-4.6,10.6-4.7,16.4
	c-0.2,18.4,14.5,33.5,32.9,33.7c0.1,0,0.2,0,0.3,0c16.4,0,29.7-10.9,32.9-26.1c0.5-2.3,0.8-4.6,0.8-7
	C405.3,155.8,403.6,149.7,400.4,144.5z"/>
<path class="st2" d="M518.6,93.9c-3.9-6.4-10.7-10.2-18.2-10.3H500c-7.3,0.2-14,4.2-17.8,10.5c-1.9,3.1-2.9,6.7-3,10.4
	c-0.1,11.7,9.3,21.2,21,21.3c9.9,0.1,18.6-6.8,20.8-16.5c0.3-1.5,0.5-2.9,0.5-4.4C521.7,101,520.6,97.2,518.6,93.9z"/>
<path class="st1" d="M504.8,132.5c-0.9-6-2-11.9-4.7-17.6c-4.7,13.7-12.4,26.2-22.4,36.7c-4.2,4.4-8.8,8.5-13.7,12.2
	c-23.2,17.7-50,28-76.9,38.3c-26.6,10.1-54,18.7-78.9,32.9c-15.2,8.7-29.2,19.1-36.9,35.5c-14,29.8-3.3,57.1,8.8,84.1
	c2.6-0.6,2.9-2.2,3.5-3.5c7.5-16.1,19.2-28.7,33.1-39.4c7.5-5.8,15.4-11.1,23.6-15.9c0.8-1.9,1.5-3.7,2.2-5.6c0.5,1.2,1,2.3,1.4,3.5
	c14.4-8.3,29.4-15.4,44.3-22.6c24.7-12,49.6-23.6,72-39.8c6.9-4.9,13.4-10.5,19.3-16.7C500.4,192.8,509.8,166,504.8,132.5z"/>
<path class="st3" d="M186.2,312.3c-14.1,0-26.6,9-31.1,22.3c-1.2,3.6-1.8,7.5-1.8,11.3c0,1.9,0.2,3.8,0.5,5.6
	c2.8,15.8,16.8,27.9,33.1,27.6c18.3-0.3,33.4-15.7,33.3-33.8C219.8,326.9,204.7,312.2,186.2,312.3z"/>
<path class="st3" d="M347.3,307.8c-0.6-4.8-1.7-9.5-3.2-14.1l-3.6,2.1c-7.3,17.6-18.8,31.8-33.9,43.3c-23.2,17.7-50,28-76.9,38.3
	c-15,5.7-30.1,10.9-45,16.9c-11.6,4.6-23,9.9-33.9,16c-15.2,8.7-29.2,19-36.9,35.5c-14,29.8-3.3,57.1,8.8,84.1
	c2.6-0.6,2.9-2.2,3.5-3.5c7.6-16.1,19.2-28.7,33.1-39.4c21.9-16.9,46.8-28.6,71.6-40.6l1.9-0.9c24.1-11.6,48.3-23.1,70.2-38.9
	C336.7,382.2,353.7,350.4,347.3,307.8z"/>
<path class="st3" d="M333,316.8c1.2-0.7,2.4-1.4,3.6-2.1c-0.4-1.2-0.9-2.4-1.4-3.5C334.4,313.1,333.7,315,333,316.8z"/>
</svg>
