<?xml version="1.0" encoding="utf-8"?>
<!-- Generator: Adobe Illustrator 23.0.1, SVG Export Plug-In . SVG Version: 6.00 Build 0)  -->
<svg version="1.1" id="Layer_1" xmlns="http://www.w3.org/2000/svg" xmlns:xlink="http://www.w3.org/1999/xlink" x="0px" y="0px"
	 viewBox="0 0 600 600" style="enable-background:new 0 0 600 600;" xml:space="preserve">
<style type="text/css">
	.st0{fill:none;stroke:#282F6B;stroke-width:16;stroke-miterlimit:10;}
	.st1{fill:#2694CC;stroke:#282F6B;stroke-width:11;stroke-miterlimit:10;}
	.st2{fill:none;stroke:#282F6B;stroke-width:9;stroke-miterlimit:10;}
	.st3{fill:#282F6B;}
	.st4{fill:#282F6B;stroke:#282F6B;stroke-width:2;stroke-miterlimit:10;}
	.st5{fill:#B4C835;}
</style>
<title>dialogue</title>
<path class="st0" d="M235.3,58.5l31.3,31.3l-59.9,59.9L154,97C65.4,160.8,28.4,274.7,62.5,378.4l26.3-26.3l59.9,59.9l-44.1,44.1
	c62,77.6,164.1,111.1,260.1,85.5l-14.6-14.7L410,467l36,36c79.5-57.3,118.3-155.6,99.2-251.7l-18.3,18.3l-59.9-59.9l44-43.9
	C452.3,73.7,340.7,30.3,235.3,58.5z"/>
<path class="st1" d="M88.8,352.1l-26.3,26.3c9.3,28.2,23.6,54.5,42.1,77.7l44.1-44.1L88.8,352.1z"/>
<path class="st1" d="M350.1,526.9l14.6,14.6c29.2-7.8,56.8-20.9,81.3-38.5l-36-36L350.1,526.9z"/>
<path class="st1" d="M266.6,89.8l-31.3-31.3C206.1,66.3,178.5,79.3,154,97l52.7,52.7L266.6,89.8z"/>
<path class="st1" d="M526.9,269.5l18.3-18.4c-6.1-30.4-17.8-59.4-34.5-85.4l-43.9,44L526.9,269.5z"/>
<line class="st2" x1="455.5" y1="225.6" x2="508.2" y2="279.6"/>
<path class="st3" d="M513.9,276l-9.7-9.8c-2.5-2.7-6.6-2.8-9.3-0.3c-2.7,2.5-2.8,6.6-0.3,9.3c0.1,0.1,0.2,0.2,0.3,0.3l5.1,5.1
	L478.6,302l-52.1-52.1c4.8-4.8,17.8-17.7,21.4-21.4l5.1,5.1c2.7,2.5,6.8,2.3,9.3-0.3c2.4-2.5,2.4-6.5,0-9l-9.8-9.8
	c-2.6-2.6-6.7-2.6-9.3,0c0,0,0,0,0,0l-4.9,4.9c-5.6-4.1-12.4-6.3-19.3-6.3h-15.4c-4.4,0-8.7-1.5-12.2-4.2c3.5-7.5,2-16.4-3.9-22.2
	c-3.4-3.5-8-5.5-12.9-5.8c-0.3-4.8-2.3-9.4-5.7-12.8c-3.4-3.4-8-5.5-12.9-5.8c-0.3-4.8-2.3-9.4-5.7-12.8c-3.4-3.5-8-5.5-12.9-5.8
	c-0.3-4.8-2.3-9.4-5.7-12.8c-5.9-6-15-7.6-22.6-4l-26.8-26.8c-2.6-2.6-6.7-2.6-9.3,0c0,0,0,0,0,0l-58.6,58.6c-2.6,2.6-2.6,6.7,0,9.3
	c0,0,0,0,0,0l4.9,4.9c-4.3,5.8-6.6,12.8-6.6,20v15.4c0,4.2-1.4,8.4-3.9,11.8c-7.5-3.5-16.3-2-22.3,3.8c-3.4,3.5-5.4,8.2-5.5,13.1
	c-10.2,0.2-18.4,8.4-18.6,18.6c-10.2,0.2-18.4,8.4-18.6,18.6c-4.9,0.1-9.6,2.1-13.1,5.5c-5.7,6-7.2,14.8-3.7,22.3l-26.9,27
	c-2.6,2.6-2.6,6.7,0,9.3c0,0,0,0,0,0l58.6,58.6c2.6,2.6,6.7,2.6,9.3,0c0,0,0,0,0,0l4.8-4.8c5.8,4.6,13,7.1,20.4,7.1h15.4
	c4,0,7.8,1.2,11.1,3.4c-3.6,7.6-2.2,16.7,3.7,22.7c3.5,3.5,8.1,5.5,13,5.6c0.2,4.9,2.2,9.5,5.6,13c3.5,3.5,8.1,5.4,13,5.6
	c0.2,4.9,2.2,9.5,5.6,13c3.5,3.5,8.1,5.5,13,5.6c0.2,4.9,2.2,9.5,5.6,13c6.1,6,15.3,7.3,22.9,3.4l26.7,26.7c2.6,2.6,6.7,2.6,9.3,0
	c0,0,0,0,0,0l58.6-58.6c2.6-2.6,2.6-6.7,0-9.3c0,0,0,0,0,0l-4.8-4.8c4.3-5.7,6.7-12.7,6.7-19.9v-15.4c0-3.8,1.1-7.6,3.2-10.8
	c8.6,6.7,20.9,5.2,27.7-3.3c2.5-3.2,4-7.1,4.2-11.1c10-0.5,18.1-8.6,18.6-18.6c10-0.5,18.1-8.6,18.6-18.6
	c10.9-0.6,19.2-9.8,18.6-20.7c-0.2-2.9-0.9-5.7-2.3-8.3l26.6-26.6C516.5,282.7,516.5,278.6,513.9,276C513.9,276,513.9,276,513.9,276
	z M277.8,114.2l21.4,21.4l-49.2,49.3l-21.4-21.4L277.8,114.2z M225.9,208.4V193c0-3.7,1.1-7.3,3-10.5l16.4,16.4
	c2.6,2.6,6.7,2.6,9.3,0c0,0,0,0,0,0l58.7-58.7c2.6-2.5,6.8-2.4,9.3,0.2c0,0,0,0,0,0c2.5,2.4,2.6,6.5,0.1,9c0,0-0.1,0.1-0.1,0.1
	L303.9,168c-2.7,2.5-2.8,6.6-0.3,9.3c2.5,2.7,6.6,2.8,9.3,0.3c0.1-0.1,0.2-0.2,0.3-0.3l18.6-18.6c2.6-2.5,6.8-2.4,9.3,0.2
	c2.5,2.5,2.6,6.5,0.1,9c0,0-0.1,0.1-0.1,0.1l-18.6,18.6c-2.5,2.7-2.3,6.8,0.3,9.3c2.5,2.4,6.5,2.4,9,0l18.6-18.6
	c2.6-2.5,6.8-2.4,9.3,0.2c2.5,2.5,2.6,6.5,0.1,9c0,0-0.1,0.1-0.1,0.1l-18.6,18.6c-2.5,2.7-2.3,6.8,0.3,9.3c2.5,2.4,6.5,2.4,9,0
	l18.6-18.6c2.6-2.5,6.8-2.4,9.3,0.2c0,0,0,0,0,0c2.5,2.4,2.6,6.5,0.1,9c0,0-0.1,0.1-0.1,0.1L322,261.5c-6.1,6.2-14.4,9.7-23.1,9.7
	c-2.3,0.3-15.4-1.7-29.5,7.4l-50.2-50.2C223.6,222.7,226,215.6,225.9,208.4z M327.5,299.3c0,8.2,2.2,16.3,6.4,23.4
	c-10,5.9-18.7,4.3-21.3,4.6c-8.4,0-16.6,2.2-23.7,6.5c-5.4-9.7-4-18.1-4.2-20.6c0-8.6-2.4-17-6.9-24.3c9.9-5.8,18.5-4.2,21-4.5
	c8.4,0,16.7-2.4,23.9-6.8C328.9,287.7,327.3,296.9,327.5,299.3L327.5,299.3z M163.4,382.9l-49.3-49.3l21.4-21.4l49.3,49.3
	L163.4,382.9z M208.7,386h-15.4c-3.9,0-7.8-1.2-11-3.4l16.5-16.4c2.6-2.6,2.6-6.7,0-9.3c0,0,0,0,0,0l-58.4-58.4
	c-2.5-2.7-2.6-7.1-0.2-9.5s7-2.3,9.7,0.4l18.6,18.6c2.5,2.7,6.6,2.8,9.3,0.3c2.7-2.5,2.8-6.6,0.3-9.3c-0.1-0.1-0.2-0.2-0.3-0.3
	l-18.6-18.6c-2.7-2.7-2.9-7.2-0.4-9.7s7-2.3,9.7,0.4l18.6,18.6c2.7,2.5,6.8,2.3,9.3-0.3c2.4-2.5,2.4-6.5,0-9l-18.6-18.6
	c-2.7-2.7-2.9-7.2-0.4-9.7s7-2.3,9.7,0.4l18.6,18.6c2.7,2.5,6.8,2.3,9.3-0.3c2.4-2.5,2.4-6.5,0-9l-18.6-18.6
	c-2.7-2.7-2.9-7.2-0.4-9.7s6.9-2.3,9.5,0.3l0.2,0.1l56.3,56.3c6.2,6.2,9.6,14.5,9.6,23.2c0.3,2.3-1.7,15,7,28.9l-50.4,50.4
	C222.6,388.3,215.7,386,208.7,386z M333.6,497.3l-21.4-21.4l49.3-49.3l21.4,21.4L333.6,497.3z M385.6,403.3v15.4
	c0,3.7-1.1,7.3-3,10.4l-16.5-16.5c-2.6-2.6-6.7-2.6-9.3,0c0,0,0,0,0,0l-58.7,58.7c-2.7,2.7-7.1,2.9-9.6,0.5s-2.4-7.1,0.3-9.8
	l18.7-18.7c2.5-2.7,2.3-6.8-0.3-9.3c-2.5-2.4-6.5-2.4-9,0l-18.7,18.7c-2.7,2.7-7.1,2.9-9.6,0.5s-2.4-7.1,0.3-9.8l18.7-18.7
	c2.6-2.6,2.6-6.7,0-9.3c-2.6-2.6-6.7-2.6-9.3,0l-18.7,18.7c-2.7,2.7-7.1,2.9-9.6,0.5s-2.4-7.1,0.3-9.8l18.7-18.7
	c2.5-2.7,2.3-6.8-0.3-9.3c-2.5-2.4-6.5-2.4-9,0l-18.7,18.7c-2.7,2.7-7.1,2.9-9.6,0.5s-2.4-7.1,0.3-9.8l56.3-56.3
	c6.2-6.1,14.6-9.6,23.3-9.5c2.4-0.3,15.4,1.8,29.5-7.4l50.2,50.2C388,389,385.6,396,385.6,403.3L385.6,403.3z M474.6,325.8
	c-2.6,2.6-6.7,2.6-9.3,0l-21.4-21.4c-2.5-2.7-6.6-2.8-9.3-0.3c-2.7,2.5-2.8,6.6-0.3,9.3c0.1,0.1,0.2,0.2,0.3,0.3l21.3,21.4
	c2.6,2.5,2.7,6.7,0.2,9.3c-2.5,2.6-6.7,2.7-9.3,0.2c-0.1-0.1-0.1-0.1-0.2-0.2l-21.4-21.4c-2.7-2.5-6.8-2.3-9.3,0.3
	c-2.4,2.5-2.4,6.5,0,9l21.4,21.4c2.5,2.7,2.3,6.8-0.3,9.3c-2.5,2.4-6.5,2.4-9,0l-21.4-21.4c-2.6-2.6-6.7-2.6-9.3,0
	c-2.6,2.6-2.6,6.7,0,9.3l21.4,21.4c2.5,2.7,2.3,6.8-0.3,9.3c-2.5,2.4-6.5,2.4-9,0l-59.1-59.1c-6.2-6.2-9.6-14.5-9.6-23.2
	c-0.3-2.4,1.9-15.7-7.8-30.1l50-50c5.8,4.7,13.1,7.3,20.6,7.3H419c3.5,0,6.8,0.9,9.8,2.6l-16.3,16.3c-2.6,2.6-2.6,6.7,0,9.3
	c0,0,0,0,0,0l61.9,61.9C477.1,319.1,477.1,323.3,474.6,325.8L474.6,325.8z"/>
<path class="st4" d="M301.1,267.2c2.6-2.7,5-5.5,7.7-7.9c5.3-4.8,12.1-7.5,19.3-7.6c14.3-0.2,28.7-0.1,43-0.1c2.5,0,3.9,1.6,3.9,4.2
	v105.8c0,3-1.4,4.2-4.7,4.3c-13.1,0-26.1-0.1-39.2,0.1c-4,0.1-7.9,0.8-11.7,2c-5.9,2-10.3,6.3-13.2,12.1c-0.4,0.7-0.7,1.5-1.1,2.3
	c-0.5,1.6-2,2.7-3.7,2.7c-1.9,0.1-3-1.1-4-2.7c-1.4-2.5-2.7-5.2-4.5-7.4c-5.5-6.7-12.9-9.1-21.1-9.2c-13.1,0-26.1,0-39.2,0
	c-4,0-5.4-1.4-5.4-5.6V257.6c0-4.8,1.1-6,5.6-6c12.7,0,25.5,0.1,38.2,0c12.1-0.1,21.8,4.8,29.2,14.8
	C300.6,266.8,300.9,267.1,301.1,267.2z M366.9,260.4c-0.5-0.1-0.9-0.1-1.2-0.1c-11.9,0-23.9,0-35.8,0c-7.7-0.2-15,3.2-19.9,9.1
	c-2.4,2.9-4.8,5.8-4.8,10.2c0.1,28.4,0,56.8,0,85.2v2.2c0.3,0,0.4,0.1,0.4,0c0.4-0.3,0.7-0.6,1.1-0.9c5.9-5.6,13.8-8.7,21.9-8.7
	c11.9,0,23.9,0,35.8,0h2.4V260.4z M235.6,357.4h2.6h36.2c4.5,0,8.9,1.1,12.9,3.2c3.3,1.8,6.4,4.1,9.7,6.1c0-0.4,0.1-1,0.1-1.6
	c0-28.9,0-57.8,0-86.7c0-0.8-0.1-1.5-0.3-2.2c-4.5-9.3-11.6-15.2-21.6-15.6c-12.8-0.5-25.6-0.2-38.4-0.3c-0.4,0-0.8,0.1-1.2,0.2
	L235.6,357.4z"/>
<path class="st5" d="M366.9,260.4v97h-2.4c-11.9,0-23.9,0-35.8,0c-8.2,0-16,3.2-21.9,8.7c-0.4,0.3-0.7,0.6-1.1,0.9c0,0-0.1,0-0.4,0
	v-2.2c0-28.4,0-56.8,0-85.2c0-4.4,2.4-7.3,4.8-10.2c4.9-6,12.2-9.3,19.9-9.2c11.9-0.1,23.9,0,35.8,0
	C366.1,260.2,366.4,260.3,366.9,260.4z"/>
<path class="st5" d="M235.6,357.4v-96.9c0.4-0.1,0.8-0.2,1.2-0.2c12.8,0,25.6-0.3,38.4,0.3c10,0.4,17.1,6.3,21.6,15.6
	c0.3,0.7,0.4,1.5,0.3,2.2c0,28.9,0,57.8,0,86.7c0,0.6-0.1,1.2-0.1,1.6c-3.3-2.1-6.3-4.4-9.7-6.1c-4-2.1-8.4-3.2-12.9-3.2h-36.2
	L235.6,357.4z"/>
</svg>
