<?xml version="1.0" encoding="utf-8"?>
<!-- Generator: Adobe Illustrator 23.0.1, SVG Export Plug-In . SVG Version: 6.00 Build 0)  -->
<svg version="1.1" id="Layer_1" xmlns="http://www.w3.org/2000/svg" xmlns:xlink="http://www.w3.org/1999/xlink" x="0px" y="0px"
	 viewBox="0 0 534 680" style="enable-background:new 0 0 534 680;" xml:space="preserve">
<style type="text/css">
	.st0{fill:none;}
	.st1{fill:#2694CC;}
	.st2{fill:#282F6B;}
	.st3{fill:none;stroke:#282F6B;stroke-width:16;stroke-miterlimit:10;}
	.st4{fill:#B4C835;}
</style>
<title>forum</title>
<path class="st0" d="M371.8,122c4.3,0,8.6-0.2,12.9,0.1C380.3,121.7,376,122,371.8,122c-3.2,0-6.8-0.8-9.9-0.5
	C365,121.2,368.6,122,371.8,122z"/>
<path class="st1" d="M334.2,83.6c1.1-0.3,3.7-0.2,5.1-1.5c7.6-7.1,15.6-13.9,21.7-22.1c2.2-3,1.3-11.6-1.5-14.1
	c-3.3-3-11.8-4.7-15-2.5c-8.5,6-15.9,13.3-22.1,21.5C316.3,73.2,322.9,83.7,334.2,83.6z"/>
<path class="st1" d="M371.8,122c-3.2,0-6.8-0.8-9.9-0.5c-1,0.1-1.9,0.4-2.8,0.8c-4.7,2.4-11.1,6.9-11.5,11s5.2,11.9,9.2,12.7
	c9.8,1.9,19.8,1.9,29.6,0.1c4.1-0.8,8.9-7.9,9.7-12.7c1.1-6.6-4.4-10.9-11.4-11.4C380.4,121.7,376.1,122,371.8,122z"/>
<path class="st1" d="M197.2,79.7c2.5,2.2,6.1,3.1,10.6,5.3c3.4-2.8,8.5-5,9.7-8.5c1.3-4,0.6-10.1-1.8-13.5
	c-4.7-6.6-11.1-12-17.1-17.6c-5.8-5.4-12.6-6-18.2-0.5s-5.3,12.4,0.1,18.2C185.7,69,191.3,74.5,197.2,79.7z"/>
<path class="st1" d="M270,56.6c4.1,0,9.5-5.9,12-10.4c2-3.5,0.4-9.1,0.4-13.7h0.2c0-3.9,0.2-7.9,0-11.8c-0.4-7.6-4.7-12.2-12-12.5
	c-7.5-0.4-12.4,4.3-13,11.6c-0.7,8.8-1.5,18.1,0.5,26.6C259,50.7,265.8,56.6,270,56.6z"/>
<path class="st1" d="M152.9,146c10.1,1.8,20.4,1.8,30.6,0c3.8-0.6,9.3-8.3,8.8-11.9c-0.7-4.4-6.3-9.1-10.9-11.7
	c-3.2-1.8-8.3-0.3-12.6-0.3l0,0c-4.3,0-9.2-1.3-12.6,0.3c-4.8,2.3-11.4,6.6-11.9,10.7S149.1,145.2,152.9,146z"/>
<path class="st2" d="M366.2,254.5c0.8-9.8-3.2-21.3-8.3-30.1c-9.8-16.7-37.6-25.2-54.5-18.5c-2.4,1-4.3,3.6-6.1,5.8
	c-6.6,8-13,16.2-19.6,24.3c-7.3,9.1-9.1,9.1-16.2,0.4c-4.8-5.8-10-11.3-14-17.7c-6.5-10.5-14.9-14.1-27.5-13.6
	c-29.9,1.2-50.3,23-47,52.9c4.1,37.4,8.5,74.7,12.8,112.1c1.4,12.7,6,24.3,17.4,30.5c8.1,4.4,9.2,10.6,10,18.2
	c6.3,58.4,12.5,116.8,19.1,175.1c3.8,33.1,4.1,33,37.5,33c3.6,0,7.2,0,10.8,0c18.1,0,23.6-5.1,25.2-23c1.3-13.5,2.9-27.1,4.4-40.6
	c5.5-49.9,10.8-99.7,16.7-149.4c0.5-4,4-8.7,7.5-11.2c9.9-6.9,17.3-15.4,18.8-27.5C358,335,363,294.8,366.2,254.5z"/>
<path class="st1" d="M159.7,609.3c5.8-53.3,11.7-106.7,17.6-160c0.4-3.2,1.8-7.1,4.1-9c10.7-9,11.3-14.2,1.3-23.5
	c-12.6-11.8-19.4-26.1-21.2-43.3c-3.1-29.8-6.8-59.6-10.6-91.8c-5.9,7.2-10.2,11.9-13.9,17.1c-5,7-9.2,8-14.6,0.3
	c-5-7-10.4-13.7-16.1-20.1c-2.2-2.5-5.2-5.3-8.3-5.9c-29.2-5.4-53,16.8-49.7,46.1c3.5,30.6,6.3,61.2,10.9,91.6
	c1.3,8.8,6.1,19.2,12.7,24.6c7.6,6.1,9.4,12.3,10.3,20.5c4.7,43.7,9.5,87.3,14.4,131c16,15.1,33.9,28.1,53.3,38.5
	C156,623.2,158.7,618.3,159.7,609.3z"/>
<path class="st1" d="M462.8,440.2c12.7-6.9,17.8-17.9,19.2-31.5c3.1-30.6,6.4-61.2,9.5-91.8c0.4-3.5,0.3-7.1-0.2-10.6
	c-2.4-16.2-11.8-26.7-27.1-31.3c-18.8-5.6-25.2-3.2-37.4,12.3c-2.9,3.6-6.1,7.1-8.6,10.9c-5,7.8-9.7,8.7-15.2,0.4
	c-3.3-5-7.5-9.4-13.2-16.5c-3.6,30.6-7.4,58.6-10,86.7c-1.9,20.3-9.3,36.9-24.6,50.8c-3.1,2.9-3.6,15.1-1.8,15.9
	c11.3,5.6,9.6,15.8,10.6,24.8c5.5,48.7,10.6,97.5,16.1,146.2c0.5,4.9,1.5,10.2,4,14.2c1.3,1.7,3.1,3,5.1,3.7
	c19.8-10.9,38.1-24.5,54.3-40.3c5.1-45.4,10.1-90.8,15.3-136.2C458.9,445.1,460.5,441.3,462.8,440.2z"/>
<circle class="st3" cx="268.5" cy="405.3" r="250"/>
<path class="st4" d="M117.3,167.9c-19.5,5.5-32.8,23.1-33.1,43.7c-0.1,6.9,1.5,13.8,4.6,20c20.9-21.6,45.4-39.3,72.6-52.2
	C149.8,168,133,163.6,117.3,167.9z"/>
<path class="st4" d="M88.8,231.5c8.6,17.5,28.3,28.7,48.5,24.9c7-1.3,10.5-3.9,10.8-11.6c0.5-16.3,7.4-31.7,19.1-43
	c5.3-5.2,4-8.8,1-13.7c-1.9-3.2-4.2-6.1-6.9-8.7C134.2,192.3,109.6,209.9,88.8,231.5z"/>
<path class="st4" d="M451.8,192.7c-8-16.8-21.9-25.8-41.5-26.1c-13.2,0.2-24.2,4.8-32.3,13.9c27.1,13.2,51.7,31.3,72.4,53.2
	C457.9,221,458.5,207,451.8,192.7z"/>
<path class="st4" d="M377.9,180.5c-2.8,3.1-5.1,6.6-7.1,10.3c-1.3,2.4-0.5,7.6,1.4,9.7c11.8,13.3,19,28.2,20.3,46.1
	c0.3,3.2,4.4,8,7.6,8.9c17.9,4.8,33.3-0.7,45.1-14.7c1.9-2.2,3.5-4.5,5-7C429.6,211.8,405.1,193.7,377.9,180.5z"/>
<path class="st4" d="M270.2,82.2c-30-0.1-54.4,24.2-54.4,54.2c0,0.2,0,0.4,0,0.6c0.1,7.9,1.9,15.7,5.4,22.9
	c32.2-6.2,65.2-6,97.4,0.5c3.8-7.5,5.8-15.7,5.7-24.1C324.2,106.4,300,82.3,270.2,82.2z"/>
<path class="st4" d="M221.1,159.8c9.2,18.8,28.3,30.7,49.2,30.7c20.9-0.1,39.3-12.5,48.2-30.2C286.4,153.8,253.3,153.6,221.1,159.8z
	"/>
</svg>
