<?xml version="1.0" encoding="utf-8"?>
<!-- Generator: Adobe Illustrator 23.0.1, SVG Export Plug-In . SVG Version: 6.00 Build 0)  -->
<svg version="1.1" id="Layer_1" xmlns="http://www.w3.org/2000/svg" xmlns:xlink="http://www.w3.org/1999/xlink" x="0px" y="0px"
	 viewBox="0 0 600 600" style="enable-background:new 0 0 600 600;" xml:space="preserve">
<style type="text/css">
	.st0{fill:none;stroke:#282F6B;stroke-width:16;stroke-miterlimit:10;}
	.st1{fill:#FFFFFF;}
	.st2{fill:#B4C835;stroke:#282F6B;stroke-width:8;stroke-miterlimit:10;}
	.st3{fill:#2694CC;}
	.st4{fill:#282F6B;}
	.st5{fill:#B4C835;}
</style>
<title>observation</title>
<ellipse class="st0" cx="300" cy="312.5" rx="250" ry="249.5"/>
<path class="st1" d="M189.6,415.8c26.6-41.5,52.3-81.9,78.8-123.3l122.5,79.1c-2.7,4.5-5,8.6-7.6,12.6c-16,25-32.3,49.8-48,75
	c-3.8,6.1-8,8.2-15.3,9c-33.1,3.7-62.1-4.2-88.3-25.2C219.1,432.8,204.5,425.2,189.6,415.8z M236.2,415.5l46.8-9.1
	c3.7,15.8,7.1,30.6,10.7,45.9l20.2-4.5c-3.3-16.2-6.4-31.1-9.5-46.5l46.2-10.5c-1.5-7.1-2.9-13.6-4.4-20.5l-46.3,9.9
	c-3.8-16.3-7.3-31.5-11-46.9l-20.2,5.6c3.4,16.1,6.6,31,9.9,46.3l-46.5,10C233.5,402.2,234.7,408.1,236.2,415.5z"/>
<path d="M236.2,415.5c-1.5-7.5-2.7-13.3-4.1-20.3l46.5-10c-3.3-15.4-6.5-30.3-9.9-46.3l20.2-5.6c3.6,15.5,7.1,30.6,11,46.9l46.3-9.9
	c1.5,6.9,2.9,13.4,4.4,20.5l-46.1,10.5c3.2,15.4,6.2,30.3,9.5,46.5l-20.2,4.5c-3.6-15.3-7-30.1-10.7-45.9L236.2,415.5z"/>
<path class="st2" d="M298.9,36.5c34.9,0.8,63.6,15.4,89.7,36.2c8.5,6.8,16.1,14.6,23.8,22.3c6,6.2,6.5,13.7,0.5,19.8
	c-27.6,28.7-59.1,51-99.8,57c-26.9,3.9-52.1-2.4-74.5-16.4c-18.3-11.4-34.7-26-51.2-40c-7.9-6.7-7.6-14.7-0.6-21.8
	c27.4-28,58.5-49.8,98.4-55.9C289.9,37,294.7,36.9,298.9,36.5z M299.5,152.4c26.1,0,48-22,47.6-47.8c-0.4-26.7-21.3-47.5-47.7-47.5
	c-26.1,0-47.9,22-47.6,47.7C251.8,131.2,273.2,152.4,299.5,152.4z"/>
<path class="st3" d="M272.9,98.6c17,2.2,23.4-4.5,19.9-20.7c14.2-3.2,25.4,1.8,32,14.3c5.9,11.1,3.1,25.6-6.5,34.1
	c-9.1,8.1-23.7,9.2-33.9,2.7C273.5,122,269.1,110.3,272.9,98.6z"/>
<path class="st3" d="M390.9,371.6l-122.5-79.1c-26.5,41.4-52.3,81.8-78.8,123.3c14.9,9.5,29.5,17.1,42.1,27.2
	c26.1,21.1,55.2,28.9,88.3,25.2c7.3-0.8,11.5-2.9,15.3-9c15.7-25.2,32-50,48-75C385.9,380.2,388.2,376.1,390.9,371.6z"/>
<path class="st4" d="M498.6,464.3c-9.6-14.5-20.1-28.5-29.7-43c-5.8-8.8-13.2-12.6-23.4-12.4c-11.2,0.3-22.5,0.1-36.2,0.1
	c6.5-10.5,11.7-18.6,16.7-26.8c9.5-15.3,8-22.5-7.1-32.3c-46.8-30.3-93.6-60.6-140.4-90.9c-15.8-10.2-23.8-8.4-34.1,7.7
	c-27,41.7-54.4,83.1-80.5,125.3c-8,13-16.5,19.7-31.9,17c-13.1-2.3-22.2,3.6-29.3,15c-4.7,7.6-9.8,14.9-14.9,22.2
	c13.5,21.3,30.1,40.5,49.3,56.9c108.3-0.1,216.6-0.1,324.9,0C475.5,491.6,487.8,478.5,498.6,464.3z M116.9,468.6
	c5.1-18.7,12.4-24.5,30.3-24.5c22.3,0,29.5,3,56.9,24.5H116.9z M319.4,469.2c-33.1,3.7-62.1-4.2-88.3-25.2
	c-12.6-10.1-27.2-17.7-42.1-27.2l78.8-123.3l122.5,79.1c-2.7,4.5-5,8.6-7.6,12.6c-16,25-32.3,49.8-48,75
	C330.9,466.3,326.7,468.4,319.4,469.2z M372.4,468.4C381,446,383.8,444,405.9,444h12.2c25.8,0,25.8,0,40.4,24.4H372.4z"/>
<path class="st5" d="M233.5,412.9l-4.1-20.3l46.5-10l-9.9-46.4l20.2-5.6l11,46.9l46.3-9.9l4.4,20.5l-46.1,10.5
	c3.2,15.4,6.2,30.3,9.5,46.5l-20.2,4.5l-10.7-45.9L233.5,412.9z"/>
</svg>
