<?xml version="1.0" encoding="utf-8"?>
<!-- Generator: Adobe Illustrator 23.0.1, SVG Export Plug-In . SVG Version: 6.00 Build 0)  -->
<svg version="1.1" id="Layer_1" xmlns="http://www.w3.org/2000/svg" xmlns:xlink="http://www.w3.org/1999/xlink" x="0px" y="0px"
	 viewBox="0 0 600 600" style="enable-background:new 0 0 600 600;" xml:space="preserve">
<style type="text/css">
	.st0{fill:#B4C835;}
	.st1{fill:none;stroke:#282F6B;stroke-width:16;stroke-miterlimit:10;}
	.st2{fill:#F6EB16;}
	.st3{fill:#282F6B;}
	.st4{fill:#3C4DA1;}
	.st5{fill:#ED2224;}
	.st6{fill:#60BB46;}
</style>
<title>restoration</title>
<path class="st0" d="M241.4,240.8c-3.4-5.5-9.3-8.9-15.8-8.9h-0.3c-6.4,0.2-12.2,3.6-15.4,9.1c-1.6,2.7-2.5,5.8-2.6,9
	c-0.1,10.1,8,18.4,18.2,18.5c8.7,0.1,16.2-5.9,18.1-14.4c0.3-1.3,0.4-2.6,0.4-3.9C244.1,247,243.2,243.7,241.4,240.8z"/>
<ellipse class="st1" cx="287.3" cy="300" rx="234.6" ry="234.1"/>
<path class="st0" d="M244,243.3c-3.4-5.5-9.3-8.9-15.8-8.9c-0.1,0-0.2,0-0.3,0c-6.4,0.2-12.2,3.6-15.4,9.1c-1.7,2.7-2.5,5.8-2.6,9
	c0,10.1,8.1,18.4,18.3,18.4c8.6,0,16.1-5.9,18-14.3c0.3-1.3,0.4-2.6,0.4-3.9C246.6,249.5,245.7,246.2,244,243.3z"/>
<path class="st2" d="M242.8,233.5c-4.2-6.9-11.6-11.1-19.7-11.1h-0.4c-7.9,0.2-15.2,4.5-19.2,11.4c-2.1,3.4-3.2,7.3-3.2,11.3
	c-0.1,12.7,10.1,23,22.8,23.1c10.8,0.1,20.1-7.4,22.5-17.9c0.3-1.6,0.5-3.2,0.5-4.8C246.2,241.2,245,237,242.8,233.5z"/>
<path class="st0" d="M241.4,240.8c-3.4-5.5-9.3-8.9-15.8-8.9h-0.3c-6.4,0.2-12.2,3.6-15.4,9.1c-1.6,2.7-2.5,5.8-2.6,9
	c-0.1,10.1,8,18.4,18.2,18.5c8.7,0.1,16.2-5.9,18.1-14.4c0.3-1.3,0.4-2.6,0.4-3.9C244.1,247,243.2,243.7,241.4,240.8z"/>
<path class="st3" d="M324.4,229.8c-20.9-3.7-41.7-8.7-62.7-11.2c-29.9-3.6-59.5-1.2-87.8,10.7c-5,2.1-6.3,4.7-6.2,9.8
	c0.2,57.7,0.1,115.5,0.1,173.2c0,2.3,0.3,4.5,0.5,7.4c5.5-1.9,10-3.5,14.6-4.9c36.6-11.1,73.5-9.3,110.3-2
	c24.2,4.8,48.1,10.8,73.3,16.5c0-0.8-0.1-1.6-0.1-2.3l-36.3-193C329.1,231.7,327.6,230.3,324.4,229.8z"/>
<path class="st4" d="M366,421.5c-11.7-61.7-23.5-123.4-35.3-185.1c-0.1-0.8-0.4-1.7-0.7-2.4l36.4,193
	C366.4,425.2,366.2,423.3,366,421.5z"/>
<path class="st3" d="M552.6,258.3c0-14.1-4.9-17.3-17.7-11.5c-17.7,7.9-36.6,12.6-55.9,13.9c-36.9,2.6-72.4-5.6-108.1-12.9
	c-14.4-3-23.5-8-23.8-23.9c0-2.3-0.8-4.5-2.3-6.2l8.5,45.3c60.5,12.9,119.9,27.1,180.7,3.3v8.4c0,57.8-0.1,115.5,0.1,173.3
	c0,5.5-1.7,7.9-6.8,9.9c-33.8,13.5-68.7,14.1-104,9.1c-8.5-1.2-16.8-3.1-25.3-4.3c-4.9-0.6-6.8-2.8-7.7-7.7
	c-7.8-41.3-15.9-82.6-23.9-123.9c-2.1-10.9-4.3-21.9-6.4-32.9l34,181c6.8,1.3,13.5,2.8,20.3,3.9c43.5,6.9,86.2,6.5,127.3-12.2
	c7.7-3.5,11.2-7.9,11.1-16.6C552.5,389,552.6,323.6,552.6,258.3z"/>
<path class="st5" d="M353.2,262.9h0.2l-8.5-45.3c-1.9-2.2-4.8-3.5-8.3-4.2c-3.6-0.7-7.2-1.6-10.9-2.4l4.4,22.9
	c0.3,0.8,0.5,1.6,0.7,2.4c11.7,61.7,23.5,123.4,35.3,185.1c0.3,1.8,0.4,3.6,0.4,5.4l4.9,25.9c2.4,3.3,3.7,7.6,3.9,13.4
	c0.2,7.2,4.9,10.6,11.8,11.8c2.4,0.4,4.7,0.8,7.1,1.3l-34-181C357.7,286.7,355.5,275,353.2,262.9z"/>
<path class="st3" d="M168.2,425.7l-16.8,3.1v53.4c5.4,3,11,5.7,16.8,8.2c0-21.2,0-42.4-0.1-63.5
	C168.1,426.5,168.1,426.1,168.2,425.7z"/>
<path class="st3" d="M366.5,429.3c-25.2-5.7-49.1-11.7-73.3-16.5c-36.8-7.3-73.7-9.1-110.3,2c-4.6,1.4-9.2,3.1-14.6,4.9
	c-0.2-2.8-0.5-5.1-0.5-7.4c0-57.7,0-115.5-0.1-173.2c0-5,1.3-7.7,6.2-9.8c28.3-11.9,57.9-14.2,87.8-10.7c21,2.5,41.8,7.5,62.7,11.2
	c3.1,0.6,4.7,1.9,5.6,4.2l-4.3-22.9c-6.4-1.5-12.8-3-19.2-4.3c-33.4-6.9-67.1-11.6-101.2-5c-11.9,2.3-23.6,5.9-35.6,9v-16.1
	c1-0.2,2-0.3,3-0.4c5.7-0.2,8.6-3.3,8.5-8.8c-0.1-6-3.8-8.6-9.6-8.6c-7.6,0-15.2-0.2-22.8,0.1c-6.5,0.2-10.5,4.1-8.5,9.7
	c1.4,4,6.4,6.7,11.1,11.3v248.3l16.7-3.1c0.3-3.4,2.2-4.9,5.3-6.1c27.6-11.3,56.4-15.5,85.6-11.1c31.8,4.8,63.2,12.9,95,18.2
	c8,1.4,13.8,3.9,17.2,8.7l-4.9-25.9C366.4,427.7,366.5,428.5,366.5,429.3z"/>
<path class="st0" d="M366.3,331.2c8,41.3,16.1,82.6,23.9,123.9c0.9,4.9,2.8,7,7.7,7.7c8.5,1.1,16.9,3,25.3,4.3
	c35.4,5,70.2,4.5,104-9.1c5.2-2.1,6.8-4.4,6.8-9.9c-0.2-57.8-0.1-115.5-0.1-173.3v-8.4c-60.8,23.8-120.1,9.6-180.7-3.3l6.7,35.3
	C362.1,309.3,364.2,320.3,366.3,331.2z"/>
<path class="st6" d="M360,298.3l-6.6-35.3h-0.2C355.5,275,357.7,286.7,360,298.3z"/>
<path class="st2" d="M232.7,255c-3.4-5.5-9.3-8.9-15.8-8.9h-0.3c-6.4,0.2-12.2,3.6-15.4,9.1c-1.6,2.7-2.5,5.8-2.6,9
	c-0.1,10.1,8.1,18.4,18.2,18.5c8.6,0.1,16.1-5.9,18-14.3c0.3-1.3,0.4-2.6,0.4-3.9C235.3,261.2,234.4,257.9,232.7,255z"/>
</svg>
