<svg xmlns="http://www.w3.org/2000/svg" width="1292.105" height="1416.883" viewBox="0 0 1292.105 1416.883">
  <g id="Untitled-1" transform="translate(0.012 -0.001)" opacity="0.05">
    <path id="Path_38" data-name="Path 38" d="M809.256,601.64l-.256.349v1.372Z" transform="translate(183.81 702.81)" fill="#1e96d1"/>
    <path id="Path_39" data-name="Path 39" d="M1374.953,1345.02l-.279,1.721v-1.372c2.813-48.056-5.022-94.95-16.763-141.17C1320.5,1057.03,1240.2,934.646,1136.88,826.024c-96.508-101.46-209.244-181.833-330.141-251.256-11.322-6.487-15.414-10.834-7.788-24.365Q910.2,352.97,1019.7,154.63c6.789-12.229,12.764-14.275,25.877-9.695,68.307,23.877,126.523,63.75,180.462,110.83l-3.511,3.627c-6.789-1.162-13.624-2.046-20.366-3.487-63.424-13.438-127.406-15.438-191.714-9.184-11.067,1.069-22.157,1.069-29.434,14.345q-79.048,144.309-160.1,287.571c-5.836,10.369-4.255,14.973,5.789,20.715,27.574,15.717,54.938,31.875,81.373,49.289,11.3,7.44,18.6,7.789,30.619.233,105.994-67,244.816-48.824,329.3,42.314,80.559,86.813,93.16,207.431,31.573,311.96-7.37,12.508-6.975,21.134.14,33.061a714.027,714.027,0,0,1,73.654,165.954,598.487,598.487,0,0,1,25.574,164.373c2.906,0,4.441.442,5.533,0a52.287,52.287,0,0,0,6.975-4.255c141.821-97.508,227.843-232.215,254.906-401,42.662-266.182-98.182-523.436-342.207-634.545-4.65-2.139-11.625-8.6-14.786-4.162-6.975,9.881-8.068,1.558-11.043-1.906A1133.73,1133.73,0,0,0,1005.567,45.869c-17.042-10-22.134-5.324-30.224,9.625Q833.522,317.608,689.981,578.93c-8.393,15.275-6.742,20.436,8.835,27.9C858.027,682.3,1002.1,779.944,1126.72,904.956c119.223,119.548,208.686,256.7,244.421,424.626-4.022-.186-5.534-2.7-6.975-6.207-31.317-73.631-73.236-140.845-120.9-205.106A1091.626,1091.626,0,0,0,965.369,855.3,1201.828,1201.828,0,0,0,583.8,688.342c-13.322-3.208-20.925-7.114-12.136-23.831C635.321,542.778,697.978,420.393,761.217,298.52c13.578-26.2,13.95-25.412,43.43-17.042,8.811,2.511,20.924,10.113,26.969-4.255,4.65-10.857,10.881-20.622,16.554-30.805,5.208-9.3,5.557-16.833-7.138-22.947-31.573-15.205-62.564-31.759-93.114-48.963-12.253-6.975-16.646-4.185-22.9,7.789Q589.5,441.573,453,700.315c-17.065,32.549-17.065,32.386,18.181,40.221a1463.306,1463.306,0,0,1,281.061,93c206.408,92.346,384.312,223.542,530.086,396.959,14.252,16.949,32.851,30.9,40.8,52.822-5.045.349-6.812-4.045-9.509-6.859-105.2-109.969-226.914-197.271-363.76-263.439C821.688,951.06,686.749,910.466,546.067,889.24c-16.135-2.441-17.809-7.091-11.276-20.715,10.718-22.366,19.622-45.592,30.224-68.051,3.836-8.207,3.65-12.508-5.789-14.9-23.366-5.952-46.778-11.834-69.911-18.6-7.812-2.325-10.974-.256-14.275,6.51q-44.755,92.114-90.184,183.879c-5.208,10.439-3.557,12.927,7.974,12.439,117.642-5.022,232.7,12.392,346.16,41.849,224.194,58.124,422.557,166.326,601.693,311.542,5.068,4.115,8.6,11.253,16.833,10.439,3.51,6.742,5.65,15.972,16.6,9.114a12.888,12.888,0,0,0,.837,2.278Zm-13.694,23.249c-3.232-3.441-4.906-5.626-6.975-7.347C1100.564,1148.052,813.2,1014.507,479.69,989.235c-13.74-1.046-14.229,3.255-11.625,14.322,13.392,56.17,32.386,110.946,66,157.491,28.341,39.291,36.13,77.583,20.924,122.338-3.069,9.067-4.045,18.855-5.812,28.364-8.835,48.056-17.739,95.9-26.992,145.7,72.236-25.086,141.821-49.312,211.569-73.375,8.858-3.069,16.9-6.045,27.178-.372a578.907,578.907,0,0,0,250.326,72.189c125.058,7.207,240.794-21.9,350-87.6Z" transform="translate(-381.888 -40.57)" fill="#1e96d1"/>
    <path id="Path_40" data-name="Path 40" d="M1198.5,1329.569c-35.734-167.884-125.2-305.032-244.42-424.65-124.616-125.012-268.693-222.659-427.9-298.126-15.577-7.393-17.228-12.555-8.835-27.9Q660.908,317.664,802.706,55.5c8.091-14.949,13.182-19.622,30.224-9.625a1133.737,1133.737,0,0,1,292.8,244.676c2.976,3.464,4.162,11.787,11.043,1.906,3.092-4.441,10.067,2.023,14.787,4.162,244.118,111.109,384.87,368.363,342.207,634.545-27.039,168.79-113.062,303.5-254.906,401.005a52.31,52.31,0,0,1-6.975,4.255c-1.092.535-2.627,0-5.533,0a598.489,598.489,0,0,0-25.574-164.373,714.005,714.005,0,0,0-73.654-165.954c-7.207-11.927-7.51-20.552-.14-33.061,61.588-104.622,48.987-225.147-31.573-311.96-84.488-91.068-223.194-109.272-329.3-42.314-11.95,7.556-19.32,7.207-30.619-.233-26.5-17.414-53.869-33.572-81.373-49.289-10.044-5.743-11.625-10.346-5.789-20.715q80.7-143.449,160.1-287.571c7.277-13.275,18.367-13.275,29.434-14.345,64.307-6.254,128.29-4.255,191.714,9.183,6.742,1.441,13.578,2.325,20.366,3.487,1.953,2.441,5.487,3.534,6.975,1.627,2.325-2.906-2.325-3.371-3.511-5.254-53.938-47.08-112.155-86.953-180.461-110.83-13.113-4.65-19.088-2.534-25.876,9.695Q737.421,352.817,626.313,550.3c-7.626,13.531-3.534,17.879,7.788,24.365,120.9,69.423,233.7,149.8,330.141,251.256,103.32,108.621,183.67,231.006,221.032,378.174,11.741,46.22,19.576,93,16.763,141.17l.256-.349a13.545,13.545,0,0,1-.976-2.325C1201.386,1338.148,1202.92,1333.2,1198.5,1329.569Z" transform="translate(-209.25 -40.557)" fill="#1e96d1"/>
    <path id="Path_41" data-name="Path 41" d="M1312.889,827.741c-109.272,65.7-224.937,94.811-350,87.6a578.911,578.911,0,0,1-250.349-72.189c-10.276-5.673-18.321-2.7-27.179.372C615.618,867.59,546.032,891.816,473.8,916.9c9.3-49.8,18.158-97.647,27.132-145.68,1.767-9.509,2.743-19.3,5.812-28.364,15.135-44.755,7.347-83.047-20.924-122.338-33.619-46.5-52.613-101.321-66-157.491-2.651-11.067-2.162-15.368,11.625-14.322,333.419,25.249,620.781,158.816,874.5,371.687C1307.983,822.114,1309.657,824.3,1312.889,827.741Z" transform="translate(-333.517 499.982)" fill="#1e96d1"/>
    <path id="Path_42" data-name="Path 42" d="M1337.07,1255.3c4.417,3.673,2.883,8.626,2.836,13.252-10.95,6.835-13.089-2.325-16.6-9.114-5.045-14.345-17.46-23.552-25.133-36.06-.442,0-.744-.744-.953-2.162v.256c-.232-3.394.791-7.463-4.255-8.439l.465.326-4.65-4.65.232.465c-7.951-21.924-26.551-35.874-40.8-52.822-145.8-173.417-323.7-304.566-530.085-396.96a1463.284,1463.284,0,0,0-281.061-93c-35.246-7.835-35.246-7.765-18.181-40.221Q555.1,367.27,690.9,108.156c6.254-11.973,10.648-14.694,22.9-7.789,30.55,17.2,61.541,33.758,93.114,48.963,12.694,6.115,12.345,13.578,7.138,22.947-5.673,10.183-11.9,19.948-16.553,30.805-6.161,14.368-18.158,6.766-26.969,4.255-29.5-8.37-29.852-9.16-43.43,17.042C663.908,346.252,601.3,468.59,537.595,590.37c-8.765,16.716-1.186,20.622,12.136,23.831A1201.826,1201.826,0,0,1,931.3,781.015a1091.623,1091.623,0,0,1,277.923,262.718c47.591,64.261,89.51,131.475,120.9,205.105C1331.537,1252.558,1333.048,1255.07,1337.07,1255.3Z" transform="translate(-347.818 33.711)" fill="#1e96d1"/>
    <path id="Path_43" data-name="Path 43" d="M1332.336,884.13c7.672,12.508,20.088,21.715,25.132,36.06-8.23.791-11.764-6.347-16.832-10.462-179.02-145.262-377.5-253.418-601.693-311.541-113.457-29.364-228.518-46.778-346.16-41.849-11.625.488-13.182-2-7.974-12.438q45.615-91.626,90.231-183.833c3.3-6.766,6.463-8.812,14.275-6.51,23.133,6.859,46.5,12.741,69.911,18.6,9.439,2.325,9.625,6.7,5.789,14.9-10.532,22.459-19.436,45.685-30.224,68.051-6.533,13.624-4.859,18.274,11.276,20.715,140.682,21.227,275.621,61.82,403.795,123.78,136.846,66.168,258.556,153.446,363.76,263.438,2.7,2.813,4.464,7.207,9.509,6.859l-.232-.465c-.233,3.3.628,5.464,4.65,4.65l-.465-.326c-1.581,4.324,1.72,6.184,4.255,8.439v-.256A8.164,8.164,0,0,1,1332.336,884.13Z" transform="translate(-381.98 372.914)" fill="#1e96d1"/>
    <path id="Path_44" data-name="Path 44" d="M904.074,109.93c1.162,1.86,5.836,2.325,3.511,5.254-1.534,1.906-5.068.814-6.975-1.651Z" transform="translate(305.187 51.326)" fill="#1e96d1"/>
    <path id="Path_45" data-name="Path 45" d="M792.949,585.24c-2.534-2.325-5.836-4.115-4.255-8.44C793.74,577.776,792.717,581.915,792.949,585.24Z" transform="translate(156.361 669.899)" fill="#1e96d1"/>
    <path id="Path_46" data-name="Path 46" d="M791.283,582.482a8.157,8.157,0,0,0-.953-2.162C790.539,581.738,790.842,582.459,791.283,582.482Z" transform="translate(159.073 674.563)" fill="#1e96d1"/>
    <path id="Path_47" data-name="Path 47" d="M791.32,579.59c-3.953.883-4.813-1.279-4.65-4.65Z" transform="translate(154.2 667.434)" fill="#1e96d1"/>
  </g>
</svg>
