<svg xmlns="http://www.w3.org/2000/svg" width="966.088" height="966.087" viewBox="0 0 966.088 966.087">
  <path id="arrow-circle-up-right" d="M483.044,966.087C216.259,966.087,0,749.829,0,483.044S216.259,0,483.044,0,966.087,216.259,966.087,483.044,749.829,966.087,483.044,966.087Zm0-96.609c213.422,0,386.435-173.013,386.435-386.435S696.466,96.609,483.044,96.609,96.609,269.622,96.609,483.044,269.622,869.479,483.044,869.479Zm88.3-406.433-190.8,190.8a48.314,48.314,0,1,1-68.3-68.351l190.8-190.8H329.822a48.3,48.3,0,1,1,0-96.609H619.648a48.159,48.159,0,0,1,48.3,48.3V636.217a48.3,48.3,0,0,1-96.609,0V463.094Z" fill="#0e0d4c" opacity="0.22"/>
</svg>
