<svg xmlns="http://www.w3.org/2000/svg" width="42" height="31.574" viewBox="0 0 42 31.574">
  <path id="blacktwitter" d="M42,3.749a18.3,18.3,0,0,1-4.948,1.257A8.152,8.152,0,0,0,40.841.6a18.242,18.242,0,0,1-5.475,1.934A8.929,8.929,0,0,0,29.077.015c-4.759,0-8.616,3.572-8.616,7.972A7.416,7.416,0,0,0,20.683,9.8,25.172,25.172,0,0,1,2.925,1.473,7.467,7.467,0,0,0,1.762,5.479a7.827,7.827,0,0,0,3.83,6.636,9.151,9.151,0,0,1-3.9-1v.1A8.166,8.166,0,0,0,8.6,19.034a9.39,9.39,0,0,1-2.268.278,8.793,8.793,0,0,1-1.623-.148A8.569,8.569,0,0,0,12.755,24.7a18.193,18.193,0,0,1-10.7,3.408A19.59,19.59,0,0,1,0,28a25.8,25.8,0,0,0,13.207,3.588c15.849,0,24.513-12.15,24.513-22.686l-.029-1.032A16.562,16.562,0,0,0,42,3.749Z" transform="translate(0 -0.015)"/>
</svg>
