<svg id="Layer_1" data-name="Layer 1" xmlns="http://www.w3.org/2000/svg" xmlns:xlink="http://www.w3.org/1999/xlink" viewBox="0 0 232.44 230.24"><defs><style>.cls-1{fill:none;}.cls-2{clip-path:url(#clip-path);}.cls-3{fill:#fff;}.cls-4{fill:red;}</style><clipPath id="clip-path" transform="translate(333.99 96.2)"><rect class="cls-1" x="-332.62" y="-96.94" width="229.25" height="231.57" transform="translate(-234.73 -199.32) rotate(-89.45)"/></clipPath></defs><title>bug</title><g class="cls-2"><path class="cls-3" d="M-218.09,121.86a3.83,3.83,0,0,1-1.39-.88q-17.58-15.8-35.35-31.4a4.4,4.4,0,0,1-1.6-3.73q.4-34.71.67-69.45c0-1.92.43-2.65,2.57-2.61q14.63.32,29.27.29c2.15,0,2.54.76,2.5,2.65-.19,11.68-.24,23.35-.38,35a4.84,4.84,0,0,0,3.51,5,4.61,4.61,0,0,0,.64.16l.35-52.28-34.43-.33c-4.34,0-4.5-.07-3.78-4.35,2.45-14.67,10.21-25.44,24.51-31.08a38.89,38.89,0,0,1,14-2.65l.06-9.56c-1-.45-1-1.63-1.28-2.5-6.22-16.39-14.52-31.47-28.22-43.16a49.88,49.88,0,0,0-11.83-7.22l-2.34,0c-5,3.72-4.72,7.15.94,10,8.25,4.17,14.12,10.8,19.18,18.13a106.9,106.9,0,0,1,13.15,26c-10.57,2.39-19.6,7.38-26.53,15.62S-265-8.76-265.12,2.12c0,1.9-.71,2.17-2.39,2.11-4.19-.14-8.39-.19-12.58-.12a3.9,3.9,0,0,1-3.58-1.83q-19.68-26.4-39.48-52.71c-3.52-4.69-6.05-4.81-10-.53l0,3.45C-320-30-306.85-12.43-293.61,5c7.66,10.08,3.82,8.29,17,8.59,3.12.07,6.25.13,9.38.07,1.5,0,2,.39,2,2-.14,3.53-.17,7.07-.1,10.6,0,1.58-.59,1.92-2.05,1.89-5.25-.11-10.54,0-15.8-.23-3.37-.16-5.38,1.14-7.06,3.94-10,16.7-20.23,33.29-30.25,50-1.35,2.26-2.78,3.41-5.46,3a14.36,14.36,0,0,0-3.21,0c-2.18.17-4,1-4.73,3.18l-.09,3c.77,2.47,2.59,3.43,5.08,3.44s5.27-.06,7.9.1a6.18,6.18,0,0,0,6.18-3.38c10.27-17,20.66-33.93,30.87-51,1.27-2.13,2.6-2.89,5-2.73,3.69.25,7.41.21,11.11.13,1.68,0,2.4.28,2.34,2.18-.19,6-.22,12-.18,18.06A4,4,0,0,1-267.21,61c-8.37,8-16.66,16.09-25.1,24-2.41,2.27-3.34,4.49-2.46,7.86,3.07,11.83,5.85,23.75,8.72,35.63a5.34,5.34,0,0,0,4.48,4.33c4.35-.56,5.93-2.78,4.94-6.87-2.61-10.67-5.17-21.35-7.84-32a3.85,3.85,0,0,1,1.22-4.28c5.67-5.35,11.2-10.84,17.44-16.92-.05,5.77,0,10.66-.2,15.57a8,8,0,0,0,3.12,7c13.43,11.79,26.77,23.69,40.12,35.54a10.86,10.86,0,0,0,3.77,2.64l.87,0Z" transform="translate(333.99 96.2)"/><path class="cls-4" d="M-219.9,121.85a3.83,3.83,0,0,0,1.41-.85q17.88-15.45,36-30.71a4.4,4.4,0,0,0,1.67-3.69q.27-34.72.67-69.46c0-1.92-.38-2.66-2.52-2.65q-14.62,0-29.27-.29c-2.15,0-2.55.71-2.56,2.61,0,11.68-.2,23.35-.29,35a4.84,4.84,0,0,1-3.6,5,3.81,3.81,0,0,1-.65.15l.67-52.29L-184,5c4.35,0,4.5,0,3.87-4.28C-182.3-14-189.85-24.9-204-30.82a38.67,38.67,0,0,0-13.89-2.92l.12-9.56c1-.43,1-1.62,1.33-2.48,6.53-16.27,15.12-31.19,29-42.61a50.27,50.27,0,0,1,12-7l2.34,0c4.94,3.81,4.58,7.23-1.14,10-8.33,4-14.35,10.52-19.54,17.76a106.68,106.68,0,0,0-13.64,25.72c10.52,2.6,19.42,7.76,26.22,16.14S-170.46-7.84-170.57,3c0,1.91.67,2.19,2.34,2.16,4.2-.06,8.4,0,12.59.13A3.9,3.9,0,0,0-152,3.56q20.19-26,40.5-51.92c3.62-4.62,6.15-4.69,10-.33l0,3.44c-13.51,17.26-27,34.57-40.55,51.76-7.85,9.93-4,8.22-17.17,8.26-3.12,0-6.24,0-9.38-.11-1.5-.06-2,.37-2,1.91q.1,5.3-.11,10.61c-.06,1.57.56,1.92,2,1.92,5.25,0,10.53.22,15.79.08,3.38-.1,5.37,1.24,7,4.07,9.7,16.89,19.59,33.68,29.28,50.58,1.3,2.28,2.71,3.45,5.4,3.07a14.35,14.35,0,0,1,3.21,0c2.17.22,4,1,4.67,3.27l0,3c-.81,2.45-2.64,3.38-5.15,3.33s-5.24-.15-7.87,0a6.17,6.17,0,0,1-6.12-3.5c-9.94-17.19-20-34.32-29.88-51.54-1.24-2.15-2.55-2.94-5-2.83-3.69.18-7.41.07-11.11-.08-1.68-.06-2.41.23-2.38,2.13.07,6,0,12-.17,18.06a4,4,0,0,0,1.51,3.19c8.21,8.17,16.34,16.41,24.63,24.51,2.37,2.32,3.25,4.56,2.31,7.91-3.3,11.77-6.31,23.63-9.41,35.45a5.36,5.36,0,0,1-4.54,4.25c-4.34-.65-5.88-2.9-4.8-7,2.81-10.62,5.58-21.25,8.45-31.85a3.86,3.86,0,0,0-1.13-4.3c-5.58-5.45-11-11.05-17.11-17.25-.06,5.77-.25,10.66-.1,15.57a8.06,8.06,0,0,1-3.26,6.9c-13.65,11.53-27.22,23.17-40.8,34.77a10.78,10.78,0,0,1-3.82,2.55l-.87,0Z" transform="translate(333.99 96.2)"/></g></svg>