<svg id="Layer_1" data-name="Layer 1" xmlns="http://www.w3.org/2000/svg" viewBox="0 0 896.4 215.26"><defs><style>.cls-1{fill:#fecd01;}.cls-2{fill:#fdfdfd;}.cls-3{fill:#00357f;}.cls-4{fill:#009443;}.cls-5{fill:#d11034;}.cls-6{fill:#d10e1a;}.cls-7{fill:#fbfbfb;}.cls-8{fill:#f7f7f7;}.cls-9{fill:#fecd00;}.cls-10{fill:#fafafa;}.cls-11{fill:#f5f5f5;}.cls-12{fill:#f2f2f2;}.cls-13{fill:#830a20;}.cls-14{fill:#cb0f32;}.cls-15{fill:#cb1032;}.cls-16{fill:#a00c27;}.cls-17{fill:#eee;}.cls-18{fill:#ebebeb;}.cls-19{fill:#a30d28;}.cls-20{fill:#d11134;}.cls-21{fill:#d11235;}.cls-22{fill:#d11135;}.cls-23{fill:#d10f1b;}.cls-24{fill:#d21235;}.cls-25{fill:#d21336;}.cls-26{fill:#d21236;}.cls-27{fill:#f5f4f4;}.cls-28{fill:#a40e29;}.cls-29{fill:#900c25;}.cls-30{fill:#a20e29;}.cls-31{fill:#900f27;}.cls-32{fill:#f6f5f5;}.cls-33{fill:#f6f5f6;}.cls-34{fill:#0d9a4d;}.cls-35{fill:#f3eff0;}.cls-36{fill:#f6f6f6;}.cls-37{fill:#f3f3f3;}.cls-38{fill:#e3e0e1;}.cls-39{fill:#e0dede;}.cls-40{fill:#841227;}.cls-41{fill:#e7e6e6;}.cls-42{fill:#dcd6d7;}.cls-43{fill:#e1dedf;}.cls-44{fill:#e9e5e6;}.cls-45{fill:#d3cfd0;}.cls-46{fill:#cfcacb;}.cls-47{fill:#f9f9f9;}.cls-48{fill:#fefefe;}.cls-49{fill:#fcfcfc;}.cls-50{fill:#02357e;}.cls-51{fill:#03367c;}.cls-52{fill:#e7e7e7;}.cls-53{fill:#e5e5e5;}.cls-54{fill:#dedede;}.cls-55{fill:#e8e8e8;}.cls-56{fill:#d9d9d9;}.cls-57{fill:#dfdfdf;}.cls-58{fill:#cbcbcb;}.cls-59{fill:#d3d3d3;}.cls-60{fill:#cfcfcf;}.cls-61{fill:#fdcd00;}.cls-62{fill:#e1e1e1;}.cls-63{fill:#c5c5c5;}.cls-64{fill:#cfcece;}.cls-65{fill:#c1c1c1;}.cls-66{fill:#fccc01;}.cls-67{fill:#f6c81b;}.cls-68{fill:#bbbaba;}.cls-69{fill:#c0bfc0;}.cls-70{fill:#c0a820;}.cls-71{fill:#eaeaea;}.cls-72{fill:#c20f30;}.cls-73{fill:#c00f2f;}.cls-74{fill:#b40e2d;}.cls-75{fill:#fdfafb;}.cls-76{fill:#fdf9fa;}.cls-77{fill:#fdf6f8;}.cls-78{fill:#fcf2f3;}.cls-79{fill:#fbeff1;}.cls-80{fill:#fbedef;}.cls-81{fill:#c31031;}.cls-82{fill:#bc0f2f;}.cls-83{fill:#b50f2d;}.cls-84{fill:#7a091e;}.cls-85{fill:#820a20;}.cls-86{fill:#920b24;}.cls-87{fill:#d9d2d4;}.cls-88{fill:#a20d28;}.cls-89{fill:#930b24;}.cls-90{fill:#b50e2d;}.cls-91{fill:#840a21;}.cls-92{fill:#a10c28;}.cls-93{fill:#f94144;}.cls-94{fill:#fff;}</style></defs><title>dashboard</title><path class="cls-1" d="M393.21,363.09a3.93,3.93,0,0,1-2.9,0c-1.43-1.24-1.89-2.46-1.32-3.8a2.93,2.93,0,0,1,5.43.06C395.05,361,394.39,362.11,393.21,363.09Z" transform="translate(-167.6 -259)"/><circle class="cls-2" cx="107.63" cy="107.63" r="107.63"/><path d="M252.2,392.48c-7.21-1.22-14.34-2.76-21-5.94a20.86,20.86,0,0,1-6.85-4.78c-2.82-3.22-2.72-6.68.26-9.78,2.72-2.82,6.16-4.46,9.73-5.88a69.86,69.86,0,0,1,10.21-3.1c.29-.6.89-.59,1.41-.7,2.52-.55,5.06-1,7.61-1.38.51,0,1-.22,1.5-.26,1.84-.07,3.65-.45,5.49-.54a29.4,29.4,0,0,0,3.11-.25c1.45,0,2.87-.38,4.32-.28.7,0,1.4,0,2.09,0a150.7,150.7,0,0,1,19.36.51,6.85,6.85,0,0,1,1,.16c2.2.31,4.42.44,6.61.84s4.1.6,6.11,1.09a76.36,76.36,0,0,1,14.29,4.39,29.63,29.63,0,0,1,7.22,4.53c2,1.79,3.19,3.92,2.88,6.7a4,4,0,0,1-.32,1.48,13.59,13.59,0,0,1-5,5.47,1.63,1.63,0,0,1-1.15.46c-8.49,4.56-17.73,6.47-27.16,7.72a11.32,11.32,0,0,0-1.13.23,11.12,11.12,0,0,1-4.22.78,158.13,158.13,0,0,1-19.83.48c-5-.29-10-.6-14.94-1.32A2.44,2.44,0,0,1,252.2,392.48Z" transform="translate(-167.6 -259)"/><path class="cls-3" d="M372.16,368.76c-.37,22.56-9.14,44.85-26.9,63.41-14.35,15-31.85,24.64-52.33,28-32.44,5.33-60.77-3.47-84.46-26.35-13.71-13.25-22.35-29.47-26.44-48.08a98,98,0,0,1-2.15-19.23c0-.69.13-1,.89-.95a21.23,21.23,0,0,0,3.19,0c.93-.07,1.09.28,1.1,1.12a88.42,88.42,0,0,0,12.16,44.2c14,23.6,34.35,38.7,61.28,43.86,30.23,5.8,57.06-2.07,79.74-22.95A86.08,86.08,0,0,0,365.63,381c4.81-29.94-3.27-56.24-24.07-78.36C328.09,288.33,311.37,279.63,292,276a78.1,78.1,0,0,0-14.71-1.35c-1.12,0-1.39-.34-1.31-1.37a26,26,0,0,0,0-3.06c0-.61.22-.78.83-.75a96.24,96.24,0,0,1,91.61,69.62C371,347.8,372.16,356.66,372.16,368.76Z" transform="translate(-167.6 -259)"/><path class="cls-3" d="M253.76,361.24c-3.07.57-6.17,1-9.2,1.77a.23.23,0,0,0,0-.12c-3.87-5.63-6.24-12-9.4-18-1.3-2.45-3.25-4.35-5-6.44a15,15,0,0,1-3.76-9c-.14-2.24,1.34-3.52,3.17-3.31a15.67,15.67,0,0,0,6.09-.83,6.57,6.57,0,0,1,6.36,1.2,7.54,7.54,0,0,0,5.39,1.74c5.4-.18,10.8-.15,16.2-.21,5.61-.06,11.23-.1,16.84-.19a2.08,2.08,0,0,1,2.06.94c1.38,2.35,3.46,3.15,6.11,2.88a35.42,35.42,0,0,1,3.57,0c.76.36,1.49-.1,2.24-.13a18.84,18.84,0,0,1,4.68.34,3.55,3.55,0,0,0,1.12.18c2.66-.18,5.31.27,8,0,1.21-.11,2.41-.32,3.61-.49s2.55-.5,3.82-.75c.79-.11,1.54-.34,2.31-.52s1.35-.44,2.06-.53,1.21-.36,1.83-.5l2.06-.52c1-.27,2.07-.5,3.12-.72a3.36,3.36,0,0,1,.63-.06c.93,0,1.87,0,2.81,0a4,4,0,0,1,1,.1c.82.23,1.68.33,2.51.52l.91.29a9.47,9.47,0,0,1,1.9.84,1.86,1.86,0,0,1,.89,1.85,1.88,1.88,0,0,1-.61,1,2,2,0,0,1-1,.51c-.63,0-1.26-.1-1.89-.06a4.21,4.21,0,0,0-1.12.16,4.43,4.43,0,0,1-1.31.05,2.45,2.45,0,0,0-2.1.37,23,23,0,0,0-2,1.28c-.22.17-.43.37-.66.53-.63.41-1.15,1-1.81,1.35s-1.08.15-1.38-.53c-.38-.85-1-1.54-1.45-2.37a.85.85,0,0,0-.75-.58,3.92,3.92,0,0,0-1.23.16q-.37.08-.75.12a4.49,4.49,0,0,1-1.15.21,15.13,15.13,0,0,0-2.58.44c-1.66.31-3.36.46-5,.75-1.26.18-2.52.31-3.77.49a12.79,12.79,0,0,1-2.13.35c-1,0-1.49.45-1.39,1.47.08,4.25,0,8.49,0,12.73a5.27,5.27,0,0,1-.21,2,2.61,2.61,0,0,1-1.08,1L292,359.91a6.54,6.54,0,0,1-1.48.72,100.59,100.59,0,0,0-12-.72H270c-.83-1.46-.74-3.11-1-4.69-.08-.75.5-.89,1.13-.81,1.43.19,2.84.54,4.27.75a2.08,2.08,0,0,0,1,0,35,35,0,0,0-2.6-3.32c-.22-.31-.48-.59-.7-.91-.49-.68-.38-1.12.42-1.47,1.69-.69,3.37-1.42,5.21-2.14-1.72-.67-3.34-1.25-4.94-1.87-1.21-.47-1.27-.69-.5-1.73,1-1.32,2.17-2.5,3.19-4.08-2.13,0-4,.81-6,.79-.67-.31-.55-.89-.47-1.44.23-1.64.46-3.28.75-5.09a33.56,33.56,0,0,0-3.62,2.86c-1.33,1.08-1.75,1-2.4-.55s-1.2-3.07-1.77-4.61c-1,1.9-1.22,4.08-2.4,5.89-.7.27-1.12-.27-1.55-.61-1.29-1-2.53-2.11-3.93-3.24.22,1.55.5,3,.75,4.42.12.73.46,1.47.07,2.22a1.14,1.14,0,0,1-1,.21c-1.64-.25-3.29-.44-4.92-.73a1.19,1.19,0,0,1-.82-.41c1.12,1.39,2.18,2.94,3.29,4.45.35.47.8.95.27,1.58-1.35.85-3,1-4.36,1.72-.26.12-.6.09-.78.46,1.5.71,3.08,1.2,4.55,1.92,1.18.56,1.25.74.48,1.76-1,1.28-2.06,2.48-3,3.74.28.38.55,0,.81,0,1.35-.21,2.69-.39,4-.52s1.71.22,1.5,1.57-.5,2.76-.75,4.12A1.4,1.4,0,0,1,253.76,361.24Z" transform="translate(-167.6 -259)"/><path class="cls-4" d="M383.61,367.9c-.75,26.92-10.13,50.43-28.26,70.32C339.8,455.29,320.64,466.5,298,470.91c-35.86,7-67.73-1.79-94.87-26.33-17.54-15.86-28.29-35.76-32.83-59a112.28,112.28,0,0,1-1.9-19c0-.88.28-1.12,1.08-1s1.55-.4,1.57,1a103,103,0,0,0,10,43.62,104.5,104.5,0,0,0,46.4,48.37,99.51,99.51,0,0,0,36.79,11.32c29,3,55-4.47,77.76-22.73,18.17-14.6,30.07-33.38,35.92-56A102.33,102.33,0,0,0,381,369.36c0-.47.07-.93.1-1.4A4.54,4.54,0,0,1,383.61,367.9Z" transform="translate(-167.6 -259)"/><path class="cls-5" d="M214.14,408.32a31.28,31.28,0,0,1-3.6,3,52.83,52.83,0,0,1-4.81-7.65,77.6,77.6,0,0,1-9.26-30.16,80,80,0,0,1,24.83-66.18A78.2,78.2,0,0,1,236.67,296c.53-.3,1.05-.79,1.75-.42a15.73,15.73,0,0,1,2.21,3.34c-1.74,1-3.51,1.87-5.2,2.92A75.85,75.85,0,0,0,202.84,347a78.18,78.18,0,0,0-1.92,11.16,76.34,76.34,0,0,0,3.91,32.52,78.84,78.84,0,0,0,6.57,13.94,10.8,10.8,0,0,0,2.31,2.86C214,407.71,214.31,407.9,214.14,408.32Z" transform="translate(-167.6 -259)"/><path class="cls-5" d="M252.2,392.48a151.87,151.87,0,0,0,27,1.61,120,120,0,0,0,12.43-.88,11,11,0,0,1,1.15,0c-3.79,2.57-7.58,5.16-11.38,7.72-6.63,4.45-13.29,8.86-19.9,13.36-.81.55-1.22.47-1.81-.29a29.44,29.44,0,0,1-5-9.26c-.42-1.29-1.22-2.53-1.34-3.83-.21-2.51-.91-4.92-1.25-7.4A4.92,4.92,0,0,1,252.2,392.48Z" transform="translate(-167.6 -259)"/><path class="cls-6" d="M238.42,295.62a39.3,39.3,0,0,0-7.54,4.42,74.83,74.83,0,0,0-12.1,10.23,82.44,82.44,0,0,0-12,16.05A78,78,0,0,0,198,350.17a91,91,0,0,0-1.25,9.15,84.38,84.38,0,0,0-.18,9.54A71.23,71.23,0,0,0,198.34,383a78.49,78.49,0,0,0,7.59,20.31,64.52,64.52,0,0,0,4.24,6.93,1.68,1.68,0,0,1,.37,1.05c-2.24,2.17-2.24,2.16-3.88-.38A81,81,0,0,1,193.26,362c1-21.1,8.93-39.29,23.64-54.47a82.49,82.49,0,0,1,18.53-14.24c.91-.52,1.4-.48,1.88.46A21.55,21.55,0,0,0,238.42,295.62Z" transform="translate(-167.6 -259)"/><path class="cls-5" d="M308.92,297.69c.64-1.31,1.29-2.61,1.93-3.91,1.55.29,2.76,1.28,4.09,2a76.09,76.09,0,0,1,18.92,14.59,79.55,79.55,0,0,1,21.46,44.8,81,81,0,0,1,.38,16.91,76.88,76.88,0,0,1-8.13,29.18,2.8,2.8,0,0,1-.92,1.34c-1.31-.13-2.51-.78-3.84-.83-.31-.53.12-.88.33-1.26a68.72,68.72,0,0,0,6.95-19.08,75.63,75.63,0,0,0-17.91-66.61,72.55,72.55,0,0,0-18.29-14.74,13.91,13.91,0,0,0-4.19-1.8C309.35,298.19,309,298.1,308.92,297.69Z" transform="translate(-167.6 -259)"/><path class="cls-6" d="M346.63,402.6c1.18-2.62,2.46-5.22,3.51-7.9a82.47,82.47,0,0,0,4.47-16.26,79.84,79.84,0,0,0,.89-17.74,76.05,76.05,0,0,0-4.36-21.57,81.1,81.1,0,0,0-8.2-16.63,77.07,77.07,0,0,0-12.77-15.25A78.11,78.11,0,0,0,314,295.65a16.5,16.5,0,0,1-3.15-1.88c1.14-2.93,1.16-3,3.88-1.49,23.22,12.83,37.71,32.18,42.76,58.23,3.48,17.92.93,35.23-7,51.71-.52,1.07-1.06,1.38-2.12.91A14.38,14.38,0,0,0,346.63,402.6Z" transform="translate(-167.6 -259)"/><path class="cls-4" d="M294.79,397.08v3.74c0,4.89-.05,9.77,0,14.67,0,.79-.18,1.23-1,1.42a7.07,7.07,0,0,0-5,3.41c-.67,1.17-1.69,1.3-3.09.45a2.83,2.83,0,0,0-3-.15,4,4,0,0,1-2.48.23,37.12,37.12,0,0,1-5.86-1.71,2.37,2.37,0,0,1-1.76-2.61,2.21,2.21,0,0,0-.89-2.13c-1-.69-.5-1,.2-1.49Q280,407.35,288,401.75Z" transform="translate(-167.6 -259)"/><path class="cls-7" d="M299.11,332.16l-6.92-.51c1.53-.07,1.53-.07.89-1.38-4.32-8.81-8.67-17.59-12.93-26.44-1.29-2.67-2.59-5.34-3.92-8a3.32,3.32,0,0,1-.33-1.72,1.59,1.59,0,0,1,2.05,0c1.64.89,1-.78,1.46-1.28.31,1,1.27,1.16,2.08,1.52.82.12,1.76.81,2.27-.5a2.65,2.65,0,0,1,.9.83,3.27,3.27,0,0,0,.37,2.44q6.5,13.36,13.08,26.68c1.12,2.28,2.22,4.59,3.34,6.88.7,1.44.6,1.6-.95,1.59A3,3,0,0,1,299.11,332.16Z" transform="translate(-167.6 -259)"/><path class="cls-8" d="M299.11,332.16c2.69-.05,2.68,0,1.5-2.45q-4.12-8.34-8.23-16.69c-2.67-5.46-5.3-10.94-8-16.4-.35-.72-.49-1.35.16-1.94a4.27,4.27,0,0,1,3.84.25c-.14.3-.09.46.28.46a5.4,5.4,0,0,1,2.27.5,6.77,6.77,0,0,0,.78,2.4c3.86,7.52,7.45,15.16,11.21,22.73,1.74,3.49,3.37,7,5.21,10.48a.94.94,0,0,1,.15.84A61.48,61.48,0,0,1,299.11,332.16Z" transform="translate(-167.6 -259)"/><path class="cls-9" d="M175.31,363.75c.37-23.2,9.13-45.93,26.86-65a98.09,98.09,0,0,1,53.18-29.8A94.34,94.34,0,0,1,273.71,267h.51c.27,0,.7-.14.72.29s-.45.38-.75.4c-2.33.09-4.67.13-7,.32a99.32,99.32,0,0,0-85.9,66.88,95.38,95.38,0,0,0-5,25.69c-1.22,21.52,3.8,41.47,15.57,59.49,15.35,23.51,36.95,38.06,64.47,43.75A103.42,103.42,0,0,0,274,465.65c.33,0,.92-.24.93.32s-.58.38-.92.38c-25.07-.55-47.07-9-65.72-25.75a97.89,97.89,0,0,1-30.82-53.28A107.1,107.1,0,0,1,175.31,363.75Z" transform="translate(-167.6 -259)"/><path class="cls-10" d="M321.08,385.24a43.78,43.78,0,0,0,3.58-2.77,13.22,13.22,0,0,0,2.25-3.1c.89-.1,1,.68,1.23,1.2,1.77,3.85,3.67,7.63,5.61,11.4,1.33,2.62,2.46,5.31,3.81,7.9a2.51,2.51,0,0,1,.38,1.33,2.35,2.35,0,0,1-.05.37c-.53.79.34.78.63,1.11,0,.41.11.93-.6.89-.8-.41-1.33-.1-1.8.6-.94,1.45-1.94,2.87-2.92,4.3-.51.75-.89.87-1.37-.11q-5.31-11-10.69-21.93A1.14,1.14,0,0,1,321.08,385.24Z" transform="translate(-167.6 -259)"/><path class="cls-11" d="M308.32,332.35c-4.1-7.48-7.61-15.29-11.38-23-1.91-3.89-3.88-7.76-5.8-11.64-.3-.59-.75-1.19-.18-1.87,1.33.45,2.78.46,4.09,1,.75.6.85,1.55,1.25,2.33,3.38,6.56,6.47,13.27,9.82,19.83,1.9,3.74,3.58,7.6,5.52,11.33.22.42.61.86.26,1.41Z" transform="translate(-167.6 -259)"/><path class="cls-12" d="M311.92,331.83c-.11-.28-.19-.57-.32-.83-3-6.12-6.06-12.24-9.06-18.37-2.46-5-4.86-10.07-7.29-15.11a3.28,3.28,0,0,1-.18-.61,23.67,23.67,0,0,1,5.61,1.79,2.52,2.52,0,0,0,.31,1.47c1,2.09,2,4.22,3,6.3,3.51,6.87,6.76,13.88,10.23,20.77a10,10,0,0,1,1.5,3.85A24,24,0,0,1,311.92,331.83Z" transform="translate(-167.6 -259)"/><path class="cls-13" d="M241.68,303a72.8,72.8,0,0,0-16.4,12.44,71.57,71.57,0,0,0-9.61,88.35c.1.18.18.37.28.56-.25.86-.73.37-1.09.15a7.26,7.26,0,0,1-2.1-2.69A74.75,74.75,0,0,1,205,381.5a77.08,77.08,0,0,1-1.46-22.06A69.83,69.83,0,0,1,209.87,335a71.36,71.36,0,0,1,12-18.23A74.74,74.74,0,0,1,238,303.36a6.07,6.07,0,0,1,2.55-1.08C241.05,302.23,241.8,302,241.68,303Z" transform="translate(-167.6 -259)"/><path class="cls-14" d="M214.14,408.32c-2.39-1.73-3.57-4.36-4.92-6.83a72.84,72.84,0,0,1-6.7-17.27,86,86,0,0,1-1.74-9.83,88.48,88.48,0,0,1-.44-10.66,67.58,67.58,0,0,1,1.82-15.2,74.89,74.89,0,0,1,7.49-19.67,73.16,73.16,0,0,1,9.44-13.34A74.24,74.24,0,0,1,234,302.38c1.49-1,3-1.87,4.56-2.76a4.4,4.4,0,0,1,2-.67l.29.23c.25.16.43.34.21.65-7.62,3.25-13.85,8.47-19.41,14.41a72.78,72.78,0,0,0-19.53,40.06,74.17,74.17,0,0,0,3.51,36.55,79.8,79.8,0,0,0,5.83,12.46c.91,1.62,1.87,3.24,3.69,4.05.08.54-.3.7-.7.84Z" transform="translate(-167.6 -259)"/><path class="cls-15" d="M308.92,297.69c5.4,1.41,9.63,4.83,14,8a65.31,65.31,0,0,1,8.64,7.9,75.83,75.83,0,0,1,15.51,24.72,82.25,82.25,0,0,1,4,14.79,76,76,0,0,1,.89,17.11,70,70,0,0,1-3.37,18.14,78.59,78.59,0,0,1-4.47,11.07c-.4.79-.87,1.54-1.32,2.31l-.51-.16a.21.21,0,0,1-.3,0l0-.06c-.16-.47.12-.81.33-1.18a66.51,66.51,0,0,0,6.82-18.07,74.39,74.39,0,0,0,1.76-20.77,69.41,69.41,0,0,0-3.12-17.78,73.53,73.53,0,0,0-8.19-17.92,75,75,0,0,0-13.24-15.78,87.73,87.73,0,0,0-13.18-9.57,13.93,13.93,0,0,0-4.75-1.69c-.26-.4,0-.61.29-.84Z" transform="translate(-167.6 -259)"/><path class="cls-16" d="M241.68,303c-.5-.86-1.17-.44-1.76-.19a35.74,35.74,0,0,0-7.17,4.54A68.29,68.29,0,0,0,224,315a80.72,80.72,0,0,0-8.88,11.23,72.89,72.89,0,0,0-7.7,15.83,70.38,70.38,0,0,0-3.18,13.66,77.82,77.82,0,0,0-.52,14.07A64.28,64.28,0,0,0,206.77,387c.67,2.09,1.39,4.16,2.21,6.2a55.24,55.24,0,0,0,5.13,10c.37.58.74,1.54,1.84,1.12a1.39,1.39,0,0,1,.51.75c0,.79-.48.78-1,.64A3.62,3.62,0,0,1,213.3,404a54.23,54.23,0,0,1-4.68-8.89,82.37,82.37,0,0,1-4.15-12.3,79.53,79.53,0,0,1-1.66-10.17,70.76,70.76,0,0,1,.32-17,74.13,74.13,0,0,1,5.44-19.43,76.54,76.54,0,0,1,13-20,72.74,72.74,0,0,1,16.84-13.84,4.55,4.55,0,0,1,3-.84c.53.08,1.27.08,1.07,1Z" transform="translate(-167.6 -259)"/><path class="cls-17" d="M315.72,331.09q-6.87-14-13.75-28c-.54-1.12-1-2.24-1.54-3.37-.17-.37-.61-.87.23-1.05a8.74,8.74,0,0,1,2.56,1c1.28,2.16,2.34,4.43,3.42,6.69,3.61,7.5,7.32,15,11,22.43.26.54.8,1.05.41,1.75A8,8,0,0,1,315.72,331.09Z" transform="translate(-167.6 -259)"/><path class="cls-5" d="M278,294.11a7.41,7.41,0,0,1-2.05,0c-.36-2.05-.71-4.1-1.13-6.36a41.56,41.56,0,0,0-1.92,5.37c-.24.69-.4,1.15-1.32,1.19s-1.1-.49-1.36-1.13a33.65,33.65,0,0,0-2.29-4.86c-.19,1.75-.41,3.49-.57,5.24-.06.69-.26,1-1.05,1.08s-1.17-.14-1.07-1.07c.31-2.87.55-5.75.84-8.6.06-.55,0-1.28.89-1.25.75,0,1.53-.34,1.94.82.72,2,1.65,4,2.57,6.17.75-2.13,1.42-4.09,2.11-6a1.7,1.7,0,0,1,2.31-1.2c.6.15.5.62.56,1C276.94,287.65,277.44,290.88,278,294.11Z" transform="translate(-167.6 -259)"/><path class="cls-18" d="M318,330.59a8.4,8.4,0,0,0-.38-.94q-5.13-10.41-10.27-20.81c-1.31-2.67-2.59-5.35-3.89-8a2,2,0,0,1-.29-1.09l1.54.51c.5.38,1.2-.18,1.67.35a12.67,12.67,0,0,0,1.27,3.31c3.82,7.46,7.33,15.07,11.15,22.53.44.87.75,1.8,1.19,2.68.14.29.31.62,0,.95Z" transform="translate(-167.6 -259)"/><path class="cls-5" d="M244.16,291.9c.63,2.1,1.09,3.91,1.72,5.66.35,1-.21,1-.84,1.25s-1,.18-1.28-.59c-.83-2.67-1.74-5.32-2.56-8-.14-.45-.75-1.1,0-1.43s1.47-.91,2.35-.18c1.9,1.56,3.83,3.07,6,4.77-.46-1.87-.82-3.56-1.32-5.23-.29-1-.2-1.52,1-1.7.78-.11,1.1-.07,1.28.81.57,2.74,1.26,5.46,1.87,8.19.1.44.59,1.12-.06,1.34s-1.41.71-2.22-.06A56.16,56.16,0,0,0,244.16,291.9Z" transform="translate(-167.6 -259)"/><path class="cls-19" d="M242.45,302.49c-.56-1.08-1.5-.82-2.32-.57-2,.62-3.64,2-5.37,3.11a69.19,69.19,0,0,0-7.9,6.16,62.61,62.61,0,0,0-6.15,6.36,75.91,75.91,0,0,0-6.52,8.73,72.84,72.84,0,0,0-7.56,15.86,80.15,80.15,0,0,0-3.2,13.42,70.05,70.05,0,0,0-.49,15.11,65.36,65.36,0,0,0,2.78,15.55,73.47,73.47,0,0,0,6.44,15.28,11.45,11.45,0,0,0,2.29,3.32c.54.45,1.22,1.22,2,.24.3.09.12.56.47.61a.27.27,0,0,1,0,.38,2.26,2.26,0,0,1-3.06-.57,20.27,20.27,0,0,1-3-4.69,75.64,75.64,0,0,1-8.2-25.07A74.15,74.15,0,0,1,236.28,303c.79-.51,1.61-1,2.41-1.44a4,4,0,0,1,3.79-.32c.37.25.65.54.5,1C242.82,302.41,242.69,302.55,242.45,302.49Z" transform="translate(-167.6 -259)"/><path class="cls-5" d="M288.41,294.93l-3.83-.25c-.54,0-.91-.19-.82-.83.27-3,.57-6,.8-9,.06-.75.24-1.09,1-.94a30.26,30.26,0,0,1,3.14.53c2.3.67,2.88,2.67,1.28,4.46-.35.39-.21.49,0,.78C291.86,291.83,291.17,294,288.41,294.93Z" transform="translate(-167.6 -259)"/><path class="cls-5" d="M295.64,296.44c2.11-3.26,4.23-6.16,6.42-9a.85.85,0,0,1,1.16-.33l0,0c.55.27,1.45,0,1.59,1,.48,3.45.81,6.92,1,10.39,0,.35-.08.63-.5.5-.84-.27-1.92-.31-1.69-1.7.14-.85-.27-1.35-1.16-1.47a6.24,6.24,0,0,1-1.59-.43,1.8,1.8,0,0,0-2.69.89C297.65,297.4,296.71,296.32,295.64,296.44Z" transform="translate(-167.6 -259)"/><path class="cls-5" d="M254.08,296.44c.55-3.83,1.34-7.42,2.2-11,.22-.91,1.15-.47,1.73-.72a.77.77,0,0,1,1,.37l0,0q2.67,4.41,5.08,8.95c.29.56.11.7-.47.78-1,.13-1.75.05-2.07-1.05-.22-.75-.77-.91-1.5-.75a9,9,0,0,1-1.38.22c-1.3.09-2.31.33-2.41,2C256.25,296.59,255,296,254.08,296.44Z" transform="translate(-167.6 -259)"/><path class="cls-20" d="M223.29,424.05a19.28,19.28,0,0,0,3.53-2.84c.7-.72,1.07-.25,1.56.16.75.64-.06.88-.34,1.12a49.28,49.28,0,0,1-5.23,4.25c-.38.26-.7.67-1.2.15s-1-.68-.69-1.55c.56-1.54,1-3.14,1.52-5.07-1.39,1-2.56,1.65-3.61,2.5-.81.65-1.24.28-1.72-.35-.67-.86.3-.89.63-1.12,1.79-1.15,3.51-2.38,5.18-3.69.29-.22.56-.79,1-.32s1,.63.7,1.45C224.14,420.46,223.76,422.2,223.29,424.05Z" transform="translate(-167.6 -259)"/><path class="cls-20" d="M269.49,447.1c-3.32-.12-3.31-.12-2.85-3.16.25-1.68.49-3.37.7-5,.08-.62.28-.92,1-.76s1.52.21,2.24.45a2.1,2.1,0,0,1,1.15,3.42c-.14.22-.55.38-.14.69a2.3,2.3,0,0,1,.68,3.16A2.56,2.56,0,0,1,269.49,447.1Z" transform="translate(-167.6 -259)"/><path class="cls-5" d="M287.44,447.16c-2.94,1-2.93-1.87-4.36-3,0,.84,0,1.67,0,2.5s-.37.93-1,1-.86-.18-.87-.85c0-2.34-.11-4.67-.21-7,0-.72.16-1,.91-.94s1.68-.14,2.54,0a2.49,2.49,0,0,1,1.25,4.29c-.64.45-.59.73-.18,1.27C286.17,445.25,286.76,446.18,287.44,447.16Z" transform="translate(-167.6 -259)"/><path class="cls-20" d="M314,428.11c.93-1.07,1.7-1,2.66-.08s2.3,1.87,3.46,2.81a1.82,1.82,0,0,0,1.9.37c1-.42,1.19-1.18.31-1.89-1.3-1-2.62-2-3.91-3.07-.24-.19-.9-.4-.43-.82s.78-1.1,1.46-.59c1.67,1.24,3.33,2.5,4.92,3.84a1.88,1.88,0,0,1,.07,2.82,4.28,4.28,0,0,1-5.12.89A36.92,36.92,0,0,1,314,428.11Z" transform="translate(-167.6 -259)"/><path class="cls-21" d="M276.77,447.61c-2.8,0-2.79,0-2.6-2.78.12-1.69.23-3.38.29-5.08,0-.75.16-1.06,1-.95a20.85,20.85,0,0,0,3.06.07c.59,0,.93.07.91.81s-.22.92-.88.88-1.11,0-1.66,0-.73.22-.77.74.27.73.75.75,1,0,1.53,0,1,0,1,.84-.41.88-1,.84a7.23,7.23,0,0,1-1.14,0c-1-.2-1.19.22-1.27,1.12s.47,1.12,1.2,1.12c.42,0,.85,0,1.27,0s1,0,.95.79-.25.89-.89.85S277.37,447.61,276.77,447.61Z" transform="translate(-167.6 -259)"/><path class="cls-22" d="M215.92,419.57a3.24,3.24,0,0,1-2.74-1.61,2.26,2.26,0,0,1,.59-3.34c1.54-1.06,3.15-2,4.71-3,.61-.41.69.16.94.42s.45.68-.08,1c-1.29.81-2.56,1.66-3.84,2.49-.62.4-1.35.79-.81,1.68a1.29,1.29,0,0,0,2.07.41c1.3-.87,2.62-1.72,3.89-2.66.6-.44.88-.3,1.33.19s.13.88-.29,1.17c-1.28.91-2.56,1.81-3.86,2.69A3,3,0,0,1,215.92,419.57Z" transform="translate(-167.6 -259)"/><path class="cls-22" d="M336.83,416.45c-2.3,0-4.12-1.43-4.24-3.36a5,5,0,0,1,3.81-4.93c.38-.08.6,0,.66.31s.42.82-.17,1.1a9.63,9.63,0,0,0-1.25.61,2.63,2.63,0,0,0-1.13,3.31,3.07,3.07,0,0,0,5.64-2c-.11-1,.58-.75,1-.93.67-.27.64.3.71.7C342.29,413.89,339.81,416.46,336.83,416.45Z" transform="translate(-167.6 -259)"/><path class="cls-5" d="M308.83,433.27l2.76,3.82a37.29,37.29,0,0,1-6.08,2.82l-2.6-3.33a.53.53,0,0,1,0-.37.82.82,0,0,1,.48-.56,22,22,0,0,0,5.15-2.54A.54.54,0,0,1,308.83,433.27Z" transform="translate(-167.6 -259)"/><path class="cls-5" d="M243.61,438.32l2.4-3.85c.13-.26.2-.6.62-.54a14.18,14.18,0,0,0,4.7,2c.25.28,0,.45-.14.63l-1.82,4.12c-1.38.17-2.45-.71-3.65-1.13C245,439.29,244.05,439.17,243.61,438.32Z" transform="translate(-167.6 -259)"/><path class="cls-22" d="M325.8,428.11c0-1,.34-1.59,1.49-1.47a1,1,0,0,0,1.24-1c0-.81-.81-.58-1.31-.56-1.1.07-2.2.26-3.3.3-1.57.05-2.52-.58-2.62-1.64a2.48,2.48,0,0,1,2.28-2.47,3.77,3.77,0,0,1,1.38-.07c.35.07.2.51.21.79s-.07.58-.48.6a3.3,3.3,0,0,0-.75.14c-.37.1-.8.24-.75.71s.57.43.91.41c1.23-.09,2.45-.26,3.68-.31,1.5-.05,2.54.6,2.75,1.56a2.77,2.77,0,0,1-1.84,2.77A4.77,4.77,0,0,1,325.8,428.11Z" transform="translate(-167.6 -259)"/><path class="cls-22" d="M233.58,435.44c.07-.12.08-.17.11-.19a8.32,8.32,0,0,0,3.49-6.72c0-.26-.11-1.07.57-.78.52.23,1.46.25,1.31,1.25-.11.79-.27,1.58-.42,2.48a6.89,6.89,0,0,0,2.72-1.07c1.08-.65,1.81,0,2.88.43-1.5.69-2.77,1.38-4.12,1.87a9.05,9.05,0,0,0-3.53,2.38C235.29,436.51,235.25,436.48,233.58,435.44Z" transform="translate(-167.6 -259)"/><path class="cls-22" d="M337.94,403.56l.55-.92c.7-.35,1.12,0,1.46.56-.32.6-.63,1.21-1,1.8-.22.37-.45.69.17,1s.75.17,1-.31a12.21,12.21,0,0,0,.6-1.13c.27-.74.7-.61,1.27-.37.75.33.28.7.09,1.07a7.31,7.31,0,0,0-.35.68c-.19.46-.94.93.11,1.37.72.3,1.3.6,1.65-.42.18-.38.38-.76.59-1.12.38-.75.83-.26,1.27-.12.67.22.24.61.11.9-1.53,3.5-1.67,3.55-5.1,1.87-1.13-.54-2.17-1.18-3.28-1.7-.65-.31-.62-.61-.27-1.15S337.58,404.23,337.94,403.56Z" transform="translate(-167.6 -259)"/><path class="cls-21" d="M296.38,440c1-1.23.17-3.62,2.82-3.53a15.82,15.82,0,0,1-.64,2.59,7.83,7.83,0,0,0-.07,5.79c.25.75-.24.8-.68.85s-1.18.53-1.19-.34c0-3-2.1-4.78-3.69-6.87-.13-.17-.24-.34-.44-.62.84-.19,1.57-.79,2.28.18C295.26,438.69,295.83,439.3,296.38,440Z" transform="translate(-167.6 -259)"/><path class="cls-22" d="M293.68,295.9c-1.09.08-1.5-.3-1.22-1.55.6-2.78,1.08-5.58,1.5-8.39.14-.93.58-.86,1.21-.7s1.37.05,1.12,1.17c-.64,2.94-1.19,5.9-1.77,8.85C294.44,295.73,294.37,296.16,293.68,295.9Z" transform="translate(-167.6 -259)"/><path class="cls-20" d="M281.49,294.35H281c-1.16.14-1.84-.22-1.58-1.53.12-2.67.3-5.33.33-8,0-1.13.46-1.29,1.44-1.27s1,.49.92,1.27C281.85,288,281.68,291.18,281.49,294.35Z" transform="translate(-167.6 -259)"/><path class="cls-22" d="M228.72,432.49a4,4,0,0,1-1.21-1c-.22-.37.41-.54.67-.77,1.25-1.14,2.54-2.27,3.8-3.39.49-.43.75-.8,0-1.2-.33-.17-.74-.42-.22-.83s.57-1,1.32-.49c1,.7,2.09,1.31,3.11,2,.24.17.93.2.49.75-.3.38-.6,1.24-1.23.75-1.08-.85-1.6-.16-2.28.5-1.16,1.13-2.38,2.19-3.58,3.26A1,1,0,0,1,228.72,432.49Z" transform="translate(-167.6 -259)"/><path class="cls-23" d="M305.51,439.91c.55-.86,1.55-1,2.38-1.3a19,19,0,0,1,3.7-1.52l2,2.49c-2,.9-3.88,1.75-5.75,2.62a.67.67,0,0,1-.92-.22s0-.05,0-.08C306.43,441.21,306,440.57,305.51,439.91Z" transform="translate(-167.6 -259)"/><path class="cls-24" d="M287.16,439.16c-.13-.59.15-.75.67-.79,1.14-.1,2.27-.25,3.4-.46.79-.17.81.3.93.81s0,.94-.64.91c-1-.05-.85.55-.75,1.17.25,1.72.43,3.45.75,5.15.19,1-.5.81-1,1-.73.24-.85-.15-.92-.74-.2-1.77-.46-3.53-.64-5.3-.06-.64-.23-.95-.92-.78S287.16,439.73,287.16,439.16Z" transform="translate(-167.6 -259)"/><path class="cls-23" d="M243.61,438.32l5.76,2.36c-.89,3.17-.89,3.18-3.89,2-1.24-.5-2.46-1.05-3.8-1.62Z" transform="translate(-167.6 -259)"/><path class="cls-22" d="M310.58,430.12c1-1.07,1.77-1,2.73-.07,1.28,1.29,2.78,2.35,4.15,3.56s1.08,2.13-.38,2.89a4.73,4.73,0,0,1-2.45.54c-.35,0-.87.1-.78-.52.07-.45-.07-1.1.77-1,.47.05,1.1,0,1.26-.37.23-.59-.47-.81-.83-1.12C313.6,432.71,312.12,431.45,310.58,430.12Z" transform="translate(-167.6 -259)"/><path class="cls-24" d="M260.44,437c-.46,2-.77,3.7-1.29,5.36-.37,1.16.08,1.48,1.1,1.64.45.07,1.21-.13,1.12.81-.07.71-.26,1.12-1.1.88-1.13-.33-2.72-.26-3.32-1s.33-2.2.57-3.35c.32-1.49.75-3,1.13-4.44.13-.58.43-.62.92-.41S260.6,436.49,260.44,437Z" transform="translate(-167.6 -259)"/><path class="cls-22" d="M334.29,422.18c-1,1.43-1,1.45-2.41.57s-2.65-1.69-4-2.53c-.26-.16-.54-.56-.86-.16-.83,1.05-1.46.53-2-.13.91-1,1.87-1.87,2.71-2.87.59-.69,1-.27,1.5.08.68.49,0,.72-.21.95-.53.51-.11.7.26.93Z" transform="translate(-167.6 -259)"/><path class="cls-25" d="M263.6,446.3c-.83,0-1.36-.13-1.09-1.25.52-2.21.92-4.47,1.28-6.73.14-.93.64-.75,1.24-.7.75.08.59.49.5,1-.39,2.3-.76,4.6-1.14,6.89C264.31,446,264.31,446.52,263.6,446.3Z" transform="translate(-167.6 -259)"/><path class="cls-24" d="M231.69,424a51.32,51.32,0,0,1-6.15,5.45c-.87.67-1.26-.22-1.65-.61s.27-.65.53-.85a60.94,60.94,0,0,0,4.77-4C230.32,422.87,230.32,422.87,231.69,424Z" transform="translate(-167.6 -259)"/><path class="cls-26" d="M330,414.64c.26.17.44.27.62.37a61.22,61.22,0,0,0,5.88,3.51c.27.14.93.23.43.75-.32.33-.43,1.16-1.22.75a59.55,59.55,0,0,1-6.4-3.88c-.16-.12-.42-.24-.23-.48S329.72,415,330,414.64Z" transform="translate(-167.6 -259)"/><path class="cls-27" d="M302.89,436.34a.6.6,0,0,1,0,.23,8.39,8.39,0,0,0-2.22-.37c-1.42-.25-2-1.57-3.3-2.23a2.84,2.84,0,0,1,1.5-.74A6.18,6.18,0,0,0,302,435,1.74,1.74,0,0,1,302.89,436.34Z" transform="translate(-167.6 -259)"/><path class="cls-28" d="M306.26,430.39l.26-.15c.54.15.67.59.75,1.07-.49,1.87-2.83,3.37-5.06,3.26a8.72,8.72,0,0,1-1-.13.88.88,0,0,1-.48-.32c-.12-.38-.61-.71-.24-1.21.83-.16,1.58.4,2.46.22A4.33,4.33,0,0,0,306.26,430.39Z" transform="translate(-167.6 -259)"/><path class="cls-29" d="M306.26,430.39a3.82,3.82,0,0,1-4.88,3l-.94-.35c-.08-.05-.11-.1-.1-.17s0-.1.05-.1l1.3-.44A3.5,3.5,0,0,0,305,431,2.86,2.86,0,0,1,306.26,430.39Z" transform="translate(-167.6 -259)"/><path class="cls-27" d="M251.19,436.59l.11-.52c-.17-.34,0-.59.2-.83a17.93,17.93,0,0,0,2.17-1.71c1.41.23,1.5.39.65,1.49A3.57,3.57,0,0,1,251.19,436.59Z" transform="translate(-167.6 -259)"/><path class="cls-27" d="M241.15,299.72l-.23-.54c1.13-.3,3.37.54,3.86,1.52.38.75-.25.93-.8,1.06-.72-.27-1.18-1-2-1a1.3,1.3,0,0,1-.32-.14C241.4,300.33,241.05,300.14,241.15,299.72Z" transform="translate(-167.6 -259)"/><path class="cls-30" d="M252.14,433l.28,0c.38.63.08,1.09-.37,1.5a3.29,3.29,0,0,1-4.63-1.93c0-.59.16-1.12.91-1.14l0,.08C249.61,433.5,249.73,433.55,252.14,433Z" transform="translate(-167.6 -259)"/><path class="cls-31" d="M252.14,433c-1.87,1.2-3.6.51-3.84-1.52A20.88,20.88,0,0,1,252.14,433Z" transform="translate(-167.6 -259)"/><path class="cls-32" d="M246.53,434l-.52.46a14.22,14.22,0,0,1-.91-2.17,19.42,19.42,0,0,0-.25-2.32c.49.1.88.12,1.17.46a5.59,5.59,0,0,1,.75,3.22A.71.71,0,0,1,246.53,434Z" transform="translate(-167.6 -259)"/><path class="cls-33" d="M308.83,433.27a.58.58,0,0,0-.19,0,1.14,1.14,0,0,1-.79-1,3.6,3.6,0,0,0-.29-2.56c.41-.29.91-.67,1.35-.38a1.59,1.59,0,0,1,.56,1.59C309.3,431.71,309.47,432.6,308.83,433.27Z" transform="translate(-167.6 -259)"/><path class="cls-34" d="M268.42,415.34c-.15,1.67-1.83,2.9-3.92,2.72Z" transform="translate(-167.6 -259)"/><path class="cls-35" d="M340,403.2c-.5-.14-.89-.59-1.46-.56s-1.72.22-.8-1a5.41,5.41,0,0,0,3.69-.38.69.69,0,0,1,.65.3l.25.09C341.71,402.44,340.5,402.34,340,403.2Z" transform="translate(-167.6 -259)"/><path class="cls-36" d="M214.52,408.2l.62-.69a.71.71,0,0,1,.29-.25c.75-.06,1.46-.51,2.25-.3.61.43.74.66-.12,1.08A3.67,3.67,0,0,1,214.52,408.2Z" transform="translate(-167.6 -259)"/><path class="cls-37" d="M306.28,300.49a1.26,1.26,0,0,1-1.53-.26,1.28,1.28,0,0,0,1.19-.55,5.93,5.93,0,0,1,2.72-1.72c-.09.25-.17.5-.25.75a.66.66,0,0,1-.28.62,3.72,3.72,0,0,0-1.13.75A1.41,1.41,0,0,1,306.28,300.49Z" transform="translate(-167.6 -259)"/><path class="cls-38" d="M307.56,429.69c1.33.62.63,1.65.5,2.57-.25.11-.42,0-.59-.19s-.23-.62-.4-.91l-.55-.92C306.76,429.85,307.24,429.93,307.56,429.69Z" transform="translate(-167.6 -259)"/><path class="cls-39" d="M300.94,434l.26.17a.94.94,0,0,1,.68.46.66.66,0,0,1,.08.65c-1.23-.37-2.62-.48-3.08-2l.77-.25C300.22,433.18,300.51,433.7,300.94,434Z" transform="translate(-167.6 -259)"/><path class="cls-40" d="M305,431c-.67,1.5-2.14,2.08-3.32,1.34Z" transform="translate(-167.6 -259)"/><path class="cls-41" d="M246.54,433.79c-.17-1.11-.34-2.22-.52-3.33l1,.51a2,2,0,0,1,.38,1.49A1,1,0,0,1,246.54,433.79Z" transform="translate(-167.6 -259)"/><path class="cls-42" d="M252,434.31a1.83,1.83,0,0,0,.43-1.31l1.25.53a3,3,0,0,1-2,1.78C251.44,434.88,251.67,434.58,252,434.31Z" transform="translate(-167.6 -259)"/><path class="cls-43" d="M241.9,300.51c1.06-.18,1.57.54,2.08,1.26-.35.14-.57.54-1,.52-.18-.26-.38-.52-.54-.75S241.59,301.1,241.9,300.51Z" transform="translate(-167.6 -259)"/><path class="cls-44" d="M217.68,407a4.39,4.39,0,0,1-2.3.51c-.15-.52.32-.64.59-.89a6.66,6.66,0,0,0,.93-.64,1.06,1.06,0,0,1,0-.25C217.36,406,217.41,406.55,217.68,407Z" transform="translate(-167.6 -259)"/><path class="cls-45" d="M247.34,432.58A2.65,2.65,0,0,1,247,431a3.14,3.14,0,0,1,1.29.47,2.06,2.06,0,0,0-.75,1.06A.2.2,0,0,1,247.34,432.58Z" transform="translate(-167.6 -259)"/><path class="cls-46" d="M300.94,434c-.66,0-1-.52-1.29-1l.75-.28a1.28,1.28,0,0,0,.05.27C300.48,433.41,301,433.58,300.94,434Z" transform="translate(-167.6 -259)"/><path class="cls-8" d="M337.69,401.35a2.25,2.25,0,0,0-.35-1.21q-3.82-7.77-7.64-15.55c-.67-1.37-1.3-2.76-2-4.14-.2-.42-.32-.9-.82-1.08,1.19-3.35-.25-5.88-2.53-8.14A73.88,73.88,0,0,0,321,364c-3.77-7.56-7.4-15.2-11.19-22.75-1-2-1.95-3.95-2.8-6a17.55,17.55,0,0,1,3.81-.51c1.19-.43,1.71.33,2.15,1.22,1.77,3.58,3.47,7.2,5.24,10.78,5.09,10.25,10.1,20.54,15.12,30.82,2.58,5.27,5.31,10.47,7.71,15.82a4.19,4.19,0,0,1,.4,1.07,12.72,12.72,0,0,1-1.24,3.33c-.34.61-.68,1.23-1.05,1.82-.18.29-.35.58-.54.86a6.66,6.66,0,0,1-.65,1A.24.24,0,0,1,337.69,401.35Z" transform="translate(-167.6 -259)"/><path class="cls-7" d="M303,352.32c.39-.43.25-1,.25-1.45q0-6.93.05-13.85c.64,0,.72.49.91.89,4,7.95,7.8,16,11.84,23.95.63,1.25,1.12,2.55,1.74,3.82.2.4.61,1-.28,1.22a94.7,94.7,0,0,0-14.26-4.38c-.58-.75-.33-1.6-.38-2.42s0-1.75-.06-2.62C302.94,355.76,302.71,354,303,352.32Z" transform="translate(-167.6 -259)"/><path class="cls-47" d="M317.47,366.9c.47-.31.22-.66.07-1-.48-1-.93-2.09-1.44-3.11q-5.89-12-11.84-23.92c-.32-.63-.36-1.41-1-1.87-.28-1.15.25-1.56,1.35-1.57.81,0,1.61-.15,2.43-.23,1.12,1.06,1.44,2.56,2.16,3.84.45.81.75,1.71,1.17,2.55,3.7,7.48,7.43,15,11.11,22.5,1,2.1,2,4.24,2.93,6.36.12.26.38.53,0,.78A37.87,37.87,0,0,0,317.47,366.9Z" transform="translate(-167.6 -259)"/><path class="cls-9" d="M248.3,355.08l3.87-4.8-6.58-2.72a61.15,61.15,0,0,1,6-2.14c.29-.21.5-.1.68.17.38,1.19.09,2.44.35,3.66a9.48,9.48,0,1,0,17.2-7.11,3.2,3.2,0,0,1-.7-1.34.41.41,0,0,1,.35-.43c2.15-.44,4.31-.88,6.94-1.18l-4.57,5.65,6.68,2.52-6.69,2.82,4.55,5.71c-2.28-.4-4.26-.68-6.2-1.12-1-.23-1.06.14-.93.92.25,1.42.46,2.85.69,4.27l-2,0a6.55,6.55,0,0,1-2-1.27c-1.2-.93-1.22-.92-1.73.47a2.1,2.1,0,0,1-.65,1.05l-3,.24c-.88-.64-.77-1.83-1.45-2.61-1.6.88-2.67,2.48-4.4,3.16a1.48,1.48,0,0,1-1.06.24c.32-1.87.61-3.76,1-5.61.16-.77-.08-.86-.73-.77-1.64.2-3.28.37-4.92.56C248.77,355.48,248.34,355.76,248.3,355.08Z" transform="translate(-167.6 -259)"/><path class="cls-48" d="M316.9,378.75a19.1,19.1,0,0,0-2.14,0c-1.08.15-1.35-.28-1.32-1.33,0-.86.18-1.2,1.12-1.12,1.23.08,2.46.09,3.7.05.68,0,1,.18,1,.92a5.32,5.32,0,0,1-2.6,5.19,5.51,5.51,0,0,1-5.81.17,5.77,5.77,0,0,1-2.29-7.84.59.59,0,0,0,0-.08,5.86,5.86,0,0,1,7.9-2c.38.22,1.34.35.79,1-.41.5-.75,1.7-1.94.92a3.11,3.11,0,0,0-3.78.16,3.39,3.39,0,0,0-1.29,3.61,3,3,0,0,0,2.27,2.36,3.06,3.06,0,0,0,3.57-1Z" transform="translate(-167.6 -259)"/><path class="cls-48" d="M274.82,383.35a5.75,5.75,0,1,1,5.79-5.69h0a5.71,5.71,0,0,1-5.74,5.69Z" transform="translate(-167.6 -259)"/><path class="cls-2" d="M295.6,371.8l8.08,6.71c0-2,.05-3.77,0-5.53,0-.8.41-.86.93-.72s1.53-.58,1.54.62c0,3.44,0,6.87,0,10.6l-8.23-6.77a32.7,32.7,0,0,0-.15,5.42c0,1-.47.95-1.16,1s-1-.17-1-1C295.63,378.78,295.6,375.43,295.6,371.8Z" transform="translate(-167.6 -259)"/><path class="cls-2" d="M240.69,371.65l4.95,8,5.28-8.41c.44,2.89.83,5.48,1.22,8.07.14.88.3,1.76.38,2.65,0,.41.61,1-.26,1.23s-1-.48-1.09-1.13q-.4-2.64-.84-5.28c-.06-.37-.16-.73-.29-1.29l-4.26,7-4.49-7.11c-.38,2.36-.7,4.47-1,6.58-.1.72-.17,1.41-1.16,1.17s-.32-.88-.25-1.3c.51-3.18,1.06-6.36,1.61-9.54A5.31,5.31,0,0,1,240.69,371.65Z" transform="translate(-167.6 -259)"/><path class="cls-48" d="M303,352.32a10.77,10.77,0,0,1,0,5.11.36.36,0,0,1-.11.45,33.06,33.06,0,0,1-5.83,3.56l-6.54-.77c2-1.68,4.34-3,6.5-4.47C299,354.87,301,353.61,303,352.32Z" transform="translate(-167.6 -259)"/><path class="cls-17" d="M275.14,366.4h17.08c.38,0,1-.35,1,.49s-.63.62-1.06.62H258c-.44,0-1.13.27-1.05-.64s.69-.48,1.06-.48Z" transform="translate(-167.6 -259)"/><path class="cls-17" d="M275.25,386.06H292.2c.42,0,1.13-.33,1.07.6s-.66.51-1,.51H258.06c-.43,0-1.12.31-1.07-.61s.67-.5,1-.5Z" transform="translate(-167.6 -259)"/><path class="cls-2" d="M257.26,372.3c2.59-.16,2.59-.16,3.64,2.06.54,1.15,1.09,2.29,1.64,3.44,0,0,.07,0,.21.13l2-3.85c1-2,1-2,3.46-1.74-1.8,3.67-3.58,7.31-5.46,11.17Z" transform="translate(-167.6 -259)"/><path class="cls-49" d="M284.45,378.54c0-1.11-.06-2.22,0-3.32,0-.82-.24-1.08-1-.94a4.58,4.58,0,0,1-.64,0c-1.19.06-1.65-.6-1.28-1.75.14-.44.44-.33.71-.33,2.3,0,4.59,0,6.89,0,.8,0,.78.4.75.95s.16,1.07-.75,1.12c-2.32.17-2.32.22-2.32,2.54,0,1.79-.05,3.58,0,5.36,0,.93-.46.93-1.11.89s-1.31.25-1.24-.86,0-2.46,0-3.69Z" transform="translate(-167.6 -259)"/><path class="cls-49" d="M293.51,377.64c0,1.53-.06,3.06,0,4.58,0,1-.48.89-1.1.88s-1.23.15-1.21-.91c.08-3.06.06-6.12,0-9.18,0-1.17.78-.68,1.31-.77s1,0,1,.81C293.46,374.58,293.51,376.1,293.51,377.64Z" transform="translate(-167.6 -259)"/><path class="cls-20" d="M297,361.44l5.93-4c.55,1.15.14,2.37.25,3.56,0,.51,0,1,0,1.52Z" transform="translate(-167.6 -259)"/><path class="cls-48" d="M234.32,377.72v4.7c0,.5-.08.75-.69.78s-.68-.28-.68-.78c0-3.17,0-6.36,0-9.52,0-.61.25-.67.74-.68s.64.21.63.67C234.3,374.5,234.32,376.1,234.32,377.72Z" transform="translate(-167.6 -259)"/><path class="cls-50" d="M254.82,361l4.6-3.87c.46,1.21.85,2.27,1.25,3.33A45.92,45.92,0,0,1,254.82,361Z" transform="translate(-167.6 -259)"/><path class="cls-51" d="M263.65,360.21c.89-3.12.89-3.13,3.33-1.12l1,.89Z" transform="translate(-167.6 -259)"/><path class="cls-52" d="M237.59,373.54a4.41,4.41,0,0,1-.09.89c-.11.38-.05,1-.67.85s-.08-.6-.09-.92,0-.56,0-.59c-.75-.25-.64-.86-.48-1.35s.64-.25.92-.17C237.88,372.46,237.43,373.1,237.59,373.54Z" transform="translate(-167.6 -259)"/><path class="cls-37" d="M341.26,394.46q-6.84-14-13.7-27.92-6.31-12.87-12.61-25.76-1.21-2.44-2.35-4.95c-.37-.77-.85-1.25-1.75-1.12a37.33,37.33,0,0,1,5-.78c.81-.33,1.16.18,1.47.8.87,1.74,1.79,3.47,2.62,5.23,2.87,6.21,6,12.3,9,18.44,3.25,6.63,6.46,13.29,9.76,19.9,1.61,3.23,3.11,6.52,4.83,9.69a2.1,2.1,0,0,1,.21.74,24,24,0,0,1-2,5.51A.44.44,0,0,1,341.26,394.46Z" transform="translate(-167.6 -259)"/><path class="cls-17" d="M343.57,388.58c-4.58-8.41-8.46-17.17-12.74-25.73-3.49-7-7-14-10.36-21-1.12-2.33-2.27-4.65-3.39-7-.25-.52-.48-1-1.18-.94a7.91,7.91,0,0,1,2.64-.49,3.33,3.33,0,0,1,.53.86c3.75,7.31,7.26,14.72,10.89,22.08,4.49,9.11,8.91,18.26,13.43,27.36a7.74,7.74,0,0,1,1.16,2.38C344.21,386.93,344.57,388,343.57,388.58Z" transform="translate(-167.6 -259)"/><path class="cls-53" d="M325.23,336.51c.54-.46.95-1.09,1.67-1.33s.75.4,1,.8C332,344.18,336,352.44,340,360.7c2,4.12,4.08,8.23,6.09,12.35a7.25,7.25,0,0,1,.84,2.39,6.05,6.05,0,0,1-.6,3.21c-.71.22-.88-.38-1.09-.8-1.57-3.11-3.17-6.2-4.65-9.35-.4-.85-.75-1.71-1.18-2.54-3.83-7.49-7.38-15.12-11.17-22.63-1-1.89-1.81-3.84-2.76-5.74A1.66,1.66,0,0,1,325.23,336.51Z" transform="translate(-167.6 -259)"/><path class="cls-54" d="M327.5,334.71a6.2,6.2,0,0,1,2-1.35,2.58,2.58,0,0,1,.83,1.25c5.16,10.43,10.21,20.91,15.38,31.32.77,1.56,1.93,3.05,1.78,5-.11.88.26,1.81-.34,2.62-.93.3-1-.5-1.32-1-1.79-3.36-3.36-6.86-5.07-10.29-3.24-6.49-6.36-13-9.61-19.55-1.08-2.16-2.09-4.36-3.17-6.53A2.58,2.58,0,0,1,327.5,334.71Z" transform="translate(-167.6 -259)"/><path class="cls-55" d="M325.23,336.51c1.3,2.19,2.24,4.54,3.36,6.82,3.91,8,7.93,15.87,11.77,23.86,1.65,3.44,3.36,6.84,5,10.28.2.4.31.89.75,1.16a2.74,2.74,0,0,1-.37,2.77c-.78.23-.94-.43-1.16-.88-6.25-12.61-12.38-25.29-18.62-37.91-1.44-2.9-2.88-5.78-4.22-8.73-.14-.31-.35-.59-.18-1a.55.55,0,0,1,.75.17l0,0a14.82,14.82,0,0,1,1.7,2.95C324.37,337,324.68,336.81,325.23,336.51Z" transform="translate(-167.6 -259)"/><path class="cls-56" d="M347.15,370.75c.15-1.83-1-3.2-1.74-4.68-3.79-7.86-7.73-15.68-11.57-23.52-1.5-3-2.9-6.13-4.34-9.19.63-.41,1.23-.95,2.06-.41a3.28,3.28,0,0,1,1,1.28c5,10,9.87,20.18,14.86,30.24a3.07,3.07,0,0,1,.25.72c.11,1.44.06,2.88,0,4.31C347.73,370,347.84,370.56,347.15,370.75Z" transform="translate(-167.6 -259)"/><path class="cls-18" d="M321.6,332.92Q329,348,336.38,363c2.86,5.83,5.69,11.69,8.54,17.52a6.76,6.76,0,0,0,.67.92,1.68,1.68,0,0,1-.37,2.05c-.87.07-1-.71-1.27-1.2-2-3.8-3.94-7.64-5.76-11.53-.2-.42-.38-.86-.58-1.27-3.81-7.46-7.39-15-11.1-22.55q-3-6.06-6-12.13c-.25-.51-.68-1-.21-1.65A2.34,2.34,0,0,1,321.6,332.92Z" transform="translate(-167.6 -259)"/><path class="cls-57" d="M327,328.3l-3.06.75a29.08,29.08,0,0,1-2.46-4.73c-1.19-2.62-2.49-5.2-3.81-7.77-2-3.92-3.74-8-5.81-11.88a1.2,1.2,0,0,1-.23-.84.49.49,0,0,1,.58-.1,19.9,19.9,0,0,1,4.94,3.39,5.31,5.31,0,0,0,.62,1.78c3,6,5.77,12,8.81,17.89C326.78,327.24,327.17,327.69,327,328.3Z" transform="translate(-167.6 -259)"/><path class="cls-53" d="M311.64,303.81a43.92,43.92,0,0,1,3,5.86c1.4,3.1,3,6.08,4.49,9.14s3,6.1,4.45,9.14a2,2,0,0,1,.31,1.09l-2.05.52c-.41-.15-.53-.52-.7-.86-4-8-7.8-16-11.82-24-.37-.75-1.09-1.49-.37-2.45.49-.21.82.18,1.22.33C310.67,303,311.54,303,311.64,303.81Z" transform="translate(-167.6 -259)"/><path class="cls-17" d="M344.35,386.11c-4.44-8.17-8.25-16.65-12.43-24.95-4.36-8.65-8.55-17.38-12.81-26.07a3.1,3.1,0,0,1-.57-1.67,1.73,1.73,0,0,0,1-.21,2.22,2.22,0,0,1,.49.75c4,7.86,7.81,15.85,11.73,23.77,4.09,8.3,8.09,16.65,12.23,24.93.33.64.71,1.25,1,1.92C345.09,385.2,345.08,385.83,344.35,386.11Z" transform="translate(-167.6 -259)"/><path class="cls-55" d="M309.09,302.38c-.44.62,0,1.14.25,1.64.54,1.2,1.16,2.36,1.75,3.54q5.06,10.24,10.1,20.5c.24.5.43,1,.64,1.52l-1.78.49c-1.45-3.64-3.33-7.06-5.05-10.56q-4.17-8.46-8.34-16.91a4.07,4.07,0,0,1-.39-2.09.83.83,0,0,1,.51-.51c.29-.16.53-.49.93-.38a.39.39,0,0,1,.18.27c0,.37-.27.7-.23,1.08a.8.8,0,0,0,.49.54l.57.32A.58.58,0,0,1,309.09,302.38Z" transform="translate(-167.6 -259)"/><path class="cls-56" d="M327,328.3l-9.85-19.93c-.18-.38-.49-.73-.11-1.16a4.82,4.82,0,0,1,3.1,2.12,64.24,64.24,0,0,1,4.84,9.22c1.24,2.56,2.52,5.09,3.74,7.65.13.27.28.53.38.8.45,1.06.37,1.16-.71,1.19a2.66,2.66,0,0,0-.89.06Z" transform="translate(-167.6 -259)"/><path class="cls-58" d="M334.12,332.69a3.71,3.71,0,0,1,2,.2c.5.32.64.88.89,1.36,3.32,6.51,6.42,13.12,9.67,19.66a8.73,8.73,0,0,1,.38,4.12c-.34.46-.59.12-.81-.12a6.58,6.58,0,0,1-1-1.76c-3.46-7.31-7.09-14.53-10.64-21.79C334.37,333.83,333.92,333.35,334.12,332.69Z" transform="translate(-167.6 -259)"/><path class="cls-59" d="M347.35,364.83c-1.42-2.55-2.62-5.21-3.9-7.85-3.65-7.52-7.39-15-11.09-22.48-.26-.53-.54-1.05-.8-1.57l1.53,0a27.9,27.9,0,0,1,2.75,5.14c.32.64.57,1.33.9,2,3.48,6.76,6.65,13.69,10.1,20.46a11.23,11.23,0,0,1,.81,2.54C347.7,363.64,347.92,364.31,347.35,364.83Z" transform="translate(-167.6 -259)"/><path class="cls-18" d="M344.85,384.49c-.48-.22-.6-.7-.8-1.12l-11.6-23.43q-6.24-12.7-12.45-25.42a2.41,2.41,0,0,1-.43-1.32l.77-.06a3.12,3.12,0,0,0,.56,1.66Q326.43,346,332,357.19c3.92,7.95,7.8,15.93,11.71,23.9.41.82.95,1.58,1.44,2.38A.62.62,0,0,1,344.85,384.49Z" transform="translate(-167.6 -259)"/><path class="cls-60" d="M347.34,362.79a14.57,14.57,0,0,0-1.55-3.71c-3.26-6.61-6.54-13.22-9.78-19.83-1-2.08-1.95-4.22-2.92-6.33a1.34,1.34,0,0,1,1-.22l10.7,21.66c.65,1.31,1,2.79,2.14,3.82,0,0,.1,0,.11.05A6.3,6.3,0,0,1,347.34,362.79Z" transform="translate(-167.6 -259)"/><path class="cls-61" d="M269.51,340.38l-.27.2c-.54.11-.88-.26-1.24-.54a9.51,9.51,0,0,0-7.53-2.05,1.17,1.17,0,0,1-.86-.12.24.24,0,0,1-.06-.34h0l2.39-6.81c.8,2.06,1.59,3.85,2.19,5.7.41,1.29.84,1.09,1.65.37,1.39-1.23,2.87-2.37,4.47-3.68-.33,2.13-.63,4-.88,5.9C269.31,339.44,269,340,269.51,340.38Z" transform="translate(-167.6 -259)"/><path class="cls-62" d="M327.5,334.71c1.32,2.25,2.35,4.61,3.47,6.94,1.67,3.49,3.47,6.92,5.17,10.39q5,10.13,9.89,20.27c.22.45.33,1,.87,1.21.41.68.56,1.33-.23,1.87a18.15,18.15,0,0,0-.7-1.91c-3.84-7.8-7.72-15.58-11.55-23.39-2.36-4.79-4.66-9.61-7-14.41a1,1,0,0,0-.54-.51A1,1,0,0,1,327.5,334.71Z" transform="translate(-167.6 -259)"/><path class="cls-63" d="M346.36,353.85l-9.93-20.13a8.09,8.09,0,0,1-.28-.83l.75-.49c.91,0,1,.79,1.26,1.36,2.48,5.39,5.37,10.59,7.75,16C346.16,351.13,347,352.41,346.36,353.85Z" transform="translate(-167.6 -259)"/><path class="cls-59" d="M327.49,328.25c.46-.41,1.08,0,1.62-.34-.11-.26-.21-.54-.33-.8-2.6-5.29-5.22-10.58-7.79-15.89-.32-.68-1-1.12-1.12-1.9,1.42.24,2.21,1.3,3.06,2.3,2.29,5.17,5.1,10.08,7.38,15.25.19.44.61.86.24,1.41Z" transform="translate(-167.6 -259)"/><path class="cls-58" d="M334.1,328.9l-2.62-.55c.11-.55-.25-1-.46-1.41-1.85-3.87-3.94-7.62-5.65-11.55-.18-.41-.49-.81-.28-1.32a.46.46,0,0,1,.65,0l0,0A17.23,17.23,0,0,1,329,317.6a63.12,63.12,0,0,0,3,6.38c.57,1.22,1.21,2.41,1.8,3.63C334,328,334.37,328.4,334.1,328.9Z" transform="translate(-167.6 -259)"/><path class="cls-64" d="M325.21,313.94a12.46,12.46,0,0,0,1.21,3c1.68,3.46,3.43,6.89,5.12,10.35.13.27.9.75-.05,1l-.95-.07c-1.68-4.08-3.78-8-5.72-11.91a41.14,41.14,0,0,1-2.16-4.73C324,311.82,324.67,312.82,325.21,313.94Z" transform="translate(-167.6 -259)"/><path class="cls-65" d="M345.59,349.77c-.81-1.72-1.61-3.44-2.44-5.16-1.79-3.74-3.84-7.4-5.48-11.23-.17-.37-.3-.81-.75-1l.57-.75c.59-.65.78,0,1,.34.65,1.13,1.18,2.35,1.79,3.51,1.13,2.13,2,4.37,3.27,6.44a27.07,27.07,0,0,1,2.19,6.54C345.79,348.89,346,349.36,345.59,349.77Z" transform="translate(-167.6 -259)"/><path class="cls-66" d="M252.16,345.7a.58.58,0,0,0-.53-.28c.56-.4.13-.71-.1-1l-3.7-5,7.15.93a1.16,1.16,0,0,0,0,.18,20.17,20.17,0,0,0-2.53,5.09C252.46,345.7,252.29,345.73,252.16,345.7Z" transform="translate(-167.6 -259)"/><path class="cls-67" d="M259.55,337.52a.54.54,0,0,1,0,.18.46.46,0,0,1-.25.42,21,21,0,0,0-4,2.22.37.37,0,0,1-.38,0h0c-.44-2.38-.87-4.78-1.37-7.48,1.79,1.5,3.33,2.81,4.87,4.09C258.8,337.18,259,337.61,259.55,337.52Z" transform="translate(-167.6 -259)"/><path class="cls-63" d="M334.1,328.9q-2.44-4.95-4.9-9.89a2.49,2.49,0,0,1-.44-1.43.58.58,0,0,1,.67.2,21.11,21.11,0,0,1,2.84,3.64,4.77,4.77,0,0,0,.8,2.12c.82,1.5,1.57,3,2.28,4.56.21.47.55,1.13-.52,1A1,1,0,0,1,334.1,328.9Z" transform="translate(-167.6 -259)"/><path class="cls-68" d="M343.29,341.85c-.42,0-.55-.34-.68-.65-1.3-3.09-2.94-6-4.4-9-.13-.28-.13-.86-.75-.56.13-.8-.38-1.27-.87-1.74a16.72,16.72,0,0,0-1.13-2.52c-.19-.44-.49-.9-.09-1.4.58,0,.77.47,1,.84a74.52,74.52,0,0,1,6.81,13.6C343.37,340.87,343.67,341.35,343.29,341.85Z" transform="translate(-167.6 -259)"/><path class="cls-69" d="M335.38,326.05c.06,1.05.8,1.82,1.12,2.76.13.34.64.68.08,1.09l-1.76-.79c.64-.08.48-.43.29-.81-.85-1.65-1.68-3.32-2.56-5-.31-.6-.75-1.13-.51-1.88a.31.31,0,0,1,.43,0v0a27.89,27.89,0,0,1,2.85,3.82A.59.59,0,0,1,335.38,326.05Z" transform="translate(-167.6 -259)"/><path class="cls-70" d="M248.3,355.08c.18.38.56.22.84.33a4.89,4.89,0,0,1-.72.21c-.15,0-.42,0-.44-.08C247.88,355.3,248.1,355.19,248.3,355.08Z" transform="translate(-167.6 -259)"/><path class="cls-71" d="M337.69,401.35h.25a10,10,0,0,0,2.44-.38,1.55,1.55,0,0,1,.71.08.73.73,0,0,1,.43.32,4.81,4.81,0,0,1-3.11.75c-.37,0-.68-.08-.72-.53Z" transform="translate(-167.6 -259)"/><path class="cls-72" d="M216.12,406.7l-.75.77-.24,0a3.63,3.63,0,0,1-2.36-1.66,74.27,74.27,0,0,1-11.38-32.14,83.24,83.24,0,0,1-.1-14.47,71.45,71.45,0,0,1,3.65-17.84,73.32,73.32,0,0,1,9.51-18.81,74.09,74.09,0,0,1,10.19-11.82,83.35,83.35,0,0,1,13-9.77,7.52,7.52,0,0,1,3.55-1.29c.13.29.57.35.57.75-.84.7-2,.53-2.93,1.07A74.66,74.66,0,0,0,213.48,326a72.63,72.63,0,0,0-8.09,17.39,79.85,79.85,0,0,0-2.84,13.24,91.45,91.45,0,0,0-.4,13.74,57,57,0,0,0,1.44,10.53A71.67,71.67,0,0,0,211,400.94c.53,1,1.12,1.91,1.64,2.88A5.46,5.46,0,0,0,216.12,406.7Z" transform="translate(-167.6 -259)"/><path class="cls-73" d="M341.52,401.36l-.51-.09c-.27-.38,0-.66.18-.91,2.12-2.44,3-5.51,4.19-8.39a52.8,52.8,0,0,0,2.53-7.85,72.74,72.74,0,0,0,2-11.15,83,83,0,0,0,.19-12.21A75,75,0,0,0,339,326.33a76.89,76.89,0,0,0-8.44-11,73.23,73.23,0,0,0-17.1-13.76c-.51-.31-1.05-.56-1.56-.85a4.57,4.57,0,0,0-3.88-.62l-.17-.1,0-.27c-.14-.26.11-.37.23-.51l.37-.51c2.6-.31,4.55,1.26,6.53,2.48a75.2,75.2,0,0,1,15.47,12.35,76.59,76.59,0,0,1,14.83,22.34,73.81,73.81,0,0,1,5.44,19.37,81.11,81.11,0,0,1,.38,16.63,72.84,72.84,0,0,1-3.45,17.24A55.75,55.75,0,0,1,342,401.54Z" transform="translate(-167.6 -259)"/><path class="cls-74" d="M216.12,406.7c-1.64.22-2.54-.91-3.26-2a73.2,73.2,0,0,1-10.43-28.91,78.43,78.43,0,0,1-.15-19,71.3,71.3,0,0,1,2.7-13.11,75.64,75.64,0,0,1,5-12.19,70.9,70.9,0,0,1,5.27-8.68,80.35,80.35,0,0,1,6.16-7.59,74,74,0,0,1,14.65-12.3c1.73-1.12,3.44-2.35,5.61-2.41l.19,0,.53,1c-1.92-.79-3.48.17-5,1.13a73.84,73.84,0,0,0-30.77,37.79,70.77,70.77,0,0,0-3.74,15.11,75,75,0,0,0,8.23,45.23,23.29,23.29,0,0,0,2.74,4.29,2.48,2.48,0,0,0,3,.88C216.81,406.37,216.44,406.51,216.12,406.7Z" transform="translate(-167.6 -259)"/><path class="cls-75" d="M287.22,292.87c-.65,0-1.37,0-1.07-.84.21-.61-.43-1.69.75-1.81a1.66,1.66,0,0,1,2,1.5C288.82,292.86,288,292.89,287.22,292.87Z" transform="translate(-167.6 -259)"/><path class="cls-76" d="M286.8,287.13c.07-.1-.44-1,.56-1,.66,0,1.3.24,1.3,1.07s-.6,1-1.31,1S286.43,288.13,286.8,287.13Z" transform="translate(-167.6 -259)"/><path class="cls-77" d="M303.31,293.65c-.09.06-.13.09-.16.09-2.8-.47-2.8-.47-1.1-2.62l.77-.92c.13.68.26,1.22.34,1.76S303.27,293.1,303.31,293.65Z" transform="translate(-167.6 -259)"/><path class="cls-76" d="M258,287.71l1.91,3.16c-.14.09-.2.15-.27.16-.78.08-2.09.64-2.24.21C257.06,290.2,257.76,289.08,258,287.71Z" transform="translate(-167.6 -259)"/><path class="cls-78" d="M269.32,445.49c-.45-.07-1.15,0-.87-.79.17-.49-.46-1.46.65-1.42.75,0,1.61.28,1.61,1.25S270,445.47,269.32,445.49Z" transform="translate(-167.6 -259)"/><path class="cls-79" d="M268.88,441c.29-.22-.31-1.1.61-1,.52.06,1,.35.92,1a.86.86,0,0,1-1,.77C269,441.72,268.67,441.58,268.88,441Z" transform="translate(-167.6 -259)"/><path class="cls-80" d="M282.9,441.53c-.23-1,.16-1.16.77-1.12s1.14.26,1.08.93-.74.78-1.34.84C282.57,442.27,282.93,441.61,282.9,441.53Z" transform="translate(-167.6 -259)"/><path class="cls-81" d="M302,435.3c-.08-.17-.15-.34-.22-.51.92-.37,1.94-.31,2.88-.72a13,13,0,0,0,3-2.18l.44.37.58,1a13.32,13.32,0,0,1-5,2.62c-.26.06-.48.33-.71.5Z" transform="translate(-167.6 -259)"/><path class="cls-82" d="M247.34,432.58a.9.9,0,0,0,.23-.08c1,1.83,2.32,2.39,4.42,1.81l-.29,1-.4.75a7.08,7.08,0,0,1-4.77-2v-.24A3.35,3.35,0,0,0,247.34,432.58Z" transform="translate(-167.6 -259)"/><path class="cls-83" d="M307.62,431.89a6.32,6.32,0,0,1-5.88,2.9l-.54-.6a6.05,6.05,0,0,0,4.15-.84,3.19,3.19,0,0,0,1.72-2.18A1.24,1.24,0,0,1,307.62,431.89Z" transform="translate(-167.6 -259)"/><path class="cls-18" d="M308,299.21c.06.23-.08.37-.23.51l-1,.26A1.21,1.21,0,0,1,308,299.21Z" transform="translate(-167.6 -259)"/><path class="cls-84" d="M335.38,326.05a28.21,28.21,0,0,0-3.32-4.59,25.46,25.46,0,0,0-3.3-3.88,27.76,27.76,0,0,0-3.55-3.64,14.62,14.62,0,0,0-2.55-2.3,16.29,16.29,0,0,0-2.8-2.32,16.89,16.89,0,0,0-2.86-2.11,31.52,31.52,0,0,0-5.36-3.4l-1.53-1c.47-1,1.09-.28,1.53,0a58.94,58.94,0,0,1,6.26,4,74.74,74.74,0,0,1,16.4,15.95c1.17,1.91,2.56,3.68,3.7,5.61,1,1.64,1.76,3.39,2.83,5A81.4,81.4,0,0,1,346.27,348,74.58,74.58,0,0,1,348,373.2a66.31,66.31,0,0,1-5.39,20.74,15.23,15.23,0,0,1-1.69,3.55c-.2.25-.47,1.09-.95.18l1.32-3.2a28.29,28.29,0,0,0,2.31-5.88l.78-2.47a3.55,3.55,0,0,0,.48-1.61,1.64,1.64,0,0,0,.26-1,5.32,5.32,0,0,0,.5-2,9.23,9.23,0,0,0,.56-2.8,11.09,11.09,0,0,0,.52-3.24,4.24,4.24,0,0,0,.23-1.87,8.34,8.34,0,0,0,.25-2.77,29.21,29.21,0,0,0,.2-5.91v-2a28.51,28.51,0,0,0-.38-4.62,78.15,78.15,0,0,0-1.38-8.42,24.2,24.2,0,0,0-2.2-7.18,2.34,2.34,0,0,1-.09-.75,60.8,60.8,0,0,0-5.83-12.63A17.83,17.83,0,0,0,335.38,326.05Z" transform="translate(-167.6 -259)"/><path class="cls-85" d="M339.94,397.65c.37.46.44,0,.59-.2a20.84,20.84,0,0,0,2.4-5.18,66.91,66.91,0,0,0,4.42-16.62,79.89,79.89,0,0,0,.1-19,69.63,69.63,0,0,0-4.86-18.6,50.24,50.24,0,0,1-2.09-4.89c.7-.11.8.49,1,.9a9.25,9.25,0,0,0,1.12,1.83,11.5,11.5,0,0,1,1.67,3.69,71.87,71.87,0,0,1,4,15.38,76.49,76.49,0,0,1,.5,16.77,69.66,69.66,0,0,1-3.66,17.66,61.65,61.65,0,0,1-3.44,8.23,3.79,3.79,0,0,1-1.94,2.11c-.24.08-.74.52-.81-.22Z" transform="translate(-167.6 -259)"/><path class="cls-86" d="M339,399.52c.89.2,1.38-.38,1.8-1a34.85,34.85,0,0,0,3.1-6.67,67.38,67.38,0,0,0,4-14.41,75.08,75.08,0,0,0,.82-15.78A71.72,71.72,0,0,0,346,345.6c-.81-3-2-5.81-3-8.71a4.28,4.28,0,0,0-.67-.91c-1.23-2.87-3-5.43-4.49-8.17-.25-.46-.68-.88-.46-1.49a.46.46,0,0,1,.32-.18c.44,0,.66.34.87.66a53.82,53.82,0,0,1,2.71,4.72,14.78,14.78,0,0,0,1.43,2.87c.18.42.32.86.53,1.28a7,7,0,0,0,.51,1.07,8.8,8.8,0,0,1,.35,1,7.11,7.11,0,0,0,.51,1.12,52,52,0,0,1,1.73,5,6.17,6.17,0,0,0,.49,1.58,1.56,1.56,0,0,1,.1.37,7.46,7.46,0,0,0,.47,1.8c.29,1.13.56,2.25.78,3.39a11.33,11.33,0,0,0,.2,1.3,2.33,2.33,0,0,1,.08.38,5.91,5.91,0,0,0,.19,1.25c.1.46.15.94.21,1.42a12.79,12.79,0,0,0,.32,1.95,5.62,5.62,0,0,1,.09.57,10.1,10.1,0,0,0,.14,2,1.63,1.63,0,0,1,0,.44c.26,3.27.06,6.55.12,9.82a5.06,5.06,0,0,1-.09,1.1,6.62,6.62,0,0,0-.18,2.08,3.29,3.29,0,0,1-.1.82,14.83,14.83,0,0,0-.42,3.18,2.8,2.8,0,0,1-.09.58,12.71,12.71,0,0,0-.46,2,2.45,2.45,0,0,1-.08.37,5.92,5.92,0,0,0-.2,1.25,2.21,2.21,0,0,1-.08.37,5.42,5.42,0,0,0-.4,1.77c-.64,2.25-1.2,4.52-2.06,6.7a7.05,7.05,0,0,0-.58,1.32c-.09.27-.18.55-.28.82a9.71,9.71,0,0,0-.5,1.26c-.1.27-.18.54-.3.8a5.77,5.77,0,0,0-.51,1.1,31.3,31.3,0,0,1-1.38,2.86,4.05,4.05,0,0,1-2.76,2.24.5.5,0,0,1-.59-.35C338.59,400.05,338.65,399.7,339,399.52Z" transform="translate(-167.6 -259)"/><path class="cls-87" d="M338.48,400.32l.5.24a2.45,2.45,0,0,1,1.23.11.61.61,0,0,1,.3.43,2.33,2.33,0,0,1-2.55.24A1.4,1.4,0,0,1,338.48,400.32Z" transform="translate(-167.6 -259)"/><path class="cls-3" d="M255,340.31a15.12,15.12,0,0,1,4.6-2.62,11.49,11.49,0,0,1,6.22.58,17.28,17.28,0,0,1,3.47,2.3,12.59,12.59,0,0,1,2.33,4.74,9.42,9.42,0,0,1-3.66,9.82,9.26,9.26,0,0,1-10.52.89,9.45,9.45,0,0,1-5.26-9.18c0-.38,0-.75,0-1.15A13.15,13.15,0,0,1,255,340.31Z" transform="translate(-167.6 -259)"/><path d="M274.81,381a3.37,3.37,0,0,1-3.37-3.37v0a3.42,3.42,0,0,1,3.48-3.31,3.37,3.37,0,0,1,3.27,3.37,3.29,3.29,0,0,1-3.26,3.35Z" transform="translate(-167.6 -259)"/><path class="cls-85" d="M334.11,322.7a8.11,8.11,0,0,1-1.87-2.05,67.36,67.36,0,0,0-10.83-10.85,71.91,71.91,0,0,0-9.49-6.57c-.52-.3-1-1-1.8-.45l-1-.4-.5-.37c.13-.95.85-.8,1.44-.71a5.79,5.79,0,0,1,2,.8,72,72,0,0,1,17.82,14.22,29.59,29.59,0,0,1,4,5C333.93,321.78,334.48,322.18,334.11,322.7Z" transform="translate(-167.6 -259)"/><path class="cls-88" d="M340.23,400.86a2.31,2.31,0,0,1-1.26-.3c2.09-.78,2.86-2.64,3.66-4.49a3.67,3.67,0,0,1,.42-.61c.2-.33.24-.75.51-1,0-.28-.05-.59.25-.77.24-.4.3-.87.52-1.28,0-.28-.05-.58.25-.74.24-.4.3-.87.51-1.28l2.05-6.89c.22-.58.3-1.21.5-1.79v-.26c.26-.39.06-.87.26-1.27v-.26a16,16,0,0,0,.51-2v-.51c.23-1.1.29-2.22.51-3.32v-.75c.37-.65-.09-1.39.26-2v-1a31.43,31.43,0,0,0,.11-5,32.15,32.15,0,0,0-.12-5.18v-.25c-.34-.65.1-1.4-.26-2v-.51c-.29-.57,0-1.23-.25-1.79a2.62,2.62,0,0,1-.26-1.53c-.2-.41,0-.89-.25-1.28v-.26c-.2-.4,0-.88-.25-1.27a19.81,19.81,0,0,1-.75-3.58c-.21-.58-.28-1.21-.51-1.79v-.29a11.44,11.44,0,0,1-.51-1.53l-1.79-5.11c-.18-.33-.22-.74-.51-1a1.73,1.73,0,0,1-.26-1c-.27-.29-.31-.69-.51-1a1.54,1.54,0,0,1-.51-1.28c-.6-.88-.9-1.93-1.53-2.81-1.1-1.79-1.9-3.76-3.32-5.36a59.86,59.86,0,0,1-3.61-4.93,71.38,71.38,0,0,0-7.88-8.78A73.31,73.31,0,0,0,313.53,303a26.44,26.44,0,0,0-2.56-1.41,2.74,2.74,0,0,0-2.89.14c-.32-.17-.91-.08-.74-.75a2.17,2.17,0,0,1,.63-.72,3.87,3.87,0,0,1,3.77.31A70.76,70.76,0,0,1,324.09,309a74.75,74.75,0,0,1,15.27,17.75,71.51,71.51,0,0,1,8.21,18.69,73.65,73.65,0,0,1,2.62,24.76A72.84,72.84,0,0,1,343,397.72C342.37,399,341.85,400.42,340.23,400.86Z" transform="translate(-167.6 -259)"/><path class="cls-89" d="M308.07,301.73c.54-1.09,1.48-.82,2.3-.58a20.27,20.27,0,0,1,5,2.72,72,72,0,0,1,15.74,13.44,64,64,0,0,1,6.37,8.38,3.19,3.19,0,0,1,.21.59h-.26c-.65.12-.82-.42-1.12-.8-1-1.31-1.75-2.74-2.71-4.05a11.59,11.59,0,0,0-2.39-3.23,72.46,72.46,0,0,0-13.84-12.38,40.44,40.44,0,0,0-6.84-4.09c-.67-.29-1.38-.51-1.93.25Z" transform="translate(-167.6 -259)"/><path class="cls-73" d="M307.8,300.49a.88.88,0,0,1-.5.5,1.8,1.8,0,0,1,.5-1l0,0a.32.32,0,0,1,0,.47Z" transform="translate(-167.6 -259)"/><path class="cls-90" d="M307.8,300.49l0-.48a3.08,3.08,0,0,1,3.35,0A62.06,62.06,0,0,1,324,308.66c1.63,1.41,3.33,2.77,4.82,4.33A85.66,85.66,0,0,1,338.51,325a73.81,73.81,0,0,1,7.92,16,71.6,71.6,0,0,1,3.74,17.16,77.48,77.48,0,0,1-.44,18.2,72.35,72.35,0,0,1-3.42,14,47.48,47.48,0,0,1-4,9.15c-.38.61-1.15.91-1.28,1.7l-.52-.17-.26-.24c2.28-1.59,2.95-4.21,4-6.54a65.48,65.48,0,0,0,4-12.42,76.67,76.67,0,0,0,1.27-24.82,72.69,72.69,0,0,0-8.15-26.26,71.16,71.16,0,0,0-8.78-12.89,76.55,76.55,0,0,0-10.66-10.33,63.19,63.19,0,0,0-10.61-7A4.23,4.23,0,0,0,307.8,300.49Z" transform="translate(-167.6 -259)"/><path class="cls-91" d="M333.62,321.43c1.32,1,2,2.56,2.93,3.84.28.38.46.8.9,1,.66,1.7,1.8,3.14,2.59,4.77s1.87,3.11,2.25,4.93c-.81-.8-.83-2.1-1.79-2.81-1.21-1.42-1.77-3.21-2.79-4.75s-2-3.28-3.23-4.79a3.12,3.12,0,0,1-.37-.93C333.94,322.28,333.77,321.84,333.62,321.43Z" transform="translate(-167.6 -259)"/><path class="cls-92" d="M349.18,360c.07.1.2.2.2.3v9.61c0,.1-.13.21-.2.31Z" transform="translate(-167.6 -259)"/><path class="cls-92" d="M341,331.64a6.3,6.3,0,0,1,1.53,2.81A6.2,6.2,0,0,1,341,331.64Z" transform="translate(-167.6 -259)"/><path class="cls-92" d="M348.92,374a8.17,8.17,0,0,1-.51,3.32A8.17,8.17,0,0,1,348.92,374Z" transform="translate(-167.6 -259)"/><path class="cls-92" d="M348.41,377.85a2.83,2.83,0,0,1-.51,2A3.86,3.86,0,0,1,348.41,377.85Z" transform="translate(-167.6 -259)"/><path class="cls-92" d="M348.67,355.39c.49.53.15,1.19.25,1.78C348.48,356.64,348.68,356,348.67,355.39Z" transform="translate(-167.6 -259)"/><path class="cls-92" d="M348.92,357.68c.51.63.15,1.37.26,2.05C348.67,359.1,349,358.36,348.92,357.68Z" transform="translate(-167.6 -259)"/><path class="cls-92" d="M346.62,345.68a2.61,2.61,0,0,1,.52,1.79A2.61,2.61,0,0,1,346.62,345.68Z" transform="translate(-167.6 -259)"/><path class="cls-92" d="M349.18,371.23c-.11.68.25,1.42-.26,2C349,372.58,348.67,371.84,349.18,371.23Z" transform="translate(-167.6 -259)"/><path class="cls-92" d="M347.64,381.68a2.6,2.6,0,0,1-.5,1.79A2.61,2.61,0,0,1,347.64,381.68Z" transform="translate(-167.6 -259)"/><path class="cls-92" d="M346.11,343.89a2.38,2.38,0,0,1,.51,1.54A1.71,1.71,0,0,1,346.11,343.89Z" transform="translate(-167.6 -259)"/><path class="cls-92" d="M347.9,380.15a1.3,1.3,0,0,1-.26,1.28C347.71,381,347.47,380.51,347.9,380.15Z" transform="translate(-167.6 -259)"/><path class="cls-92" d="M347.9,351a1.3,1.3,0,0,1,.26,1.28C347.73,352,348,351.48,347.9,351Z" transform="translate(-167.6 -259)"/><path class="cls-92" d="M345.09,390.37a1.46,1.46,0,0,1-.51,1.27A1.46,1.46,0,0,1,345.09,390.37Z" transform="translate(-167.6 -259)"/><path class="cls-92" d="M348.16,352.58a1.3,1.3,0,0,1,.25,1.27C348,353.5,348.21,353,348.16,352.58Z" transform="translate(-167.6 -259)"/><path class="cls-92" d="M344.33,392.41a1.44,1.44,0,0,1-.52,1.27A1.51,1.51,0,0,1,344.33,392.41Z" transform="translate(-167.6 -259)"/><path class="cls-92" d="M343.82,337.77c.46.19.53.58.51,1A1.36,1.36,0,0,1,343.82,337.77Z" transform="translate(-167.6 -259)"/><path class="cls-92" d="M343.05,335.73a1.39,1.39,0,0,1,.51,1A.9.9,0,0,1,343.05,335.73Z" transform="translate(-167.6 -259)"/><path class="cls-92" d="M343.56,394.45a1.39,1.39,0,0,1-.51,1A.9.9,0,0,1,343.56,394.45Z" transform="translate(-167.6 -259)"/><path class="cls-9" d="M253.68,347.33a8.28,8.28,0,1,1,8.24,8.31h0a8.23,8.23,0,0,1-8.21-8.25Z" transform="translate(-167.6 -259)"/><rect class="cls-93" x="250.38" y="153.38" width="162.35" height="10.62" rx="5.31"/><path class="cls-94" d="M467.65,322.27a35.92,35.92,0,0,1,15.22,14.39,43.34,43.34,0,0,1,5.37,21.89q0,12.51-5.37,21.71a35.39,35.39,0,0,1-15.22,14.1q-9.86,4.9-22.95,4.9H417.92v-82H444.7Q457.8,317.26,467.65,322.27Zm-.89,58.23q7.68-7.78,7.67-21.95t-7.67-22.3q-7.67-8-22.06-8H431.37v60H444.7Q459.1,388.28,466.76,380.5Z" transform="translate(-167.6 -259)"/><path class="cls-94" d="M501.16,349.11a29.66,29.66,0,0,1,26.6-15.93,28.44,28.44,0,0,1,13.39,3,27.2,27.2,0,0,1,9.15,7.5v-9.44h13.57v65H550.3v-9.68a26.65,26.65,0,0,1-9.32,7.67A30.15,30.15,0,0,1,512.19,396a30.51,30.51,0,0,1-11-12,36.93,36.93,0,0,1-4.07-17.52A35.94,35.94,0,0,1,501.16,349.11Zm46.37,5.9a19.49,19.49,0,0,0-7.26-7.55,19,19,0,0,0-9.68-2.59,19.07,19.07,0,0,0-16.93,10,23.22,23.22,0,0,0-2.77,11.63,24.23,24.23,0,0,0,2.77,11.8A19.57,19.57,0,0,0,521,386a18.76,18.76,0,0,0,9.61,2.66,19,19,0,0,0,9.68-2.6,19.33,19.33,0,0,0,7.26-7.61,23.94,23.94,0,0,0,2.77-11.74A23.65,23.65,0,0,0,547.53,355Z" transform="translate(-167.6 -259)"/><path class="cls-94" d="M591.42,397.55A24.09,24.09,0,0,1,581.8,390,18.81,18.81,0,0,1,578,379.32H592a9.47,9.47,0,0,0,3.95,6.9,14.34,14.34,0,0,0,9,2.77c3.78,0,6.71-.72,8.79-2.18a6.58,6.58,0,0,0,3.13-5.61,5.75,5.75,0,0,0-3.48-5.42,65.59,65.59,0,0,0-11-3.9A104.82,104.82,0,0,1,590.41,368a20.92,20.92,0,0,1-8-5.78q-3.36-3.9-3.36-10.27a16,16,0,0,1,3.06-9.49,20.49,20.49,0,0,1,8.79-6.79,32.9,32.9,0,0,1,13.16-2.48q11.08,0,17.87,5.61t7.26,15.28H615.78a9.61,9.61,0,0,0-3.54-7c-2.12-1.73-5-2.6-8.61-2.6s-6.26.67-8.14,2a6.21,6.21,0,0,0-2.84,5.31,5.73,5.73,0,0,0,1.89,4.36,13.31,13.31,0,0,0,4.6,2.77q2.72,1,8,2.54a87.13,87.13,0,0,1,11.62,3.84,21.53,21.53,0,0,1,7.84,5.72q3.32,3.78,3.43,10A16.85,16.85,0,0,1,627,391a20.38,20.38,0,0,1-8.67,6.84,32.39,32.39,0,0,1-13.16,2.48A32.86,32.86,0,0,1,591.42,397.55Z" transform="translate(-167.6 -259)"/><path class="cls-94" d="M691.47,336.37a22.65,22.65,0,0,1,9.2,9.44,31.51,31.51,0,0,1,3.36,15.1v38.35H690.7V362.92q0-8.73-4.37-13.39t-11.91-4.66q-7.56,0-12,4.66T658,362.92v36.34H644.57V312H658V341.8a22.52,22.52,0,0,1,8.67-6.37,28.88,28.88,0,0,1,11.5-2.25A27.34,27.34,0,0,1,691.47,336.37Z" transform="translate(-167.6 -259)"/><path class="cls-94" d="M744,336.19a29.07,29.07,0,0,1,13.27-3,30,30,0,0,1,15.58,4.13,29.15,29.15,0,0,1,11,11.74,36.85,36.85,0,0,1,4,17.41,37.51,37.51,0,0,1-4,17.52,30,30,0,0,1-11,12,30.88,30.88,0,0,1-28.91,1.36,25.77,25.77,0,0,1-9.26-7.55v9.44H721.14V312h13.45v32A25.63,25.63,0,0,1,744,336.19Zm27.37,18.64A19.07,19.07,0,0,0,764,347.4a19.68,19.68,0,0,0-9.74-2.53,19,19,0,0,0-9.61,2.59,19.36,19.36,0,0,0-7.32,7.55,23.55,23.55,0,0,0-2.77,11.68,23.84,23.84,0,0,0,2.77,11.74A19.15,19.15,0,0,0,764,386a19.61,19.61,0,0,0,7.31-7.72,24.23,24.23,0,0,0,2.77-11.8A23.22,23.22,0,0,0,771.34,354.83Z" transform="translate(-167.6 -259)"/><path class="cls-94" d="M812.69,396.13A30.19,30.19,0,0,1,801,384.33a35.59,35.59,0,0,1-4.24-17.64,35,35,0,0,1,4.36-17.58,30.19,30.19,0,0,1,11.92-11.8,36.52,36.52,0,0,1,33.74,0,30.19,30.19,0,0,1,11.92,11.8,35,35,0,0,1,4.36,17.58,34.16,34.16,0,0,1-4.48,17.58,31,31,0,0,1-12.21,11.86,35.23,35.23,0,0,1-17,4.19A33.36,33.36,0,0,1,812.69,396.13Zm26.37-10a18.9,18.9,0,0,0,7.38-7.43,23.91,23.91,0,0,0,2.83-12,24.35,24.35,0,0,0-2.71-12,18.29,18.29,0,0,0-7.2-7.38,19.69,19.69,0,0,0-9.68-2.47,19.35,19.35,0,0,0-9.61,2.47,17.65,17.65,0,0,0-7,7.38,25.27,25.27,0,0,0-2.6,12q0,10.5,5.37,16.23a17.75,17.75,0,0,0,13.51,5.72A20,20,0,0,0,839.06,386.16Z" transform="translate(-167.6 -259)"/><path class="cls-94" d="M876,349.11a29.66,29.66,0,0,1,26.61-15.93,28.47,28.47,0,0,1,13.39,3,27.25,27.25,0,0,1,9.14,7.5v-9.44H938.7v65H925.13v-9.68a26.65,26.65,0,0,1-9.32,7.67A30.15,30.15,0,0,1,887,396a30.58,30.58,0,0,1-11-12,37.05,37.05,0,0,1-4.07-17.52A36.06,36.06,0,0,1,876,349.11Zm46.37,5.9a19.49,19.49,0,0,0-7.26-7.55,19,19,0,0,0-9.67-2.59,19.35,19.35,0,0,0-9.68,2.53,19.13,19.13,0,0,0-7.25,7.43,23.22,23.22,0,0,0-2.77,11.63,24.23,24.23,0,0,0,2.77,11.8,19.61,19.61,0,0,0,7.31,7.72,19,19,0,0,0,19.29.06,19.33,19.33,0,0,0,7.26-7.61,23.84,23.84,0,0,0,2.77-11.74A23.55,23.55,0,0,0,922.36,355Z" transform="translate(-167.6 -259)"/><path class="cls-94" d="M977.7,336a23.16,23.16,0,0,1,11.62-2.78v13.93H985.9q-7.92,0-12,4T969.85,365v34.22H956.4v-65h13.45v9.44A21,21,0,0,1,977.7,336Z" transform="translate(-167.6 -259)"/><path class="cls-94" d="M1001.29,349.11A29.66,29.66,0,0,1,1028,333.18a30.49,30.49,0,0,1,12.57,2.78,25.7,25.7,0,0,1,9.85,7.37V312H1064v87.31h-13.57v-9.8a25.1,25.1,0,0,1-9.14,7.79,28.34,28.34,0,0,1-13.39,3.07,29.11,29.11,0,0,1-15.52-4.31,30.36,30.36,0,0,1-11.09-12,37.05,37.05,0,0,1-4.07-17.52A36.06,36.06,0,0,1,1001.29,349.11Zm46.37,5.9a19.49,19.49,0,0,0-7.26-7.55,19,19,0,0,0-9.67-2.59,19.35,19.35,0,0,0-9.68,2.53,19.06,19.06,0,0,0-7.25,7.43,23.22,23.22,0,0,0-2.78,11.63,24.24,24.24,0,0,0,2.78,11.8,19.47,19.47,0,0,0,7.31,7.72,19,19,0,0,0,19.29.06,19.33,19.33,0,0,0,7.26-7.61,23.84,23.84,0,0,0,2.77-11.74A23.55,23.55,0,0,0,1047.66,355Z" transform="translate(-167.6 -259)"/></svg>