<svg xmlns="http://www.w3.org/2000/svg" width="1221.246" height="746.257" viewBox="0 0 1221.246 746.257">
  <path id="eye" d="M122.125,373.126c0,112.56,229.594,247.817,488.926,248.75,257.561.933,488.071-135.445,488.071-248.75,0-113.492-229.228-249.123-488.315-248.75C350.986,124.749,122.125,259.945,122.125,373.126ZM610.623,0C918.5-.435,1221.246,167.037,1221.246,373.126S916.911,747.309,610.623,746.252,0,579.216,0,373.126,302.747.436,610.623,0Zm0,124.375c134.9,0,244.249,111.369,244.249,248.75s-109.354,248.75-244.249,248.75S366.374,510.507,366.374,373.126,475.728,124.376,610.623,124.376Zm0,124.375c-67.448,0-122.125,55.685-122.125,124.375S543.175,497.5,610.623,497.5s122.124-55.685,122.124-124.375S678.07,248.751,610.623,248.751Z" transform="translate(0 0)" fill="#0e0d4c" opacity="0.22"/>
</svg>
