<?xml version="1.0" encoding="utf-8"?>
<!-- Generator: Adobe Illustrator 23.0.1, SVG Export Plug-In . SVG Version: 6.00 Build 0)  -->
<svg version="1.1" id="Layer_1" xmlns="http://www.w3.org/2000/svg" xmlns:xlink="http://www.w3.org/1999/xlink" x="0px" y="0px"
	 viewBox="0 0 46 46" style="enable-background:new 0 0 46 46;" xml:space="preserve">
<style type="text/css">
	.st0{fill:#FFFFFF;}
</style>
<g id="Group_10" transform="translate(-1264 -768)">
	<g id="facebook-circle" transform="translate(1264 768)">
		<path id="Path_23" class="st0" d="M19.1,14V18h-3v5h3v14.8h6.1V23h4.1c0,0,0.4-2.4,0.6-5h-4.6v-3.4c0.1-0.7,0.7-1.1,1.3-1.2h3.3
			V8.3h-4.5C19,8.3,19.1,13.2,19.1,14z"/>
		<path id="Path_24" class="st0" d="M23,41.4c10.2,0,18.4-8.2,18.4-18.4S33.2,4.6,23,4.6S4.6,12.8,4.6,23
			C4.6,33.2,12.8,41.4,23,41.4L23,41.4z M23,46C10.3,46,0,35.7,0,23S10.3,0,23,0s23,10.3,23,23S35.7,46,23,46z"/>
	</g>
</g>
</svg>
