<svg xmlns="http://www.w3.org/2000/svg" width="46" height="46" viewBox="0 0 46 46">
  <g id="Group_15" data-name="Group 15" transform="translate(-1264 -768)">
    <g id="facebook-circle" transform="translate(1264 768)">
      <path id="Path_23" data-name="Path 23" d="M10.661,10.714v4.062H7.687v4.965h2.974V34.5h6.112V19.741h4.1s.386-2.381.572-4.986H16.8V11.363a1.442,1.442,0,0,1,1.327-1.192h3.328V5H16.923C10.51,5,10.661,9.971,10.661,10.714Z" transform="translate(8.473 3.25)"/>
      <path id="Path_24" data-name="Path 24" d="M23,41.4A18.4,18.4,0,1,0,4.6,23,18.4,18.4,0,0,0,23,41.4ZM23,46A23,23,0,1,1,46,23,23,23,0,0,1,23,46Z"/>
    </g>
  </g>
</svg>
