<svg id="instagram" xmlns="http://www.w3.org/2000/svg" width="46" height="46" viewBox="0 0 46 46">
  <path id="Path_5" data-name="Path 5" d="M32.3,0H13.7A13.718,13.718,0,0,0,0,13.7V32.3A13.718,13.718,0,0,0,13.7,46H32.3A13.718,13.718,0,0,0,46,32.3V13.7A13.718,13.718,0,0,0,32.3,0Zm9.078,32.3A9.078,9.078,0,0,1,32.3,41.374H13.7A9.078,9.078,0,0,1,4.626,32.3V13.7A9.078,9.078,0,0,1,13.7,4.626H32.3A9.078,9.078,0,0,1,41.374,13.7V32.3Z"/>
  <path id="Path_6" data-name="Path 6" d="M16.119,4.819a11.3,11.3,0,1,0,11.305,11.3,11.316,11.316,0,0,0-11.305-11.3Zm0,18.209a6.906,6.906,0,1,1,6.906-6.906A6.906,6.906,0,0,1,16.119,23.028Z" transform="translate(6.881 6.879)"/>
  <circle id="Ellipse_2" data-name="Ellipse 2" cx="3.003" cy="3.003" r="3.003" transform="translate(31.827 8.28)"/>
</svg>
