<?xml version="1.0" encoding="utf-8"?>
<!-- Generator: Adobe Illustrator 23.0.1, SVG Export Plug-In . SVG Version: 6.00 Build 0)  -->
<svg version="1.1" id="instagram" xmlns="http://www.w3.org/2000/svg" xmlns:xlink="http://www.w3.org/1999/xlink" x="0px" y="0px"
	 viewBox="0 0 46 46" style="enable-background:new 0 0 46 46;" xml:space="preserve">
<style type="text/css">
	.st0{fill:#FFFFFF;}
</style>
<path id="Path_5" class="st0" d="M32.3,0H13.7C6.1,0,0,6.1,0,13.7v18.6C0,39.9,6.1,46,13.7,46h18.6C39.9,46,46,39.9,46,32.3V13.7
	C46,6.1,39.9,0,32.3,0z M41.4,32.3c0,5-4.1,9.1-9.1,9.1H13.7c-5,0-9.1-4.1-9.1-9.1V13.7c0-5,4.1-9.1,9.1-9.1h18.6
	c5,0,9.1,4.1,9.1,9.1L41.4,32.3L41.4,32.3z"/>
<path id="Path_6" class="st0" d="M23,11.7c-6.2,0-11.3,5.1-11.3,11.3c0,6.2,5.1,11.3,11.3,11.3c6.2,0,11.3-5.1,11.3-11.3
	C34.3,16.8,29.2,11.7,23,11.7z M23,29.9c-3.8,0-6.9-3.1-6.9-6.9s3.1-6.9,6.9-6.9s6.9,3.1,6.9,6.9S26.8,29.9,23,29.9L23,29.9z"/>
<circle id="Ellipse_2" class="st0" cx="34.8" cy="11.3" r="3"/>
</svg>
