<svg id="Layer_1" data-name="Layer 1" xmlns="http://www.w3.org/2000/svg" viewBox="0 0 459.6 275.53"><defs><style>.cls-1{fill:#1e96d1;}.cls-2{fill:#252d6b;stroke:#fff;stroke-miterlimit:10;stroke-width:3px;}.cls-3{fill:#b4c834;}.cls-4{fill:#aaabae;}.cls-5{fill:#fff;}</style></defs><title>seelogodarkbg</title><path class="cls-1" d="M648.27,309.43c-5,.55-10.08,1.17-15.13,1.66A435.69,435.69,0,0,0,582,319.24a470.66,470.66,0,0,0-86.22,27.55c-7.46,3.21-14.8,6.72-22.18,10.11-9.3,4.26-18.85-.75-20.53-10.78-1-5.74,2.43-11.86,8.25-14.68a514.21,514.21,0,0,1,60.2-24.73,504.3,504.3,0,0,1,54.75-15.15,474.68,474.68,0,0,1,55.86-8.79,9.78,9.78,0,0,1,.5,1.85,28.22,28.22,0,0,0,7.72,17.22C642.77,304.55,645.61,306.91,648.27,309.43Z" transform="translate(-452.87 -243.35)"/><path class="cls-1" d="M736.13,282.46a4.09,4.09,0,0,0,2.83.93,487.1,487.1,0,0,1,66.27,12,506.18,506.18,0,0,1,98.29,35.8c7.82,3.8,11,11.83,7.57,19.14-3.55,7.49-11.75,10.25-19.75,6.38a484.51,484.51,0,0,0-64-25.65,475.88,475.88,0,0,0-79.67-18.12c-4.58-.64-9.17-1.2-13.76-1.79a25.12,25.12,0,0,0,4.49-13.54c.07-4-1.4-7.41-2.45-11C736,285.2,736.07,283.83,736.13,282.46Z" transform="translate(-452.87 -243.35)"/><path class="cls-2" d="M736.13,282.46c-.06,1.37-.13,2.74-.19,4.11-2.09-2.67-3.9-5.58-6.7-7.64-11.06-8.12-22.83-9-34.84-2.71-16.11,8.5-17.84,28.77-3.7,39.95,1,.83,2.5,1.19,3.09,2.57-4.19-.31-7.19,1.79-10.21,4.46-10.65,9.43-21.49,18.64-32.26,27.93-.53.46-1.1.88-2.3,1.85,3.21-6.88,6.07-13,8.93-19.17,2.34-5,4.69-10,7-15.06.32-.69,1.4-1.68-.26-2.12-5.85-1.55-11-4.6-16.41-7.2-2.66-2.52-5.5-4.88-8-7.59a28.22,28.22,0,0,1-7.72-17.22,9.78,9.78,0,0,0-.5-1.85c1-14.73,9.32-24.51,22-30.59,21.12-10.16,42.39-9.83,63.07,1.39,9.32,5.06,16.18,12.55,18.53,23.38A23.15,23.15,0,0,1,736.13,282.46Z" transform="translate(-452.87 -243.35)"/><path class="cls-3" d="M693.79,318.74c-.59-1.38-2-1.74-3.09-2.57-14.14-11.18-12.41-31.45,3.7-39.95,12-6.33,23.78-5.41,34.84,2.71,2.8,2.06,4.61,5,6.7,7.64,1,3.61,2.52,7,2.45,11a25.12,25.12,0,0,1-4.49,13.54c-5.58,3.49-4.06,7.82-1.87,12.62,2.4,5.25,4.24,10.76,6.31,16.16a9.13,9.13,0,0,1,.29,1c-1.27.21-1.79-.71-2.4-1.25-6-5.3-11.9-10.66-17.84-16-1-.86-1.85-1.65-3.37-1.52-6.88.62-13.64.31-19.88-3.19A4.5,4.5,0,0,0,693.79,318.74Z" transform="translate(-452.87 -243.35)"/><path class="cls-4" d="M566.21,501a28.93,28.93,0,0,1,7.69-1,10.58,10.58,0,0,1,3.83.6,5.7,5.7,0,0,1,2.42,1.7,6.63,6.63,0,0,1,1.27,2.61,13.92,13.92,0,0,1,.38,3.36v10.2h-5.12v-9.58a6.92,6.92,0,0,0-.65-3.5,2.66,2.66,0,0,0-2.44-1c-.37,0-.76,0-1.17.05s-.78.07-1.1.12v13.94h-5.11Z" transform="translate(-452.87 -243.35)"/><path class="cls-4" d="M611.57,499.89a12,12,0,0,1,3.78.51,6,6,0,0,1,2.42,1.48,5.47,5.47,0,0,1,1.28,2.33,11.25,11.25,0,0,1,.38,3.06v10.65c-.73.16-1.75.34-3,.56a29.13,29.13,0,0,1-4.74.33,15.45,15.45,0,0,1-3.18-.31,6.87,6.87,0,0,1-2.45-1,4.61,4.61,0,0,1-1.58-1.84,6.29,6.29,0,0,1-.55-2.78,5.29,5.29,0,0,1,.63-2.68,4.92,4.92,0,0,1,1.7-1.75,7.67,7.67,0,0,1,2.44-.95,14.06,14.06,0,0,1,2.85-.29,15.58,15.58,0,0,1,1.77.09,7.35,7.35,0,0,1,1.25.22V507a2.84,2.84,0,0,0-.79-2.1,3.83,3.83,0,0,0-2.74-.79,18.33,18.33,0,0,0-2.58.19,11.24,11.24,0,0,0-2.2.54l-.65-4.12c.3-.1.67-.19,1.12-.3s.93-.19,1.45-.27,1.09-.15,1.67-.21S611,499.89,611.57,499.89Zm.41,15c.5,0,1,0,1.44,0a8.51,8.51,0,0,0,1.1-.1v-3.88a8.74,8.74,0,0,0-.93-.14c-.41,0-.79-.07-1.13-.07a9.56,9.56,0,0,0-1.35.09,3.59,3.59,0,0,0-1.12.33,1.93,1.93,0,0,0-.76.65,1.84,1.84,0,0,0-.27,1,1.74,1.74,0,0,0,.81,1.66A4.4,4.4,0,0,0,612,514.86Z" transform="translate(-452.87 -243.35)"/><path class="cls-4" d="M652.64,508.85a6.94,6.94,0,0,0-.64-3.5,2.34,2.34,0,0,0-2.18-1,8.42,8.42,0,0,0-1,.05c-.35,0-.68.07-1,.12v13.94h-5.12V501q.66-.18,1.53-.36c.59-.13,1.2-.25,1.86-.35s1.32-.18,2-.24,1.36-.08,2-.08a8.56,8.56,0,0,1,3.18.49,7.42,7.42,0,0,1,2,1.19,9.42,9.42,0,0,1,5.15-1.68,9,9,0,0,1,3.55.6,5.29,5.29,0,0,1,2.22,1.7,6.44,6.44,0,0,1,1.13,2.61,16.49,16.49,0,0,1,.31,3.36v10.2h-5.12v-9.58a7.07,7.07,0,0,0-.63-3.5,2.36,2.36,0,0,0-2.18-1,5.42,5.42,0,0,0-2.37.72,8,8,0,0,1,.31,1.66c0,.59.06,1.21.06,1.87v9.86h-5.11Z" transform="translate(-452.87 -243.35)"/><path class="cls-4" d="M696.56,495.15a2.81,2.81,0,0,1-.91,2.21,3.25,3.25,0,0,1-4.29,0,2.77,2.77,0,0,1-.91-2.21,2.81,2.81,0,0,1,.91-2.22,3.28,3.28,0,0,1,4.29,0A2.84,2.84,0,0,1,696.56,495.15Zm-.48,23.28H691V500.37h5.12Z" transform="translate(-452.87 -243.35)"/><path class="cls-4" d="M736.32,509.4a11.45,11.45,0,0,1-.63,3.91,8.33,8.33,0,0,1-1.84,3,8.09,8.09,0,0,1-3,1.91,11.27,11.27,0,0,1-4,.67c-.61,0-1.26,0-1.94-.09s-1.34-.13-2-.22-1.27-.2-1.87-.33-1.12-.26-1.58-.39V492.61l5.12-.83v9a9.25,9.25,0,0,1,3.77-.79,8.06,8.06,0,0,1,3.4.67,6.75,6.75,0,0,1,2.48,1.9,8.81,8.81,0,0,1,1.51,3A13.61,13.61,0,0,1,736.32,509.4Zm-5.22-.14c0-3.3-1.21-4.94-3.64-4.94a6,6,0,0,0-1.56.2,4.44,4.44,0,0,0-1.25.52v9.3a8.3,8.3,0,0,0,1,.12,12.59,12.59,0,0,0,1.27,0,3.68,3.68,0,0,0,3.16-1.44A6.26,6.26,0,0,0,731.1,509.26Z" transform="translate(-452.87 -243.35)"/><path class="cls-4" d="M764.52,495.15a2.81,2.81,0,0,1-.91,2.21,3.26,3.26,0,0,1-4.3,0,2.81,2.81,0,0,1-.91-2.21,2.84,2.84,0,0,1,.91-2.22,3.29,3.29,0,0,1,4.3,0A2.84,2.84,0,0,1,764.52,495.15ZM764,518.43h-5.12V500.37H764Z" transform="translate(-452.87 -243.35)"/><path class="cls-4" d="M794,499.89a11.88,11.88,0,0,1,3.77.51,6,6,0,0,1,2.43,1.48,5.47,5.47,0,0,1,1.28,2.33,11.25,11.25,0,0,1,.38,3.06v10.65c-.73.16-1.75.34-3.05.56a29.13,29.13,0,0,1-4.74.33,15.45,15.45,0,0,1-3.18-.31,6.87,6.87,0,0,1-2.45-1,4.72,4.72,0,0,1-1.59-1.84,6.44,6.44,0,0,1-.54-2.78,5.29,5.29,0,0,1,.63-2.68,4.84,4.84,0,0,1,1.7-1.75,7.67,7.67,0,0,1,2.44-.95,13.91,13.91,0,0,1,2.85-.29,15.58,15.58,0,0,1,1.77.09,7.35,7.35,0,0,1,1.25.22V507a2.84,2.84,0,0,0-.79-2.1,3.86,3.86,0,0,0-2.75-.79,18.29,18.29,0,0,0-2.57.19,11.24,11.24,0,0,0-2.2.54l-.65-4.12c.3-.1.67-.19,1.11-.3s.94-.19,1.46-.27,1.09-.15,1.67-.21S793.38,499.89,794,499.89Zm.41,15c.5,0,1,0,1.44,0a8.51,8.51,0,0,0,1.1-.1v-3.88a9.18,9.18,0,0,0-.93-.14c-.41,0-.79-.07-1.13-.07a9.81,9.81,0,0,0-1.36.09,3.61,3.61,0,0,0-1.11.33,1.93,1.93,0,0,0-.76.65,1.84,1.84,0,0,0-.27,1,1.75,1.75,0,0,0,.8,1.66A4.47,4.47,0,0,0,794.39,514.86Z" transform="translate(-452.87 -243.35)"/><path class="cls-5" d="M519.78,416.27a11.43,11.43,0,0,0,2.79-.29,5.19,5.19,0,0,0,1.77-.76,2.6,2.6,0,0,0,.92-1.16,4.07,4.07,0,0,0,.25-1.48,3.44,3.44,0,0,0-1.63-2.9,24.16,24.16,0,0,0-5.64-2.48q-1.74-.61-3.48-1.41a12.85,12.85,0,0,1-3.13-2,9.54,9.54,0,0,1-2.25-2.91,9.19,9.19,0,0,1-.87-4.18,10.38,10.38,0,0,1,.92-4.43,9.6,9.6,0,0,1,2.61-3.35,12,12,0,0,1,4.1-2.13,18.29,18.29,0,0,1,5.43-.74,21.72,21.72,0,0,1,10.5,2.46l-2.3,6.3a21.35,21.35,0,0,0-3.31-1.36,14.37,14.37,0,0,0-4.38-.59,8,8,0,0,0-4.12.79,2.67,2.67,0,0,0-1.25,2.44,2.8,2.8,0,0,0,.46,1.64,4.47,4.47,0,0,0,1.3,1.2,11.43,11.43,0,0,0,1.95,1q1.1.44,2.43.9c1.85.68,3.45,1.36,4.82,2a12.88,12.88,0,0,1,3.4,2.33,8.32,8.32,0,0,1,2,3.13,12.35,12.35,0,0,1,.67,4.35,9.26,9.26,0,0,1-3.48,7.71q-3.48,2.75-10.5,2.74a30.19,30.19,0,0,1-4.25-.28,28.2,28.2,0,0,1-3.36-.69,20,20,0,0,1-2.51-.88,15.21,15.21,0,0,1-1.76-.87l2.25-6.35a20.58,20.58,0,0,0,3.92,1.57A20.31,20.31,0,0,0,519.78,416.27Z" transform="translate(-452.87 -243.35)"/><path class="cls-5" d="M564.59,408.84a17.36,17.36,0,0,1-.92,5.81,12.6,12.6,0,0,1-2.66,4.51,11.83,11.83,0,0,1-4.18,2.89,13.79,13.79,0,0,1-5.45,1,13.64,13.64,0,0,1-5.4-1,11.83,11.83,0,0,1-4.18-2.89,13.15,13.15,0,0,1-2.71-4.51,16.63,16.63,0,0,1-1-5.81,16.21,16.21,0,0,1,1-5.79,13.16,13.16,0,0,1,2.77-4.45,12.41,12.41,0,0,1,4.2-2.87,14.28,14.28,0,0,1,10.65,0,12.23,12.23,0,0,1,4.18,2.87,13,13,0,0,1,2.71,4.45A16.44,16.44,0,0,1,564.59,408.84Zm-7.78,0a9.59,9.59,0,0,0-1.41-5.56,4.6,4.6,0,0,0-4-2,4.68,4.68,0,0,0-4,2,9.51,9.51,0,0,0-1.43,5.56,9.75,9.75,0,0,0,1.43,5.61,4.65,4.65,0,0,0,4,2.07,4.58,4.58,0,0,0,4-2.07A9.83,9.83,0,0,0,556.81,408.84Z" transform="translate(-452.87 -243.35)"/><path class="cls-5" d="M569.2,408.89a16,16,0,0,1,.95-5.51,12.92,12.92,0,0,1,7.09-7.55,14.42,14.42,0,0,1,5.84-1.13,18.37,18.37,0,0,1,7.43,1.49l-1.59,6.09a18.68,18.68,0,0,0-2.35-.71,12.08,12.08,0,0,0-2.87-.31,6,6,0,0,0-5.05,2.1,8.63,8.63,0,0,0-1.66,5.53,8.94,8.94,0,0,0,1.56,5.63c1,1.34,2.86,2,5.46,2a18.78,18.78,0,0,0,3-.25,13,13,0,0,0,2.92-.82L591,421.7a19,19,0,0,1-3.33,1,22.17,22.17,0,0,1-4.4.41,16.63,16.63,0,0,1-6.35-1.1,12,12,0,0,1-4.38-3A11.62,11.62,0,0,1,570,414.5,19,19,0,0,1,569.2,408.89Z" transform="translate(-452.87 -243.35)"/><path class="cls-5" d="M604.44,387.63a4.17,4.17,0,0,1-1.36,3.31,4.87,4.87,0,0,1-6.4,0,4.72,4.72,0,0,1,0-6.61,4.87,4.87,0,0,1,6.4,0A4.18,4.18,0,0,1,604.44,387.63Zm-.72,34.73h-7.63V395.42h7.63Z" transform="translate(-452.87 -243.35)"/><path class="cls-5" d="M620.57,394.7a17.73,17.73,0,0,1,5.64.77,8.83,8.83,0,0,1,3.61,2.2,8.22,8.22,0,0,1,1.92,3.49,16.93,16.93,0,0,1,.56,4.55v15.88c-1.09.24-2.61.52-4.55.85a44.5,44.5,0,0,1-7.07.48,22.29,22.29,0,0,1-4.74-.46,10.09,10.09,0,0,1-3.66-1.51,6.89,6.89,0,0,1-2.36-2.74,9.39,9.39,0,0,1-.82-4.15,7.85,7.85,0,0,1,.95-4,7.36,7.36,0,0,1,2.53-2.61,11.42,11.42,0,0,1,3.64-1.41,20.42,20.42,0,0,1,4.25-.44,25.59,25.59,0,0,1,2.64.13,13.24,13.24,0,0,1,1.87.33v-.71a4.22,4.22,0,0,0-1.18-3.13c-.79-.78-2.15-1.18-4.1-1.18a25.92,25.92,0,0,0-3.84.29,16.28,16.28,0,0,0-3.28.79l-1-6.15c.44-.13,1-.28,1.67-.43s1.39-.29,2.17-.41,1.62-.22,2.49-.31S619.69,394.7,620.57,394.7Zm.62,22.33c.75,0,1.47,0,2.15,0a13.84,13.84,0,0,0,1.64-.15V411c-.31-.07-.77-.13-1.38-.2a15.22,15.22,0,0,0-1.69-.11,16.12,16.12,0,0,0-2,.13,5.38,5.38,0,0,0-1.66.49,2.83,2.83,0,0,0-1.13,1,2.74,2.74,0,0,0-.41,1.54,2.6,2.6,0,0,0,1.21,2.48A6.64,6.64,0,0,0,621.19,417Z" transform="translate(-452.87 -243.35)"/><path class="cls-5" d="M650,422.87a19,19,0,0,1-5.4-.71,8.11,8.11,0,0,1-3.28-1.87,6.23,6.23,0,0,1-1.64-2.92,15.86,15.86,0,0,1-.43-3.87V383.84l7.63-1.22V412a10.34,10.34,0,0,0,.15,1.85,3.27,3.27,0,0,0,.59,1.38,3.08,3.08,0,0,0,1.26.92,6.6,6.6,0,0,0,2.2.46Z" transform="translate(-452.87 -243.35)"/><path class="cls-5" d="M668.21,422.36V386.87h24v6.71h-16v7h14.18v6.56H676.2v8.55h17.16v6.71Z" transform="translate(-452.87 -243.35)"/><path class="cls-5" d="M698.73,396.34a45,45,0,0,1,5-1,41.84,41.84,0,0,1,6.46-.48,15.7,15.7,0,0,1,5.71.89,8.55,8.55,0,0,1,3.61,2.54,9.75,9.75,0,0,1,1.89,3.89,20.5,20.5,0,0,1,.57,5v15.21h-7.64V408.07q0-3.69-1-5.22c-.65-1-1.86-1.54-3.63-1.54-.55,0-1.13,0-1.75.08s-1.16.11-1.64.18v20.79h-7.63Z" transform="translate(-452.87 -243.35)"/><path class="cls-5" d="M738.58,394.7a17.71,17.71,0,0,1,5.63.77,8.81,8.81,0,0,1,3.62,2.2,8.22,8.22,0,0,1,1.92,3.49,17.34,17.34,0,0,1,.56,4.55v15.88c-1.09.24-2.61.52-4.56.85a44.41,44.41,0,0,1-7.07.48,22.29,22.29,0,0,1-4.74-.46,10.23,10.23,0,0,1-3.66-1.51,6.86,6.86,0,0,1-2.35-2.74,9.39,9.39,0,0,1-.82-4.15,7.85,7.85,0,0,1,.94-4,7.39,7.39,0,0,1,2.54-2.61,11.42,11.42,0,0,1,3.64-1.41,20.35,20.35,0,0,1,4.25-.44,25.59,25.59,0,0,1,2.64.13,13.51,13.51,0,0,1,1.87.33v-.71a4.26,4.26,0,0,0-1.18-3.13c-.79-.78-2.15-1.18-4.1-1.18a25.72,25.72,0,0,0-3.84.29,16,16,0,0,0-3.28.79l-1-6.15c.44-.13,1-.28,1.66-.43s1.39-.29,2.18-.41,1.61-.22,2.48-.31S737.69,394.7,738.58,394.7Zm.61,22.33c.76,0,1.47,0,2.16,0a13.84,13.84,0,0,0,1.64-.15V411c-.31-.07-.77-.13-1.39-.2a15.07,15.07,0,0,0-1.69-.11,16,16,0,0,0-2,.13,5.45,5.45,0,0,0-1.67.49,2.87,2.87,0,0,0-1.12,1,2.66,2.66,0,0,0-.41,1.54,2.62,2.62,0,0,0,1.2,2.48A6.64,6.64,0,0,0,739.19,417Z" transform="translate(-452.87 -243.35)"/><path class="cls-5" d="M782.27,408.89a17.07,17.07,0,0,1-.95,5.84,12.27,12.27,0,0,1-2.74,4.46,12,12,0,0,1-4.4,2.84,16.74,16.74,0,0,1-5.94,1c-.93,0-1.89,0-2.9-.13s-2-.2-3-.33-1.9-.3-2.79-.49-1.67-.38-2.36-.59V383.84l7.63-1.22V396a14.65,14.65,0,0,1,2.67-.88,14,14,0,0,1,3-.3,12.11,12.11,0,0,1,5.07,1,9.85,9.85,0,0,1,3.69,2.84,12.77,12.77,0,0,1,2.25,4.43A20.22,20.22,0,0,1,782.27,408.89Zm-7.79-.2q0-7.38-5.43-7.38a8.83,8.83,0,0,0-2.33.31,6.54,6.54,0,0,0-1.87.77v13.88q.57.09,1.44.18c.58.05,1.21.07,1.89.07a5.48,5.48,0,0,0,4.72-2.15A9.39,9.39,0,0,0,774.48,408.69Z" transform="translate(-452.87 -243.35)"/><path class="cls-5" d="M798.91,422.87a19,19,0,0,1-5.4-.71,8.18,8.18,0,0,1-3.28-1.87,6.23,6.23,0,0,1-1.64-2.92,15.86,15.86,0,0,1-.43-3.87V383.84l7.63-1.22V412a10.34,10.34,0,0,0,.15,1.85,3.27,3.27,0,0,0,.59,1.38,3.08,3.08,0,0,0,1.26.92,6.6,6.6,0,0,0,2.2.46Z" transform="translate(-452.87 -243.35)"/><path class="cls-5" d="M803.06,409.1a16.38,16.38,0,0,1,1.11-6.28,13.37,13.37,0,0,1,2.89-4.48,11.86,11.86,0,0,1,4.12-2.71,12.84,12.84,0,0,1,4.79-.93,11.92,11.92,0,0,1,9.07,3.51q3.33,3.51,3.33,10.32c0,.45,0,.93-.06,1.46s-.06,1-.1,1.41H810.9a5.06,5.06,0,0,0,2.2,3.74,8.88,8.88,0,0,0,5.23,1.38,22.55,22.55,0,0,0,4.12-.38,15.4,15.4,0,0,0,3.3-.95l1,6.2a10.73,10.73,0,0,1-1.64.61,19.19,19.19,0,0,1-2.28.54c-.84.15-1.73.28-2.69.38a25.1,25.1,0,0,1-2.87.16A16.89,16.89,0,0,1,811,422a12.27,12.27,0,0,1-4.46-2.94,11.7,11.7,0,0,1-2.61-4.43A17.65,17.65,0,0,1,803.06,409.1ZM821,406.18a8.14,8.14,0,0,0-.33-1.9,4.88,4.88,0,0,0-.87-1.64,4.72,4.72,0,0,0-1.49-1.18,4.94,4.94,0,0,0-2.23-.46,5.14,5.14,0,0,0-2.2.44,4.58,4.58,0,0,0-1.54,1.15,5.06,5.06,0,0,0-.94,1.67,10,10,0,0,0-.49,1.92Z" transform="translate(-452.87 -243.35)"/><path class="cls-5" d="M858,421.49c-.68.21-1.47.4-2.35.59s-1.82.35-2.8.49-2,.24-3,.33-2,.13-2.89.13a16.89,16.89,0,0,1-5.94-1,11.92,11.92,0,0,1-4.41-2.79,12.16,12.16,0,0,1-2.74-4.4A16.88,16.88,0,0,1,833,409a20.1,20.1,0,0,1,.82-5.91,13,13,0,0,1,2.36-4.48,10,10,0,0,1,3.77-2.82,12.56,12.56,0,0,1,5.09-1,12.19,12.19,0,0,1,2.84.3,15.33,15.33,0,0,1,2.54.88v-12.2l7.63-1.22Zm-17.26-12.8a9.33,9.33,0,0,0,1.59,5.68,5.47,5.47,0,0,0,4.71,2.15c.68,0,1.31,0,1.9-.07s1-.12,1.43-.18V402.39a6.42,6.42,0,0,0-1.87-.77,8.83,8.83,0,0,0-2.33-.31Q840.76,401.31,840.76,408.69Z" transform="translate(-452.87 -243.35)"/><path class="cls-5" d="M566.41,475.36V439.87h24v6.71h-16v7h14.19v6.56H574.4v8.55h17.16v6.71Z" transform="translate(-452.87 -243.35)"/><path class="cls-5" d="M620.09,474.49c-.69.21-1.47.4-2.36.59s-1.82.35-2.79.49-2,.24-3,.33-2,.13-2.89.13a17,17,0,0,1-6-1,11.8,11.8,0,0,1-4.4-2.79,12,12,0,0,1-2.74-4.4,16.88,16.88,0,0,1-1-5.82,20.1,20.1,0,0,1,.82-5.91,12.83,12.83,0,0,1,2.36-4.48,10.09,10.09,0,0,1,3.76-2.82,12.64,12.64,0,0,1,5.1-1,12.25,12.25,0,0,1,2.84.3,15.65,15.65,0,0,1,2.54.88v-12.2l7.63-1.22Zm-17.26-12.8a9.33,9.33,0,0,0,1.59,5.68,5.45,5.45,0,0,0,4.71,2.15c.68,0,1.31,0,1.89-.07s1.06-.12,1.44-.18V455.39a6.42,6.42,0,0,0-1.87-.77,8.83,8.83,0,0,0-2.33-.31Q602.83,454.31,602.83,461.69Z" transform="translate(-452.87 -243.35)"/><path class="cls-5" d="M650.25,474.44a40.27,40.27,0,0,1-5,1.05,41.81,41.81,0,0,1-6.46.49,15.19,15.19,0,0,1-5.71-.93,8.62,8.62,0,0,1-3.61-2.58,10,10,0,0,1-1.89-4,21.15,21.15,0,0,1-.57-5.07v-15h7.63v14.09a10.87,10.87,0,0,0,1,5.32c.64,1.1,1.86,1.64,3.63,1.64.55,0,1.13,0,1.74-.08s1.17-.11,1.64-.18V448.42h7.63Z" transform="translate(-452.87 -243.35)"/><path class="cls-5" d="M656.14,461.89a16,16,0,0,1,1-5.51,12.9,12.9,0,0,1,7.1-7.55A14.35,14.35,0,0,1,670,447.7a18.37,18.37,0,0,1,7.42,1.49l-1.59,6.09a18.68,18.68,0,0,0-2.35-.71,12.08,12.08,0,0,0-2.87-.31,6.06,6.06,0,0,0-5,2.1,8.63,8.63,0,0,0-1.66,5.53,8.94,8.94,0,0,0,1.56,5.63c1,1.34,2.86,2,5.46,2a18.78,18.78,0,0,0,3-.25,12.89,12.89,0,0,0,2.92-.82l1.07,6.25a18.79,18.79,0,0,1-3.33,1,22.17,22.17,0,0,1-4.4.41,16.63,16.63,0,0,1-6.35-1.1,12,12,0,0,1-4.38-3,11.62,11.62,0,0,1-2.51-4.48A19,19,0,0,1,656.14,461.89Z" transform="translate(-452.87 -243.35)"/><path class="cls-5" d="M691.43,447.7a17.73,17.73,0,0,1,5.64.77,8.83,8.83,0,0,1,3.61,2.2,8.22,8.22,0,0,1,1.92,3.49,16.93,16.93,0,0,1,.56,4.55v15.88c-1.09.24-2.61.52-4.55.85a44.5,44.5,0,0,1-7.07.48,22.29,22.29,0,0,1-4.74-.46,10.09,10.09,0,0,1-3.66-1.51,6.89,6.89,0,0,1-2.36-2.74,9.39,9.39,0,0,1-.82-4.15,7.85,7.85,0,0,1,.95-4,7.36,7.36,0,0,1,2.53-2.61,11.42,11.42,0,0,1,3.64-1.41,20.42,20.42,0,0,1,4.25-.44,25.59,25.59,0,0,1,2.64.13,13.24,13.24,0,0,1,1.87.33v-.71a4.22,4.22,0,0,0-1.18-3.13c-.78-.78-2.15-1.18-4.1-1.18a25.92,25.92,0,0,0-3.84.29,16.28,16.28,0,0,0-3.28.79l-1-6.15c.45-.13,1-.28,1.67-.43s1.39-.29,2.17-.41,1.62-.22,2.49-.31S690.55,447.7,691.43,447.7Zm.62,22.33c.75,0,1.47,0,2.15,0a13.84,13.84,0,0,0,1.64-.15V464c-.31-.07-.77-.13-1.38-.2a15.22,15.22,0,0,0-1.69-.11,16.24,16.24,0,0,0-2,.13,5.38,5.38,0,0,0-1.66.49,2.83,2.83,0,0,0-1.13,1,2.74,2.74,0,0,0-.41,1.54,2.6,2.6,0,0,0,1.21,2.48A6.64,6.64,0,0,0,692.05,470Z" transform="translate(-452.87 -243.35)"/><path class="cls-5" d="M709.82,441.71l7.63-1.23v7.94h9.17v6.35h-9.17v9.48a7.59,7.59,0,0,0,.85,3.84c.56,1,1.7,1.43,3.41,1.43a14,14,0,0,0,2.53-.23,12.13,12.13,0,0,0,2.38-.64l1.08,5.94a22.18,22.18,0,0,1-3.07,1,18.11,18.11,0,0,1-4.15.41,13.75,13.75,0,0,1-5.18-.85,8.12,8.12,0,0,1-3.28-2.36,8.74,8.74,0,0,1-1.71-3.66,21.23,21.23,0,0,1-.49-4.76Z" transform="translate(-452.87 -243.35)"/><path class="cls-5" d="M741.17,440.63a4.2,4.2,0,0,1-1.36,3.31,4.87,4.87,0,0,1-6.4,0,4.7,4.7,0,0,1,0-6.61,4.87,4.87,0,0,1,6.4,0A4.21,4.21,0,0,1,741.17,440.63Zm-.72,34.73h-7.63V448.42h7.63Z" transform="translate(-452.87 -243.35)"/><path class="cls-5" d="M772.82,461.84a17.61,17.61,0,0,1-.92,5.81,12.77,12.77,0,0,1-2.67,4.51,11.88,11.88,0,0,1-4.17,2.89,13.81,13.81,0,0,1-5.46,1,13.64,13.64,0,0,1-5.4-1,11.88,11.88,0,0,1-4.17-2.89,13.33,13.33,0,0,1-2.72-4.51,16.63,16.63,0,0,1-1-5.81,16,16,0,0,1,1-5.79,13.14,13.14,0,0,1,2.76-4.45,12.41,12.41,0,0,1,4.2-2.87,13.39,13.39,0,0,1,5.3-1,13.59,13.59,0,0,1,5.36,1,12.1,12.1,0,0,1,4.17,2.87,13.06,13.06,0,0,1,2.72,4.45A16.66,16.66,0,0,1,772.82,461.84Zm-7.79,0a9.67,9.67,0,0,0-1.4-5.56,5,5,0,0,0-8.07,0,9.44,9.44,0,0,0-1.44,5.56,9.67,9.67,0,0,0,1.44,5.61,5,5,0,0,0,8.07,0A9.91,9.91,0,0,0,765,461.84Z" transform="translate(-452.87 -243.35)"/><path class="cls-5" d="M778.71,449.34a45,45,0,0,1,5-1,41.8,41.8,0,0,1,6.45-.48,15.67,15.67,0,0,1,5.71.89,8.49,8.49,0,0,1,3.61,2.54,9.9,9.9,0,0,1,1.9,3.89,21,21,0,0,1,.56,5v15.21h-7.63V461.07q0-3.69-1-5.22c-.65-1-1.86-1.54-3.64-1.54-.55,0-1.13,0-1.74.08s-1.16.11-1.64.18v20.79h-7.63Z" transform="translate(-452.87 -243.35)"/></svg>