<?xml version="1.0" encoding="utf-8"?>
<!-- Generator: Adobe Illustrator 23.0.1, SVG Export Plug-In . SVG Version: 6.00 Build 0)  -->
<svg version="1.1" id="Layer_1" xmlns="http://www.w3.org/2000/svg" xmlns:xlink="http://www.w3.org/1999/xlink" x="0px" y="0px"
	 viewBox="0 0 701.5 341.5" style="enable-background:new 0 0 701.5 341.5;" xml:space="preserve">
<style type="text/css">
	.st0{fill:#F6F6F6;}
	.st1{fill:#272C6C;}
	.st2{fill:#B5C738;}
	.st3{fill:#1E96D1;}
	.st4{fill:#2A2E6C;}
</style>
<title>socialnoticelogo</title>
<path class="st0" d="M239.3,314.4l-0.1,0.4L239.3,314.4c0.6-11.5-1.3-22.8-4.1-33.9c-9-35.5-28.4-65-53.3-91.1
	c-23.3-24.5-50.4-43.8-79.6-60.6c-2.7-1.6-3.7-2.6-1.9-5.9c17.9-31.7,35.6-63.5,53.2-95.4c1.6-2.9,3.1-3.4,6.2-2.3
	c16.5,5.8,30.5,15.4,43.5,26.7l-0.8,0.9c-1.6-0.3-3.3-0.5-4.9-0.8c-15.2-3.1-30.8-3.9-46.2-2.2c-2.7,0.3-5.3,0.3-7.1,3.5
	c-12.7,23.2-25.6,46.3-38.6,69.3c-1.4,2.5-1,3.6,1.4,5c6.6,3.8,13.2,7.7,19.6,11.9c2.7,1.8,4.5,1.9,7.4,0
	c25.5-16.1,58.8-11.8,79.4,10.2c19.4,20.9,22.5,50,7.6,75.2c-1.8,3-1.7,5.1,0,8c7.6,12.5,13.6,26,17.7,40
	c3.9,12.9,5.9,26.2,6.1,39.6c0.7,0,1.1,0.1,1.3,0c0.6-0.3,1.2-0.6,1.7-1c34.2-23.5,54.9-56,61.4-96.6c10.3-64.3-23.7-126.3-82.5-153
	c-1.1-0.5-2.8-2.1-3.6-1c-1.7,2.4-2,0.4-2.7-0.5c-20-23.5-43.9-43.5-70.6-59C146.2-1.2,145,0,143,3.6
	c-22.8,42.1-45.7,84.2-68.8,126.2c-2,3.7-1.6,4.9,2.1,6.7c38.4,18.2,73.1,41.7,103.1,71.9c28.7,28.8,50.3,61.9,58.9,102.3
	c-1,0-1.3-0.7-1.7-1.5c-7.5-17.7-17.6-33.9-29.1-49.4c-18.4-24.9-41.1-46.3-67-63.3c-28.1-18.7-59.2-32.3-92-40.2
	c-3.2-0.8-5-1.7-2.9-5.8c15.4-29.3,30.4-58.8,45.7-88.2c3.3-6.3,3.4-6.1,10.5-4.1c2.1,0.6,5,2.4,6.5-1c1.2-2.5,2.5-5,4-7.4
	c1.3-2.3,1.3-4.1-1.7-5.5c-7.6-3.7-15.1-7.7-22.4-11.8c-3-1.7-4-1-5.5,1.9C60.9,75.9,39,117.5,17.1,159c-4.1,7.8-4.1,7.8,4.4,9.7
	c23.3,5.2,46,12.7,67.7,22.4C139,213.4,181.8,245,217,286.8c3.4,4.1,7.9,7.5,9.8,12.7c-1.2,0.1-1.6-1-2.3-1.6
	c-25.2-26.3-54.9-47.7-87.7-63.4c-30.7-14.8-63.6-24.9-97.3-29.8c-3.9-0.6-4.3-1.7-2.7-5c2.6-5.4,4.7-11,7.3-16.4
	c0.9-2,0.9-3-1.4-3.6c-5.6-1.4-11.3-2.9-16.9-4.5c-1.9-0.6-2.6-0.1-3.4,1.6C15.2,191.5,8,206.3,0.7,221c-1.3,2.5-0.9,3.1,1.9,3
	c28.4-1.2,56.1,3,83.4,10.1c54,14,101.8,40.1,145,75.1c1.2,1,2.1,2.7,4.1,2.5c0.8,1.6,1.4,3.9,4,2.2
	C239.1,314,239.2,314.2,239.3,314.4z M236,320c-0.8-0.8-1.2-1.3-1.7-1.8c-61.1-51.3-130.4-83.5-210.8-89.6c-3.3-0.3-3.4,0.8-2.8,3.5
	c3.2,13.5,7.8,26.7,15.9,37.9c6.8,9.5,8.7,18.7,5.1,29.5c-0.6,2.2-1.1,4.5-1.4,6.8c-2.2,11.5-4.3,23.1-6.5,35.1
	c17.4-6,34.2-11.9,51-17.7c2.1-0.7,4.1-1.5,6.6-0.1c18.5,10.3,39.2,16.3,60.3,17.4C181.8,342.8,209.7,335.8,236,320z"/>
<path class="st1" d="M238.4,310.6c-8.6-40.5-30.2-73.5-58.9-102.3c-30-30.1-64.8-53.7-103.1-71.9c-3.8-1.8-4.1-3-2.1-6.7
	c23.1-42,46-84,68.8-126.1c2-3.6,3.2-4.7,7.3-2.3c26.7,15.5,50.5,35.5,70.6,59c0.7,0.8,1,2.8,2.7,0.5c0.7-1.1,2.4,0.5,3.6,1
	c58.8,26.7,92.8,88.7,82.5,152.9c-6.5,40.7-27.3,73.1-61.4,96.6c-0.5,0.4-1.1,0.7-1.7,1c-0.3,0.1-0.6,0-1.3,0
	c-0.2-13.4-2.3-26.8-6.1-39.6c-4.2-14-10.2-27.5-17.8-40c-1.7-2.9-1.8-5,0-8c14.8-25.2,11.8-54.3-7.6-75.2
	c-20.6-22-53.9-26.3-79.4-10.2c-2.9,1.8-4.7,1.7-7.4,0c-6.4-4.2-13-8.1-19.6-11.9c-2.4-1.4-2.8-2.5-1.4-5
	c13-23.1,25.8-46.2,38.6-69.3c1.8-3.2,4.4-3.2,7.1-3.5c15.4-1.6,31-0.9,46.2,2.2c1.6,0.3,3.3,0.6,4.9,0.8c0.5,0.6,1.3,0.9,1.7,0.4
	c0.6-0.7-0.6-0.8-0.9-1.3c-13-11.3-27-20.9-43.5-26.7c-3.2-1.1-4.6-0.6-6.2,2.3c-17.6,31.9-35.4,63.7-53.2,95.4
	c-1.8,3.3-0.9,4.3,1.9,5.9c29.1,16.7,56.3,36.1,79.6,60.6c24.9,26.3,44.2,55.8,53.2,91.3c2.8,11.1,4.7,22.5,4,34l0.1-0.1
	c-0.1-0.2-0.2-0.4-0.2-0.5C239.1,312.7,239.5,311.5,238.4,310.6z"/>
<path class="st1" d="M236,320c-26.3,15.8-54.2,22.9-84.4,21.1c-21.2-1.1-41.8-7.1-60.3-17.4c-2.5-1.4-4.4-0.6-6.6,0.1
	c-16.8,5.8-33.6,11.6-51,17.7c2.2-12,4.4-23.6,6.5-35.1c0.3-2.3,0.8-4.6,1.4-6.8c3.6-10.8,1.8-20-5.1-29.5
	c-8.1-11.2-12.7-24.4-15.9-38c-0.6-2.7-0.5-3.7,2.8-3.5c80.4,6.1,149.6,38.3,210.8,89.6C234.8,318.6,235.2,319.2,236,320z"/>
<path class="st2" d="M238.4,310.6c1.1,0.9,0.7,2.1,0.7,3.2c-2.6,1.6-3.2-0.6-4-2.2c-1.2-3.5-4.2-5.7-6.1-8.7c-0.1,0-0.2-0.2-0.2-0.5
	v0.1c-0.1-0.8,0.2-1.8-1-2l0.1,0.1c-0.4-0.4-0.7-0.7-1.1-1.1l0.1,0.1c-1.9-5.3-6.4-8.6-9.8-12.7c-35.1-41.8-78-73.4-127.8-95.7
	c-21.8-9.7-44.5-17.3-67.7-22.4c-8.5-1.9-8.5-1.9-4.4-9.7c21.9-41.6,43.8-83.2,65.6-124.8c1.5-2.9,2.6-3.5,5.5-1.9
	c7.4,4.1,14.8,8.1,22.4,11.8c3.1,1.5,3,3.3,1.7,5.5c-1.5,2.4-2.8,4.9-4,7.4c-1.5,3.5-4.4,1.6-6.5,1c-7.1-2-7.2-2.2-10.5,4.1
	c-15.2,29.4-30.3,58.9-45.7,88.2c-2.1,4-0.3,5,2.9,5.8c32.8,8,63.9,21.6,91.9,40.2c25.9,17,48.6,38.4,67,63.3
	c11.5,15.5,21.6,31.7,29.1,49.4C237.1,310,237.4,310.6,238.4,310.6z"/>
<path class="st3" d="M229,303c1.9,3,4.8,5.2,6.1,8.7c-2,0.2-2.8-1.5-4.1-2.5c-43.2-35-91-61.1-145-75.1C58.7,226.9,31,222.8,2.6,224
	c-2.8,0.1-3.2-0.5-1.9-3c7.3-14.7,14.6-29.5,21.7-44.3c0.8-1.6,1.5-2.1,3.4-1.6c5.6,1.6,11.2,3.1,16.9,4.5c2.3,0.6,2.3,1.6,1.4,3.6
	c-2.5,5.4-4.7,11-7.3,16.4c-1.6,3.3-1.2,4.4,2.7,5c33.7,5,66.5,15.1,97.3,29.9c32.8,15.7,62.5,37.2,87.7,63.5
	c0.6,0.7,1.1,1.7,2.3,1.6l-0.1-0.1c-0.1,0.8,0.1,1.3,1.1,1.1l-0.1-0.1c-0.4,1,0.4,1.5,1,2v-0.1C228.9,302.6,229,302.8,229,303z"/>
<path class="st2" d="M239.3,314.4L239.3,314.4l-0.1,0.4L239.3,314.4z"/>
<path class="st0" d="M291.4,38.9c0.3,0.5,1.4,0.6,0.8,1.3c-0.4,0.5-1.2,0.2-1.7-0.4L291.4,38.9z"/>
<path class="st0" d="M228.8,302.5c-0.6-0.5-1.4-1-1-2C229,300.7,228.7,301.7,228.8,302.5z"/>
<path class="st0" d="M229,303c0-0.2-0.1-0.3-0.2-0.5C228.8,302.8,228.9,302.9,229,303z"/>
<path class="st4" d="M362.2,153.3c2.1,0,4.3-0.2,6.3-0.6c1.4-0.3,2.8-0.9,4-1.7c0.9-0.7,1.7-1.6,2.1-2.6c0.4-1.1,0.6-2.2,0.6-3.4
	c0-2.7-1.4-5.2-3.7-6.6c-2.5-1.7-6.8-3.6-12.8-5.6c-2.6-0.9-5.3-2-7.9-3.2c-2.6-1.2-5-2.7-7.1-4.5c-2.1-1.9-3.9-4.1-5.1-6.6
	c-1.4-3-2.1-6.2-2-9.5c-0.1-3.5,0.7-6.9,2.1-10.1c1.4-3,3.4-5.6,5.9-7.6c2.8-2.2,5.9-3.8,9.3-4.8c4-1.2,8.2-1.7,12.3-1.7
	c4.8-0.1,9.5,0.5,14.1,1.8c3.4,0.9,6.7,2.2,9.8,3.8l-5.2,14.3c-2.4-1.2-4.9-2.3-7.5-3.1c-3.2-1-6.6-1.4-10-1.3
	c-4.3,0-7.5,0.6-9.4,1.8c-1.9,1.2-3,3.3-2.8,5.5c-0.1,1.3,0.3,2.6,1,3.7c0.8,1.1,1.8,2,3,2.7c1.4,0.9,2.9,1.6,4.4,2.2
	c1.7,0.7,3.5,1.3,5.5,2c3.7,1.3,7.4,2.9,10.9,4.6c2.8,1.3,5.5,3.1,7.7,5.3c2,2,3.6,4.4,4.6,7.1c1.1,3.2,1.6,6.5,1.5,9.9
	c0,7.5-2.6,13.4-7.9,17.5s-13.2,6.2-23.8,6.2c-3.2,0-6.5-0.2-9.7-0.6c-2.6-0.4-5.1-0.9-7.6-1.6c-1.9-0.5-3.8-1.2-5.7-2
	c-1.4-0.6-2.7-1.3-4-2l5.1-14.4C347,151.6,354.6,153.4,362.2,153.3L362.2,153.3z"/>
<path class="st4" d="M463.8,136.4c0.1,4.5-0.7,9-2.1,13.2c-1.3,3.8-3.3,7.3-6,10.2c-2.7,2.8-5.9,5.1-9.5,6.6
	c-3.9,1.6-8.1,2.4-12.4,2.3c-4.2,0.1-8.4-0.7-12.3-2.3c-3.6-1.5-6.8-3.7-9.5-6.6c-2.7-3-4.8-6.4-6.2-10.2c-1.5-4.2-2.3-8.7-2.2-13.2
	c-0.1-4.5,0.7-8.9,2.3-13.2c1.4-3.8,3.5-7.2,6.3-10.1c2.7-2.8,5.9-5,9.5-6.5c7.8-3.1,16.4-3.1,24.2,0c3.6,1.5,6.8,3.7,9.5,6.5
	c2.7,2.9,4.8,6.4,6.2,10.1C463.1,127.5,463.8,131.9,463.8,136.4z M446.1,136.4c0-5.3-1.1-9.5-3.2-12.6c-2-3-5.5-4.7-9.1-4.6
	c-3.6-0.2-7.1,1.6-9.2,4.6c-2.2,3.1-3.3,7.3-3.3,12.6c0,5.3,1.1,9.6,3.3,12.7c2,3.1,5.5,4.9,9.2,4.7c3.7,0.1,7.1-1.6,9.1-4.7
	C445,146,446.1,141.7,446.1,136.4z"/>
<path class="st4" d="M474,136.5c0-4.3,0.7-8.5,2.2-12.5c2.7-7.7,8.6-13.9,16.1-17.1c4.2-1.8,8.7-2.6,13.3-2.6c3,0,6,0.3,9,0.9
	c2.7,0.6,5.4,1.4,7.9,2.5l-3.6,13.8c-1.7-0.7-3.5-1.2-5.3-1.6c-2.1-0.5-4.3-0.7-6.5-0.7c-5.1,0-8.9,1.6-11.5,4.8
	c-2.5,3.2-3.8,7.4-3.8,12.6c0,5.5,1.2,9.8,3.5,12.8c2.4,3,6.5,4.5,12.4,4.5c2.3,0,4.5-0.2,6.8-0.6c2.3-0.4,4.5-1,6.6-1.9l2.4,14.2
	c-2.4,1-5,1.7-7.6,2.2c-3.3,0.6-6.6,1-10,0.9c-4.9,0.1-9.8-0.7-14.4-2.5c-3.8-1.5-7.2-3.8-9.9-6.8c-2.6-2.9-4.6-6.4-5.7-10.2
	C474.6,145.1,474,140.8,474,136.5z"/>
<path class="st4" d="M553.8,88.2c0.1,2.8-1,5.6-3.1,7.5c-4.2,3.7-10.4,3.7-14.5,0c-4.1-4.2-4.1-10.8,0-15c4.2-3.7,10.4-3.7,14.5,0
	C552.8,82.7,553.9,85.4,553.8,88.2z M552.2,167.1h-17.3v-61.2h17.3V167.1z"/>
<path class="st4" d="M590.2,104.3c4.3-0.1,8.7,0.5,12.8,1.7c3.1,1,5.9,2.7,8.2,5c2.1,2.2,3.6,5,4.4,7.9c0.9,3.4,1.3,6.9,1.3,10.4
	v36.1c-2.5,0.5-5.9,1.2-10.3,1.9c-5.3,0.8-10.7,1.2-16.1,1.1c-3.6,0-7.2-0.3-10.8-1c-3-0.6-5.8-1.8-8.3-3.4
	c-2.3-1.6-4.2-3.7-5.3-6.2c-1.3-3-2-6.2-1.9-9.4c-0.1-3.2,0.6-6.3,2.2-9.1c1.4-2.4,3.4-4.5,5.8-5.9c2.6-1.5,5.3-2.6,8.3-3.2
	c3.2-0.7,6.4-1,9.7-1c2,0,4,0.1,6,0.3c1.4,0.1,2.8,0.4,4.2,0.8v-1.6c0.1-2.6-0.8-5.2-2.7-7.1c-1.8-1.8-4.9-2.7-9.3-2.7
	c-2.9,0-5.8,0.2-8.7,0.6c-2.5,0.3-5,1-7.5,1.8l-2.2-13.9c1-0.3,2.3-0.6,3.8-1c1.5-0.4,3.2-0.7,5-0.9s3.7-0.5,5.6-0.7
	S588.2,104.3,590.2,104.3z M591.6,155c1.7,0,3.3,0,4.9-0.1c1.2,0,2.5-0.2,3.7-0.4v-13.1c-1-0.2-2.1-0.4-3.1-0.5
	c-1.3-0.1-2.6-0.2-3.8-0.2c-1.5,0-3.1,0.1-4.6,0.3c-1.3,0.2-2.6,0.5-3.8,1.1c-1,0.5-1.9,1.3-2.6,2.2c-0.7,1-1,2.3-0.9,3.5
	c0,2.7,0.9,4.6,2.7,5.6C586.4,154.6,589,155.1,591.6,155z"/>
<path class="st4" d="M656.7,168.3c-4.1,0-8.3-0.5-12.3-1.6c-2.8-0.8-5.3-2.3-7.5-4.3c-1.8-1.8-3.1-4.1-3.7-6.6c-0.7-2.9-1-5.8-1-8.8
	V79.6l17.3-2.8v66.7c0,1.4,0.1,2.8,0.3,4.2c0.3,2.4,1.9,4.4,4.2,5.2c1.6,0.6,3.3,1,5,1L656.7,168.3z"/>
<path class="st4" d="M394.3,272.1c-5.2-9.2-10.8-18.3-16.9-27.3c-5.9-8.9-12.4-17.4-19.3-25.5v52.8h-17.9v-80.6H355
	c2.6,2.6,5.4,5.7,8.5,9.4s6.3,7.7,9.5,11.9c3.2,4.2,6.4,8.6,9.6,13.1c3.2,4.5,6.2,8.9,9,13.1v-47.6h18v80.6H394.3z"/>
<path class="st4" d="M484,241.4c0,4.5-0.7,8.9-2.1,13.2c-1.3,3.8-3.3,7.3-6,10.2c-2.7,2.8-5.9,5.1-9.5,6.6
	c-3.9,1.6-8.1,2.4-12.4,2.3c-4.2,0.1-8.4-0.7-12.3-2.3c-3.6-1.5-6.8-3.7-9.5-6.6c-2.7-3-4.8-6.4-6.2-10.2c-1.5-4.2-2.2-8.7-2.2-13.2
	c-0.1-4.5,0.7-8.9,2.3-13.1c1.4-3.8,3.5-7.2,6.3-10.1c2.7-2.8,5.9-5,9.5-6.5c7.8-3.1,16.4-3.1,24.2,0c3.6,1.5,6.8,3.7,9.5,6.5
	c2.7,2.9,4.8,6.4,6.2,10.1C483.3,232.5,484.1,236.9,484,241.4z M466.3,241.4c0-5.3-1.1-9.5-3.2-12.6c-2-3-5.5-4.8-9.1-4.6
	c-3.6-0.2-7.1,1.6-9.2,4.6c-2.2,3.1-3.3,7.3-3.3,12.6c0,5.3,1.1,9.6,3.3,12.7c2,3.1,5.5,4.9,9.2,4.7c3.7,0.2,7.1-1.6,9.1-4.7
	C465.2,251,466.3,246.7,466.3,241.4L466.3,241.4z"/>
<path class="st4" d="M496.6,195.7l17.3-2.8v18h20.8v14.4h-20.8v21.5c-0.1,3,0.5,6,1.9,8.7c1.3,2.2,3.9,3.3,7.7,3.3
	c1.9,0,3.9-0.2,5.8-0.5c1.8-0.3,3.7-0.8,5.4-1.5l2.4,13.5c-2.3,0.9-4.6,1.6-7,2.2c-3.1,0.7-6.3,1-9.4,0.9c-4,0.1-8-0.5-11.8-1.9
	c-2.9-1.1-5.5-3-7.4-5.4c-1.9-2.4-3.3-5.3-3.9-8.3c-0.8-3.6-1.1-7.2-1.1-10.8L496.6,195.7z"/>
<path class="st4" d="M567.5,193.2c0.1,2.8-1,5.6-3.1,7.5c-4.2,3.7-10.4,3.7-14.5,0c-4.1-4.2-4.1-10.8,0-15c4.2-3.7,10.4-3.7,14.5,0
	C566.5,187.7,567.7,190.4,567.5,193.2z M565.9,272.1h-17.3v-61.2h17.3V272.1z"/>
<path class="st4" d="M579,241.5c0-4.3,0.7-8.5,2.2-12.5c2.7-7.7,8.6-13.9,16.1-17.1c4.2-1.8,8.7-2.6,13.3-2.6c3,0,6,0.3,9,0.9
	c2.7,0.6,5.4,1.4,7.9,2.5l-3.6,13.8c-1.7-0.7-3.5-1.2-5.3-1.6c-2.1-0.5-4.3-0.7-6.5-0.7c-5.1,0-8.9,1.6-11.5,4.8s-3.8,7.4-3.8,12.6
	c0,5.5,1.2,9.8,3.5,12.8c2.4,3,6.5,4.5,12.4,4.5c2.3,0,4.5-0.2,6.8-0.6c2.3-0.4,4.5-1,6.6-1.9l2.4,14.2c-2.5,1-5,1.7-7.6,2.2
	c-3.3,0.6-6.6,1-10,0.9c-4.9,0.1-9.8-0.7-14.4-2.5c-3.8-1.5-7.2-3.8-9.9-6.8c-2.6-2.9-4.6-6.4-5.7-10.2
	C579.6,250.1,579,245.8,579,241.5z"/>
<path class="st4" d="M634.1,242c-0.1-4.9,0.7-9.7,2.5-14.3c1.5-3.8,3.7-7.3,6.6-10.2c2.7-2.7,5.8-4.8,9.4-6.2
	c3.5-1.4,7.2-2.1,10.9-2.1c8.7,0,15.5,2.7,20.6,8c5.1,5.3,7.6,13.1,7.6,23.4c0,1,0,2.1-0.1,3.3s-0.2,2.3-0.2,3.2h-39.3
	c0.3,3.4,2.1,6.6,5,8.5c2.9,2.1,6.9,3.1,11.9,3.1c3.1,0,6.3-0.3,9.4-0.9c2.6-0.4,5.1-1.2,7.5-2.1l2.3,14c-1.2,0.6-2.4,1-3.7,1.4
	c-1.7,0.5-3.4,0.9-5.2,1.2c-1.9,0.4-3.9,0.6-6.1,0.9c-2.2,0.2-4.3,0.4-6.5,0.4c-4.9,0.1-9.8-0.7-14.4-2.4c-3.8-1.5-7.3-3.7-10.1-6.7
	c-2.7-2.9-4.7-6.3-5.9-10.1C634.7,250.5,634,246.2,634.1,242z M674.8,235.3c-0.1-1.5-0.3-2.9-0.8-4.3c-0.8-2.8-2.8-5.1-5.3-6.4
	c-1.6-0.7-3.3-1.1-5.1-1c-1.7,0-3.4,0.3-5,1c-1.3,0.6-2.5,1.5-3.5,2.6c-0.9,1.1-1.7,2.4-2.2,3.8c-0.5,1.4-0.9,2.9-1.1,4.4
	L674.8,235.3z"/>
<path class="st0" d="M227.8,300.5c-1,0.2-1.2-0.3-1.1-1.1C227.1,299.8,227.5,300.2,227.8,300.5z"/>
</svg>
