<svg id="Layer_1" data-name="Layer 1" xmlns="http://www.w3.org/2000/svg" viewBox="0 0 701.45 341.46"><defs><style>.cls-1{fill:#f6f6f6;}.cls-2{fill:#272c6c;}.cls-3{fill:#b5c738;}.cls-4{fill:#1e96d1;}.cls-5{fill:#2a2e6c;}.cls-6{fill:#b8c848;}</style></defs><title>socialnoticelogo</title><path class="cls-1" d="M519.48,451.92l-.06.42V452c.68-11.58-1.21-22.89-4-34-9-35.46-28.37-65-53.27-91.13-23.26-24.45-50.43-43.83-79.58-60.56-2.73-1.56-3.71-2.61-1.87-5.87q26.8-47.56,53.2-95.38c1.63-2.95,3.07-3.44,6.23-2.34,16.46,5.76,30.5,15.37,43.49,26.71l-.84.88c-1.64-.28-3.29-.5-4.91-.84a151.19,151.19,0,0,0-46.2-2.22c-2.67.26-5.34.26-7.1,3.46Q405.47,225.46,386,260c-1.4,2.49-1,3.61,1.4,5,6.64,3.78,13.24,7.68,19.63,11.88,2.72,1.79,4.5,1.87,7.38.05a62.71,62.71,0,0,1,79.36,10.2c19.41,20.92,22.45,50,7.6,75.18-1.77,3-1.7,5.09,0,8a172.26,172.26,0,0,1,17.75,40,144.32,144.32,0,0,1,6.14,39.62c.7,0,1.07.1,1.33,0a12.86,12.86,0,0,0,1.71-1c34.18-23.5,54.92-56,61.43-96.64C600,288,566.06,226,507.25,199.26c-1.14-.51-2.82-2.07-3.56-1-1.66,2.38-1.95.38-2.66-.46a273.45,273.45,0,0,0-70.57-59c-4.1-2.41-5.33-1.28-7.28,2.32Q389,204.32,354.41,267.3c-2,3.67-1.63,4.92,2.12,6.7,38.37,18.19,73.09,41.72,103.13,71.85,28.73,28.83,50.29,61.88,58.9,102.34-1-.05-1.33-.65-1.69-1.5-7.55-17.74-17.65-33.94-29.12-49.43a263,263,0,0,0-67-63.34,289.69,289.69,0,0,0-91.95-40.23c-3.21-.78-5-1.72-2.93-5.75,15.35-29.34,30.44-58.8,45.68-88.2,3.28-6.31,3.36-6.12,10.47-4.11,2.13.61,5,2.44,6.5-1a80.16,80.16,0,0,1,4-7.43c1.25-2.25,1.34-4.05-1.72-5.52-7.61-3.67-15.08-7.66-22.44-11.81-3-1.66-4-1-5.52,1.88q-32.66,62.49-65.58,124.84c-4.11,7.82-4.11,7.81,4.38,9.69a353.78,353.78,0,0,1,67.74,22.43C419.13,351,462,382.57,497.14,424.36c3.43,4.08,7.92,7.45,9.84,12.73-1.22.09-1.65-1-2.29-1.65A302.18,302.18,0,0,0,417,372a338.12,338.12,0,0,0-97.31-29.83c-3.89-.59-4.3-1.71-2.72-5,2.58-5.39,4.73-11,7.27-16.4.92-2,.88-3-1.4-3.6-5.63-1.43-11.27-2.85-16.85-4.5-1.88-.56-2.64-.06-3.43,1.57q-10.8,22.2-21.74,44.31c-1.25,2.52-.86,3.12,1.92,3,28.35-1.21,56.08,3,83.42,10.06,54,14,101.84,40.08,145,75.09,1.22,1,2.07,2.72,4.06,2.52.84,1.62,1.36,3.85,4,2.2A2.58,2.58,0,0,0,519.48,451.92Zm-3.3,5.61c-.78-.83-1.18-1.35-1.67-1.77-61.15-51.3-130.4-83.49-210.78-89.58-3.31-.25-3.43.79-2.79,3.46,3.23,13.53,7.81,26.73,15.91,37.95,6.83,9.47,8.71,18.7,5.06,29.48a48.78,48.78,0,0,0-1.4,6.84C318.35,455.46,316.2,467,314,479c17.41-6,34.19-11.89,51-17.69,2.14-.74,4.08-1.45,6.56-.09a139.4,139.4,0,0,0,60.32,17.4C462,480.38,489.86,473.36,516.18,457.53Z" transform="translate(-280.16 -137.55)"/><path class="cls-2" d="M518.56,448.19c-8.61-40.46-30.17-73.51-58.9-102.34-30-30.13-64.76-53.66-103.13-71.85-3.75-1.78-4.15-3-2.12-6.7q34.6-63,68.77-126.15c1.95-3.6,3.18-4.73,7.28-2.32a273.45,273.45,0,0,1,70.57,59c.71.84,1,2.84,2.66.46.74-1.07,2.42.49,3.56,1C566.06,226,600,288,589.72,352.19c-6.51,40.68-27.25,73.14-61.43,96.64a12.86,12.86,0,0,1-1.71,1c-.26.13-.63,0-1.33,0a144.32,144.32,0,0,0-6.14-39.62,172.26,172.26,0,0,0-17.75-40c-1.74-2.88-1.81-5,0-8,14.85-25.19,11.81-54.26-7.6-75.18a62.71,62.71,0,0,0-79.36-10.2c-2.88,1.82-4.66,1.74-7.38-.05-6.39-4.2-13-8.1-19.63-11.88-2.43-1.38-2.8-2.5-1.4-5q19.46-34.58,38.58-69.31c1.76-3.2,4.43-3.2,7.1-3.46a151.19,151.19,0,0,1,46.2,2.22c1.62.34,3.27.56,4.91.84.47.59,1.32.85,1.69.39.56-.7-.57-.81-.85-1.27-13-11.34-27-20.95-43.49-26.71-3.16-1.1-4.6-.61-6.23,2.34q-26.43,47.79-53.2,95.38c-1.84,3.26-.86,4.31,1.87,5.87,29.15,16.73,56.32,36.11,79.58,60.56C487,353,506.36,382.52,515.38,418c2.83,11.14,4.72,22.45,4,34l.06-.09a2.58,2.58,0,0,1-.23-.54C519.26,450.27,519.63,449.07,518.56,448.19Z" transform="translate(-280.16 -137.55)"/><path class="cls-2" d="M516.18,457.53c-26.32,15.83-54.21,22.85-84.35,21.11a139.4,139.4,0,0,1-60.32-17.4c-2.48-1.36-4.42-.65-6.56.09-16.79,5.8-33.57,11.64-51,17.69,2.23-12,4.38-23.56,6.54-35.11a48.78,48.78,0,0,1,1.4-6.84c3.65-10.78,1.77-20-5.06-29.48-8.1-11.22-12.68-24.42-15.91-37.95-.64-2.67-.52-3.71,2.79-3.46,80.38,6.09,149.63,38.28,210.78,89.58C515,456.18,515.4,456.7,516.18,457.53Z" transform="translate(-280.16 -137.55)"/><path class="cls-3" d="M518.56,448.19c1.07.88.7,2.08.69,3.19-2.64,1.65-3.16-.58-4-2.2-1.22-3.45-4.21-5.67-6.06-8.68-.11,0-.18-.18-.23-.53l0,.07c-.06-.82.19-1.8-1-2l.11.08c-.36-.37-.73-.74-1.1-1.1l.06.11c-1.92-5.28-6.41-8.65-9.84-12.73-35.14-41.79-78-73.41-127.75-95.67a353.78,353.78,0,0,0-67.74-22.43c-8.49-1.88-8.49-1.87-4.38-9.69q32.84-62.4,65.58-124.84c1.51-2.89,2.56-3.54,5.52-1.88,7.36,4.15,14.83,8.14,22.44,11.81,3.06,1.47,3,3.27,1.72,5.52a80.16,80.16,0,0,0-4,7.43c-1.48,3.46-4.37,1.63-6.5,1-7.11-2-7.19-2.2-10.47,4.11-15.24,29.4-30.33,58.86-45.68,88.2-2.11,4-.28,5,2.93,5.75a289.69,289.69,0,0,1,91.95,40.23,263,263,0,0,1,67,63.34c11.47,15.49,21.57,31.69,29.12,49.43C517.23,447.54,517.59,448.14,518.56,448.19Z" transform="translate(-280.16 -137.55)"/><path class="cls-4" d="M509.19,440.5c1.85,3,4.84,5.23,6.06,8.68-2,.2-2.84-1.52-4.06-2.52-43.17-35-91-61.1-145-75.09-27.34-7.07-55.07-11.27-83.42-10.06-2.78.12-3.17-.48-1.92-3q11-22.1,21.74-44.31c.79-1.63,1.55-2.13,3.43-1.57,5.58,1.65,11.22,3.07,16.85,4.5,2.28.58,2.32,1.62,1.4,3.6-2.54,5.41-4.69,11-7.27,16.4-1.58,3.28-1.17,4.4,2.72,5A338.12,338.12,0,0,1,417,372a302.18,302.18,0,0,1,87.67,63.49c.64.67,1.07,1.74,2.29,1.65l-.06-.11c-.06.79.15,1.31,1.1,1.1l-.11-.08c-.38,1,.42,1.49,1,2l0-.06A1.87,1.87,0,0,1,509.19,440.5Z" transform="translate(-280.16 -137.55)"/><path class="cls-3" d="M519.48,451.92l-.06.09v.33Z" transform="translate(-280.16 -137.55)"/><path class="cls-1" d="M571.58,176.41c.28.46,1.41.57.85,1.27-.37.46-1.22.2-1.69-.39Z" transform="translate(-280.16 -137.55)"/><path class="cls-1" d="M508.94,440c-.61-.55-1.41-1-1-2C509.13,438.24,508.88,439.22,508.94,440Z" transform="translate(-280.16 -137.55)"/><path class="cls-1" d="M509.19,440.5A1.87,1.87,0,0,0,509,440C509,440.32,509.08,440.49,509.19,440.5Z" transform="translate(-280.16 -137.55)"/><path class="cls-1" d="M508,438.08c-.95.21-1.16-.31-1.1-1.1C507.29,437.34,507.66,437.71,508,438.08Z" transform="translate(-280.16 -137.55)"/><path class="cls-5" d="M652.3,272.86a26,26,0,0,0,6.34-.64,11.67,11.67,0,0,0,4-1.74,5.87,5.87,0,0,0,2.1-2.62,9.49,9.49,0,0,0,.58-3.37,7.81,7.81,0,0,0-3.72-6.58q-3.74-2.61-12.8-5.64c-2.64-.93-5.27-2-7.91-3.2a29.23,29.23,0,0,1-7.1-4.53,21.79,21.79,0,0,1-5.11-6.63,20.77,20.77,0,0,1-2-9.49,23.57,23.57,0,0,1,2.09-10.06,21.62,21.62,0,0,1,5.93-7.62,27.11,27.11,0,0,1,9.31-4.82,41.54,41.54,0,0,1,12.33-1.69A50.39,50.39,0,0,1,670.45,206a51.25,51.25,0,0,1,9.77,3.84L675,224.12a49.86,49.86,0,0,0-7.5-3.08,32.54,32.54,0,0,0-10-1.34q-6.51,0-9.36,1.8a6.1,6.1,0,0,0-2.85,5.53,6.37,6.37,0,0,0,1,3.72,10,10,0,0,0,3,2.73,25,25,0,0,0,4.42,2.21q2.5,1,5.53,2a118.21,118.21,0,0,1,10.93,4.6,29.2,29.2,0,0,1,7.74,5.29,19.29,19.29,0,0,1,4.59,7.09,28.48,28.48,0,0,1,1.52,9.89q0,11.28-7.91,17.51t-23.85,6.22a65.64,65.64,0,0,1-9.66-.64,63.44,63.44,0,0,1-7.62-1.57,42.65,42.65,0,0,1-5.69-2,41.1,41.1,0,0,1-4-2l5.12-14.43a43.84,43.84,0,0,0,21.87,5.12Z" transform="translate(-280.16 -137.55)"/><path class="cls-5" d="M753.85,256a39.74,39.74,0,0,1-2.1,13.21,28.68,28.68,0,0,1-6,10.23,27.43,27.43,0,0,1-9.48,6.58,31.7,31.7,0,0,1-12.39,2.32A31.31,31.31,0,0,1,711.57,286a27.38,27.38,0,0,1-9.49-6.58,30.14,30.14,0,0,1-6.16-10.23A38,38,0,0,1,693.71,256,36.36,36.36,0,0,1,696,242.85a29.64,29.64,0,0,1,6.28-10.12,28.27,28.27,0,0,1,9.54-6.52,32.69,32.69,0,0,1,24.19,0,27.64,27.64,0,0,1,9.48,6.52,29.41,29.41,0,0,1,6.17,10.12A37.46,37.46,0,0,1,753.85,256Zm-17.68,0q0-8-3.2-12.62a10.48,10.48,0,0,0-9.13-4.59,10.6,10.6,0,0,0-9.19,4.59Q711.4,248,711.39,256t3.26,12.74a10.52,10.52,0,0,0,9.19,4.71,10.39,10.39,0,0,0,9.13-4.71Q736.17,264,736.17,256Z" transform="translate(-280.16 -137.55)"/><path class="cls-5" d="M764.08,256.11a36,36,0,0,1,2.16-12.51,29.25,29.25,0,0,1,16.11-17.15,32.51,32.51,0,0,1,13.26-2.56,43,43,0,0,1,9,.87,44,44,0,0,1,7.91,2.5l-3.61,13.84a42.86,42.86,0,0,0-5.35-1.62,27.73,27.73,0,0,0-6.52-.7q-7.66,0-11.45,4.77t-3.78,12.56q0,8.26,3.54,12.8t12.39,4.53a42.27,42.27,0,0,0,6.75-.58,29.05,29.05,0,0,0,6.63-1.86l2.44,14.19A40.81,40.81,0,0,1,806,287.4a49.87,49.87,0,0,1-10,.93,37.6,37.6,0,0,1-14.43-2.5,27.12,27.12,0,0,1-9.94-6.8,26.55,26.55,0,0,1-5.7-10.18A43,43,0,0,1,764.08,256.11Z" transform="translate(-280.16 -137.55)"/><path class="cls-5" d="M843.88,207.83a9.52,9.52,0,0,1-3.08,7.51,11,11,0,0,1-14.54,0,10.68,10.68,0,0,1,0-15,11,11,0,0,1,14.54,0A9.55,9.55,0,0,1,843.88,207.83Zm-1.63,78.87H824.92V225.52h17.33Z" transform="translate(-280.16 -137.55)"/><path class="cls-5" d="M880.29,223.89a40.3,40.3,0,0,1,12.8,1.74,20,20,0,0,1,8.2,5,18.46,18.46,0,0,1,4.36,7.91,39.24,39.24,0,0,1,1.28,10.36V285q-3.72.81-10.35,1.92a100.34,100.34,0,0,1-16.06,1.1,51.49,51.49,0,0,1-10.76-1,23.29,23.29,0,0,1-8.31-3.44,15.51,15.51,0,0,1-5.35-6.22,21.35,21.35,0,0,1-1.87-9.42,17.78,17.78,0,0,1,2.16-9.07,16.54,16.54,0,0,1,5.75-5.94,26.2,26.2,0,0,1,8.26-3.2,47,47,0,0,1,9.66-1,53.37,53.37,0,0,1,6,.29,26.24,26.24,0,0,1,4.24.75v-1.63a9.59,9.59,0,0,0-2.67-7.09q-2.68-2.69-9.31-2.68a60.18,60.18,0,0,0-8.72.64,38.23,38.23,0,0,0-7.45,1.8l-2.21-13.95q1.52-.47,3.78-1c1.52-.35,3.16-.66,4.95-.93s3.66-.51,5.64-.7S878.27,223.89,880.29,223.89Zm1.4,50.72c1.7,0,3.33,0,4.88-.12a33.31,33.31,0,0,0,3.72-.35V261a31.11,31.11,0,0,0-3.14-.47,36,36,0,0,0-3.83-.23,35,35,0,0,0-4.6.29,12,12,0,0,0-3.78,1.1,6.52,6.52,0,0,0-2.56,2.21,6.17,6.17,0,0,0-.93,3.49q0,4.08,2.73,5.65A15.2,15.2,0,0,0,881.69,274.61Z" transform="translate(-280.16 -137.55)"/><path class="cls-5" d="M946.83,287.87a43.66,43.66,0,0,1-12.27-1.63,18.24,18.24,0,0,1-7.45-4.25,14.09,14.09,0,0,1-3.72-6.63,35.71,35.71,0,0,1-1-8.78V199.23l17.33-2.79v66.65a23.09,23.09,0,0,0,.35,4.19,6.58,6.58,0,0,0,4.19,5.23,15.56,15.56,0,0,0,5,1.05Z" transform="translate(-280.16 -137.55)"/><path class="cls-5" d="M684.4,391.7q-7.78-13.83-16.86-27.33a278.63,278.63,0,0,0-19.31-25.48V391.7H630.31V311.09h14.78q3.84,3.84,8.49,9.42t9.48,11.93q4.83,6.33,9.6,13.14t9,13.09V311.09h18V391.7Z" transform="translate(-280.16 -137.55)"/><path class="cls-5" d="M774.09,361A40,40,0,0,1,772,374.2a28.84,28.84,0,0,1-6,10.23,27.14,27.14,0,0,1-9.48,6.57,31.52,31.52,0,0,1-12.39,2.33A31.13,31.13,0,0,1,731.81,391a27,27,0,0,1-9.48-6.57,30,30,0,0,1-6.17-10.23A38,38,0,0,1,714,361a36.57,36.57,0,0,1,2.27-13.14,29.79,29.79,0,0,1,6.28-10.12,28.37,28.37,0,0,1,9.54-6.52,32.69,32.69,0,0,1,24.19,0,27.64,27.64,0,0,1,9.48,6.52,29.41,29.41,0,0,1,6.17,10.12A37.46,37.46,0,0,1,774.09,361Zm-17.68,0q0-8-3.2-12.62a10.46,10.46,0,0,0-9.13-4.59,10.6,10.6,0,0,0-9.19,4.59Q731.64,353,731.63,361t3.26,12.74a10.52,10.52,0,0,0,9.19,4.71,10.38,10.38,0,0,0,9.13-4.71Q756.41,369,756.41,361Z" transform="translate(-280.16 -137.55)"/><path class="cls-5" d="M786.65,315.28,804,312.49v18h20.82v14.42H804v21.52a17.25,17.25,0,0,0,1.91,8.73q1.92,3.26,7.74,3.25a33.06,33.06,0,0,0,5.76-.52,29,29,0,0,0,5.41-1.46l2.44,13.5a49.47,49.47,0,0,1-7,2.21,40.69,40.69,0,0,1-9.42.93,31,31,0,0,1-11.75-1.92,18.4,18.4,0,0,1-7.44-5.35,19.74,19.74,0,0,1-3.9-8.32,48.89,48.89,0,0,1-1.11-10.82Z" transform="translate(-280.16 -137.55)"/><path class="cls-5" d="M857.61,312.83a9.52,9.52,0,0,1-3.08,7.51,11,11,0,0,1-14.54,0,10.66,10.66,0,0,1,0-15,11,11,0,0,1,14.54,0A9.55,9.55,0,0,1,857.61,312.83ZM856,391.7H838.65V330.52H856Z" transform="translate(-280.16 -137.55)"/><path class="cls-5" d="M869.12,361.11a36,36,0,0,1,2.16-12.51,29.25,29.25,0,0,1,16.11-17.15,32.51,32.51,0,0,1,13.26-2.56,42.86,42.86,0,0,1,9,.87,43.55,43.55,0,0,1,7.91,2.5l-3.6,13.84a42.86,42.86,0,0,0-5.35-1.62,27.73,27.73,0,0,0-6.52-.7q-7.68,0-11.46,4.77t-3.78,12.56q0,8.26,3.55,12.8t12.39,4.53a42.36,42.36,0,0,0,6.75-.58,29.05,29.05,0,0,0,6.63-1.86l2.44,14.19A41,41,0,0,1,911,392.4a49.87,49.87,0,0,1-10,.93,37.6,37.6,0,0,1-14.43-2.5,27.12,27.12,0,0,1-9.94-6.8,26.55,26.55,0,0,1-5.7-10.18A43,43,0,0,1,869.12,361.11Z" transform="translate(-280.16 -137.55)"/><path class="cls-5" d="M924.15,361.58a37.36,37.36,0,0,1,2.5-14.25,30.22,30.22,0,0,1,6.57-10.18,27.26,27.26,0,0,1,9.36-6.17,29.47,29.47,0,0,1,10.88-2.09q13,0,20.59,8t7.56,23.44c0,1,0,2.11-.12,3.31s-.15,2.27-.23,3.2H941.94a11.51,11.51,0,0,0,5,8.49q4.41,3.15,11.86,3.14a50.15,50.15,0,0,0,9.36-.87,35.42,35.42,0,0,0,7.51-2.15L978,389.49a23.87,23.87,0,0,1-3.72,1.4,50.74,50.74,0,0,1-5.17,1.22c-1.91.35-3.94.64-6.11.87a59.34,59.34,0,0,1-6.52.35,38.52,38.52,0,0,1-14.36-2.44A28,28,0,0,1,932,384.2a26.33,26.33,0,0,1-5.93-10.06A39.87,39.87,0,0,1,924.15,361.58Zm40.71-6.64a17.88,17.88,0,0,0-.76-4.3,10.38,10.38,0,0,0-5.35-6.4,11,11,0,0,0-5.06-1,11.77,11.77,0,0,0-5,1,10.38,10.38,0,0,0-3.49,2.62,11.73,11.73,0,0,0-2.15,3.78,25.13,25.13,0,0,0-1.11,4.36Z" transform="translate(-280.16 -137.55)"/><path class="cls-6" d="M638.9,432.46q6.3,0,9.69,2.22t3.38,7.26q0,5.1-3.42,7.35t-9.78,2.26h-2V461h-6.35V433.19a36.45,36.45,0,0,1,4.39-.57C636.37,432.51,637.73,432.46,638.9,432.46Zm.4,5.41c-.46,0-.91,0-1.36,0l-1.16.08v8.15h2a10.77,10.77,0,0,0,5-.9,3.44,3.44,0,0,0,1.67-3.34A3.94,3.94,0,0,0,645,440a3.16,3.16,0,0,0-1.22-1.24,5.48,5.48,0,0,0-1.93-.65A15.06,15.06,0,0,0,639.3,437.87Z" transform="translate(-280.16 -137.55)"/><path class="cls-6" d="M675.59,450.25a13.9,13.9,0,0,1-.74,4.62,10,10,0,0,1-2.12,3.59,9.57,9.57,0,0,1-3.31,2.3,11.15,11.15,0,0,1-4.34.81,11,11,0,0,1-4.3-.81,9.7,9.7,0,0,1-3.32-2.3,10.48,10.48,0,0,1-2.15-3.59,13.18,13.18,0,0,1-.78-4.62,12.76,12.76,0,0,1,.8-4.6,10.36,10.36,0,0,1,2.2-3.54,9.79,9.79,0,0,1,3.33-2.28,11.35,11.35,0,0,1,8.47,0,9.56,9.56,0,0,1,3.32,2.28,10.27,10.27,0,0,1,2.16,3.54A13,13,0,0,1,675.59,450.25Zm-6.19,0a7.71,7.71,0,0,0-1.12-4.42,4,4,0,0,0-6.42,0,7.55,7.55,0,0,0-1.14,4.42,7.73,7.73,0,0,0,1.14,4.46,3.95,3.95,0,0,0,6.42,0A7.89,7.89,0,0,0,669.4,450.25Z" transform="translate(-280.16 -137.55)"/><path class="cls-6" d="M692.75,448.7q-.81,3.1-1.73,6.15T689.08,461h-4.72c-.49-1.14-1-2.5-1.59-4.07s-1.17-3.29-1.78-5.15-1.24-3.83-1.88-5.91-1.26-4.17-1.86-6.29h6.4c.22,1,.45,2.05.71,3.2s.54,2.34.82,3.56.59,2.45.9,3.69.64,2.42,1,3.56c.35-1.19.7-2.42,1-3.67s.66-2.47,1-3.68.61-2.37.9-3.5.54-2.18.75-3.16h4.4c.22,1,.46,2,.73,3.16s.56,2.29.86,3.5.61,2.44.93,3.68.67,2.48,1,3.67c.33-1.14.66-2.33,1-3.56s.63-2.47.92-3.69.56-2.41.82-3.56.5-2.22.71-3.2h6.32q-.9,3.18-1.86,6.29t-1.88,5.91c-.61,1.86-1.21,3.57-1.8,5.15s-1.12,2.93-1.61,4.07h-4.72q-1-3.09-2-6.15T692.75,448.7Z" transform="translate(-280.16 -137.55)"/><path class="cls-6" d="M710,450.45a13.11,13.11,0,0,1,.88-5,10.62,10.62,0,0,1,2.3-3.57,9.39,9.39,0,0,1,3.28-2.15,10.21,10.21,0,0,1,3.81-.74,9.44,9.44,0,0,1,7.2,2.79q2.65,2.79,2.65,8.21c0,.35,0,.74,0,1.16s-.06.79-.08,1.12H716.26a4,4,0,0,0,1.76,3,7,7,0,0,0,4.15,1.1,17.12,17.12,0,0,0,3.28-.31,12.09,12.09,0,0,0,2.62-.75l.82,4.93a9.52,9.52,0,0,1-1.31.49,16.81,16.81,0,0,1-1.81.42c-.66.13-1.38.23-2.14.31a21.62,21.62,0,0,1-2.28.12,13.46,13.46,0,0,1-5-.85,9.82,9.82,0,0,1-3.55-2.34,9.34,9.34,0,0,1-2.07-3.53A13.85,13.85,0,0,1,710,450.45Zm14.26-2.32a6.39,6.39,0,0,0-.27-1.5,3.83,3.83,0,0,0-.69-1.31,3.64,3.64,0,0,0-1.18-.93,3.8,3.8,0,0,0-1.77-.37,4.08,4.08,0,0,0-1.75.35,3.52,3.52,0,0,0-1.22.91,4.05,4.05,0,0,0-.76,1.33,9.17,9.17,0,0,0-.39,1.52Z" transform="translate(-280.16 -137.55)"/><path class="cls-6" d="M747.66,445c-.54-.14-1.18-.28-1.91-.43a11.93,11.93,0,0,0-2.37-.22,10.47,10.47,0,0,0-1.36.1,8.54,8.54,0,0,0-1.2.22V461h-6.07V440.72a36.9,36.9,0,0,1,3.85-1.08,22.15,22.15,0,0,1,4.95-.51c.32,0,.72,0,1.18.07s.92.09,1.38.16l1.39.24a6.69,6.69,0,0,1,1.18.35Z" transform="translate(-280.16 -137.55)"/><path class="cls-6" d="M750.43,450.45a13.11,13.11,0,0,1,.87-5,10.78,10.78,0,0,1,2.3-3.57,9.48,9.48,0,0,1,3.28-2.15,10.29,10.29,0,0,1,3.81-.74,9.48,9.48,0,0,1,7.21,2.79q2.64,2.79,2.64,8.21c0,.35,0,.74,0,1.16s0,.79-.08,1.12H756.66a4,4,0,0,0,1.75,3,7.06,7.06,0,0,0,4.15,1.1,17,17,0,0,0,3.28-.31,12.2,12.2,0,0,0,2.63-.75l.81,4.93a9.32,9.32,0,0,1-1.3.49,18,18,0,0,1-1.81.42c-.67.13-1.38.23-2.14.31a21.77,21.77,0,0,1-2.28.12,13.48,13.48,0,0,1-5-.85,9.69,9.69,0,0,1-3.54-2.34,9.36,9.36,0,0,1-2.08-3.53A13.85,13.85,0,0,1,750.43,450.45Zm14.25-2.32a6.93,6.93,0,0,0-.26-1.5,3.68,3.68,0,0,0-.7-1.31,3.54,3.54,0,0,0-1.18-.93,3.74,3.74,0,0,0-1.77-.37,4.08,4.08,0,0,0-1.75.35,3.52,3.52,0,0,0-1.22.91,4.05,4.05,0,0,0-.76,1.33,9.13,9.13,0,0,0-.38,1.52Z" transform="translate(-280.16 -137.55)"/><path class="cls-6" d="M794,460.31c-.54.16-1.17.32-1.87.47s-1.45.27-2.22.38-1.56.2-2.37.27-1.56.1-2.3.1a13.62,13.62,0,0,1-4.72-.77,9.3,9.3,0,0,1-5.68-5.72,13.46,13.46,0,0,1-.75-4.63,15.66,15.66,0,0,1,.65-4.7,10.22,10.22,0,0,1,1.87-3.56,8,8,0,0,1,3-2.24,10,10,0,0,1,4.06-.78,9.71,9.71,0,0,1,2.26.25,12,12,0,0,1,2,.69v-9.69l6.07-1Zm-13.72-10.18a7.45,7.45,0,0,0,1.26,4.52,4.36,4.36,0,0,0,3.75,1.71q.81,0,1.5-.06c.46,0,.84-.09,1.14-.14v-11a5.28,5.28,0,0,0-1.48-.61,7.3,7.3,0,0,0-1.86-.24C781.75,444.27,780.32,446.22,780.32,450.13Z" transform="translate(-280.16 -137.55)"/><path class="cls-6" d="M829.26,450.29a13.56,13.56,0,0,1-.75,4.64,9.92,9.92,0,0,1-2.18,3.55,9.71,9.71,0,0,1-3.5,2.26,13.18,13.18,0,0,1-4.73.79c-.73,0-1.5,0-2.3-.1s-1.59-.16-2.36-.27-1.51-.23-2.22-.38-1.33-.31-1.87-.47V430.38l6.07-1v10.67a10.86,10.86,0,0,1,2.11-.69,11.09,11.09,0,0,1,2.36-.25,9.68,9.68,0,0,1,4,.8,8,8,0,0,1,2.93,2.26,10.34,10.34,0,0,1,1.79,3.52A16,16,0,0,1,829.26,450.29Zm-6.19-.16q0-5.86-4.32-5.86a7.28,7.28,0,0,0-1.85.24,5.28,5.28,0,0,0-1.48.61v11c.29,0,.67.1,1.14.14s1,.06,1.5.06a4.36,4.36,0,0,0,3.75-1.71A7.45,7.45,0,0,0,823.07,450.13Z" transform="translate(-280.16 -137.55)"/><path class="cls-6" d="M852.35,439.58q-1.85,6.19-3.84,11.61t-4.37,10.5a23.65,23.65,0,0,1-1.71,3.12,9.78,9.78,0,0,1-1.88,2.12,6.7,6.7,0,0,1-2.3,1.22,10.42,10.42,0,0,1-3,.38,12.34,12.34,0,0,1-4.61-.85l1.06-4.85a10.06,10.06,0,0,0,1.67.45,9.65,9.65,0,0,0,1.55.12,3.42,3.42,0,0,0,2.51-.87,7.2,7.2,0,0,0,1.49-2.42q-2.08-4.08-4.16-9.15a112,112,0,0,1-3.91-11.38h6.43c.27,1.06.6,2.21,1,3.44s.76,2.49,1.17,3.75.82,2.49,1.25,3.68.82,2.29,1.2,3.26c.36-1,.72-2.06,1.11-3.26s.75-2.42,1.12-3.68.72-2.51,1.06-3.75.65-2.38.92-3.44Z" transform="translate(-280.16 -137.55)"/><path class="cls-6" d="M873.28,456.16a9.17,9.17,0,0,0,2.22-.23,4,4,0,0,0,1.4-.61,2,2,0,0,0,.73-.92,3.14,3.14,0,0,0,.21-1.18,2.75,2.75,0,0,0-1.3-2.3,18.62,18.62,0,0,0-4.48-2c-.93-.33-1.85-.7-2.77-1.12a10.17,10.17,0,0,1-2.49-1.59,7.63,7.63,0,0,1-1.79-2.32,7.31,7.31,0,0,1-.69-3.32,8.18,8.18,0,0,1,.73-3.52,7.44,7.44,0,0,1,2.08-2.67,9.68,9.68,0,0,1,3.26-1.69,14.68,14.68,0,0,1,4.31-.59,17.48,17.48,0,0,1,4.93.61,18.62,18.62,0,0,1,3.42,1.34l-1.83,5a19.45,19.45,0,0,0-2.63-1.08,11.42,11.42,0,0,0-3.48-.46,6.42,6.42,0,0,0-3.28.63,2.13,2.13,0,0,0-1,1.93,2.3,2.3,0,0,0,.37,1.31,3.57,3.57,0,0,0,1,.95,8.62,8.62,0,0,0,1.55.78c.58.23,1.22.46,1.93.71a41.54,41.54,0,0,1,3.83,1.61,10.25,10.25,0,0,1,2.71,1.85,6.82,6.82,0,0,1,1.61,2.48,10.08,10.08,0,0,1,.52,3.46,7.35,7.35,0,0,1-2.76,6.13q-2.77,2.17-8.35,2.18a22.14,22.14,0,0,1-6-.77,16.19,16.19,0,0,1-2-.69,15.44,15.44,0,0,1-1.41-.7l1.79-5.05a15.55,15.55,0,0,0,3.12,1.25A16.38,16.38,0,0,0,873.28,456.16Z" transform="translate(-280.16 -137.55)"/><path class="cls-6" d="M889.2,461V432.78h19.06v5.34H895.55v5.53h11.28v5.22H895.55v6.8h13.64V461Z" transform="translate(-280.16 -137.55)"/><path class="cls-6" d="M913.79,461V432.78h19.06v5.34H920.14v5.53h11.28v5.22H920.14v6.8h13.65V461Z" transform="translate(-280.16 -137.55)"/></svg>