<?xml version="1.0" encoding="utf-8"?>
<!-- Generator: Adobe Illustrator 23.0.1, SVG Export Plug-In . SVG Version: 6.00 Build 0)  -->
<svg version="1.1" id="Layer_1" xmlns="http://www.w3.org/2000/svg" xmlns:xlink="http://www.w3.org/1999/xlink" x="0px" y="0px"
	 viewBox="0 0 528.7 191.1" style="enable-background:new 0 0 528.7 191.1;" xml:space="preserve">
<style type="text/css">
	.st0{fill:#F6F6F6;}
	.st1{fill:#272C6C;}
	.st2{fill:#B5C738;}
	.st3{enable-background:new    ;}
	.st4{fill:#FFFFFF;}
	.st5{fill:#1E96D1;}
</style>
<title>socialnoticeicon</title>
<path class="st0" d="M134,176v0.2V176c0.2-6.4-0.5-12.8-2.3-19c-5-19.9-15.9-36.4-29.8-51c-13-13.7-28.2-24.5-44.5-33.9
	c-1.5-0.9-2.1-1.5-1-3.3c10-17.7,19.9-35.5,29.8-53.4c0.9-1.6,1.7-1.9,3.5-1.3c9.2,3.2,17.1,8.6,24.3,15l-0.5,0.5
	c-0.9-0.2-1.8-0.3-2.8-0.5c-8.5-1.7-17.2-2.2-25.9-1.2c-1.5,0.1-3,0.1-4,1.9c-7.1,13-14.3,25.9-21.6,38.8c-0.8,1.4-0.6,2,0.8,2.8
	c3.7,2.1,7.4,4.3,11,6.6c1.2,1,2.9,1,4.1,0c14.3-9,32.9-6.6,44.4,5.7c10.9,11.7,12.6,28,4.3,42.1c-1,1.3-1,3.1,0,4.5
	c4.2,7,7.6,14.5,9.9,22.4c2.2,7.2,3.3,14.7,3.4,22.2c0.4,0,0.6,0.1,0.8,0c0.3-0.2,0.6-0.4,1-0.6c19.1-13.1,30.7-31.3,34.4-54.1
	c5.7-35.7-13.2-70.8-46.2-85.6c-0.6-0.3-1.6-1.2-2-0.6c-0.9,1.3-1.1,0.2-1.5-0.3C112.4,20.6,99,9.4,84.1,0.7C81.8-0.6,81.1,0,80,2
	C67.3,25.6,54.4,49.2,41.5,72.7c-1.1,2.1-0.9,2.8,1.2,3.8c21.4,10,41,23.6,57.7,40.2c16.1,16.1,28.1,34.6,33,57.3
	c-0.5,0-0.8-0.4-1-0.8c-4.3-9.8-9.8-19.1-16.3-27.7c-10.3-13.9-23-25.9-37.5-35.5C63,99.5,45.6,91.9,27.3,87.4
	c-1.8-0.4-2.8-1-1.6-3.2c8.6-16.4,17-32.9,25.6-49.4c1.8-3.5,1.9-3.4,5.9-2.3c1.2,0.3,2.8,1.4,3.6-0.6c0.6-1.5,1.5-2.8,2.2-4.1
	s0.8-2.3-1-3.1c-4.3-2.1-8.4-4.3-12.6-6.6c-1.6-0.9-2.3-0.6-3.1,1c-12.2,23.4-24.5,46.7-36.7,70c-2.3,4.4-2.3,4.4,2.5,5.4
	c42.7,9.6,81.1,32.8,109.4,66.1c1.9,2.3,4.4,4.2,5.5,7.1c-0.7,0-0.9-0.5-1.3-0.9c-14.1-14.7-30.7-26.7-49.1-35.5
	c-17.2-8.3-35.6-14-54.5-16.8c-2.2-0.3-2.4-1-1.5-2.8c1.5-3,2.6-6.1,4.1-9.2c0.5-1.1,0.5-1.7-0.8-2c-3.2-0.8-6.3-1.6-9.4-2.5
	c-1.1-0.3-1.5,0-1.9,0.9c-4,8.3-8.1,16.5-12.2,24.8c-0.7,1.4-0.5,1.7,1.1,1.7c15.9-0.7,31.4,1.7,46.7,5.6c30.2,7.8,57,22.4,81.2,42
	c0.7,0.6,1.2,1.5,2.3,1.4c0.5,0.9,0.8,2.1,2.2,1.2C133.8,175.8,133.9,175.9,134,176z M132.1,179.1c-0.4-0.5-0.7-0.8-0.9-1
	c-34.2-28.7-73-46.7-118-50.1c-1.9-0.1-1.9,0.4-1.6,1.9c1.8,7.6,4.4,15,8.9,21.2c3.8,5.3,4.9,10.5,2.8,16.5
	c-0.3,1.3-0.6,2.5-0.8,3.8c-1.2,6.5-2.4,12.9-3.7,19.6c9.8-3.4,19.1-6.6,28.5-9.9c1.2-0.4,2.3-0.8,3.7,0c10.4,5.8,21.9,9.1,33.8,9.7
	C101.5,192,118,187.8,132.1,179.1z"/>
<path class="st1" d="M133.4,173.9c-4.8-22.6-16.9-41.1-33-57.3C83.7,99.9,64.1,86.3,42.7,76.4c-2.1-1-2.3-1.7-1.2-3.8
	C54.4,49.1,67.3,25.6,80,2c1.1-2,1.8-2.6,4.1-1.3c14.9,8.7,28.3,19.9,39.5,33c0.4,0.5,0.6,1.6,1.5,0.3c0.4-0.6,1.4,0.3,2,0.6
	c33,14.8,51.9,49.9,46.2,85.6c-3.7,22.8-15.3,40.9-34.4,54.1c-0.3,0.2-0.6,0.4-1,0.6c-0.1,0.1-0.4,0-0.8,0c-0.1-7.5-1.3-15-3.4-22.2
	c-2.4-7.8-5.7-15.4-9.9-22.4c-1-1.3-1-3.1,0-4.5c8.3-14.1,6.6-30.4-4.3-42.1C108,71.4,89.4,69,75.1,78c-1.2,1-2.9,1-4.1,0
	c-3.6-2.4-7.3-4.5-11-6.6c-1.4-0.8-1.6-1.4-0.8-2.8c7.3-12.9,14.5-25.8,21.6-38.8c1-1.8,2.5-1.8,4-1.9c8.6-0.9,17.4-0.5,25.9,1.2
	c0.9,0.2,1.8,0.3,2.8,0.5c0.3,0.3,0.7,0.5,0.9,0.2s-0.3-0.5-0.5-0.7c-7.3-6.4-15.1-11.7-24.3-15c-1.8-0.6-2.6-0.3-3.5,1.3
	C76.2,33.2,66.3,51,56.3,68.8c-1,1.8-0.5,2.4,1,3.3c16.3,9.4,31.5,20.2,44.5,33.9c13.9,14.7,24.8,31.2,29.8,51
	c1.7,6.2,2.5,12.6,2.3,19l0,0c0-0.1-0.1-0.2-0.1-0.3C133.8,175,134,174.4,133.4,173.9z"/>
<path class="st1" d="M132.1,179.1c-14.1,8.7-30.6,12.9-47.2,11.8c-11.8-0.6-23.4-4-33.8-9.7c-1.4-0.8-2.5-0.4-3.7,0
	c-9.4,3.3-18.8,6.5-28.5,9.9c1.3-6.7,2.5-13.2,3.7-19.6c0.2-1.3,0.4-2.6,0.8-3.8c2-6,1-11.2-2.8-16.5c-4.5-6.3-7.1-13.7-8.9-21.2
	c-0.4-1.5-0.3-2.1,1.6-1.9c45,3.4,83.8,21.4,118,50.1C131.4,178.3,131.7,178.6,132.1,179.1z"/>
<path class="st2" d="M133.4,173.9c0.6,0.5,0.4,1.2,0.4,1.8c-1.5,0.9-1.8-0.3-2.2-1.2c-0.7-1.9-2.4-3.2-3.4-4.9
	c-0.1,0-0.1-0.1-0.1-0.3l0,0c0-0.5,0.1-1-0.6-1.1h0.1l-0.6-0.6v0.1c-1.1-3-3.6-4.8-5.5-7.1C93.1,127.2,54.7,104,12,94.4
	c-4.8-1-4.8-1-2.5-5.4C21.8,65.7,34,42.4,46.3,19.1c0.8-1.6,1.4-2,3.1-1c4.1,2.3,8.3,4.5,12.6,6.6c1.7,0.8,1.7,1.8,1,3.1
	s-1.6,2.7-2.2,4.1c-0.8,2-2.5,0.9-3.6,0.6c-4-1.1-4-1.2-5.9,2.3c-8.5,16.5-17,33-25.6,49.4c-1.2,2.3-0.1,2.8,1.6,3.2
	c18.3,4.5,35.8,12.1,51.5,22.5c14.5,9.5,27.2,21.5,37.5,35.5c6.5,8.5,12,17.8,16.3,27.7C132.7,173.5,132.9,173.9,133.4,173.9z"/>
<g class="st3">
	<path class="st4" d="M239.2,136.4c-0.9-2.6-1.8-5.2-2.8-7.7s-1.9-5.2-2.8-7.8h-27.9c-0.9,2.7-1.8,5.3-2.7,7.9
		c-0.9,2.6-1.8,5.1-2.7,7.7h-12.5c2.5-7.1,4.8-13.6,7.1-19.6c2.2-6,4.4-11.6,6.5-17s4.2-10.4,6.3-15.3c2.1-4.8,4.3-9.6,6.5-14.3
		h11.5c2.2,4.7,4.4,9.5,6.5,14.3s4.2,9.9,6.3,15.3s4.3,11,6.6,17s4.6,12.5,7.1,19.6L239.2,136.4L239.2,136.4z M219.7,83
		c-1.5,3.4-3.1,7.5-5,12.3s-3.8,10.1-5.9,15.7h21.8c-2-5.7-4-10.9-5.9-15.8C222.7,90.3,221.1,86.3,219.7,83z"/>
	<path class="st4" d="M288.3,96.9c-1-0.3-2.3-0.7-4-1s-3.6-0.5-5.9-0.5c-1.3,0-2.6,0.1-4.1,0.4c-1.4,0.3-2.4,0.5-3,0.7v40h-11.5
		V88.9c2.2-0.8,5-1.6,8.3-2.3c3.3-0.7,7-1.1,11.1-1.1c0.8,0,1.7,0,2.7,0.1s2,0.2,3.1,0.4c1,0.2,2,0.4,3,0.6s1.7,0.4,2.3,0.6
		L288.3,96.9z"/>
	<path class="st4" d="M297.8,73.3l11.5-1.9v15.1H327v9.6h-17.7v20.3c0,4,0.6,6.9,1.9,8.6s3.4,2.6,6.5,2.6c2.1,0,4-0.2,5.6-0.7
		c1.6-0.4,2.9-0.9,3.9-1.2l1.9,9.2c-1.3,0.6-3.1,1.2-5.2,1.8c-2.2,0.6-4.7,0.9-7.6,0.9c-3.6,0-6.5-0.5-8.9-1.4
		c-2.4-1-4.3-2.3-5.7-4.2c-1.4-1.8-2.4-4-3-6.6s-0.9-5.5-0.9-8.8L297.8,73.3L297.8,73.3z"/>
	<path class="st4" d="M351.1,71.9c0,2.2-0.7,3.9-2.1,5.2c-1.4,1.3-3.1,1.9-5,1.9c-2,0-3.7-0.6-5.1-1.9s-2.1-3-2.1-5.2s0.7-4,2.1-5.2
		c1.4-1.3,3.1-1.9,5.1-1.9c1.9,0,3.6,0.6,5,1.9C350.4,67.9,351.1,69.6,351.1,71.9z M349.9,136.4h-11.5V86.5h11.5V136.4z"/>
	<path class="st4" d="M361.8,111.5c0-3.7,0.6-7.1,1.7-10.4c1.1-3.2,2.8-6,4.9-8.3c2.1-2.4,4.7-4.2,7.8-5.5s6.5-2,10.3-2
		c4.7,0,9.2,0.9,13.4,2.6l-2.5,9.4c-1.3-0.6-2.8-1-4.5-1.4s-3.5-0.6-5.4-0.6c-4.5,0-8,1.4-10.3,4.2c-2.4,2.8-3.5,6.8-3.5,12
		c0,5,1.1,8.9,3.3,11.8c2.2,2.9,6,4.3,11.3,4.3c2,0,3.9-0.2,5.8-0.6s3.6-0.9,5-1.4l1.6,9.5c-1.3,0.6-3.2,1.2-5.8,1.7
		c-2.6,0.5-5.2,0.8-8,0.8c-4.3,0-8-0.7-11.1-2s-5.8-3.1-7.8-5.4c-2.1-2.3-3.6-5.1-4.6-8.3C362.3,118.7,361.8,115.2,361.8,111.5z"/>
	<path class="st4" d="M427,137.3c-3.4-0.1-6.3-0.4-8.5-1.1c-2.3-0.7-4.1-1.7-5.4-3s-2.3-2.9-2.8-4.9c-0.5-1.9-0.8-4.2-0.8-6.6V64.2
		l11.5-1.9v57.2c0,1.4,0.1,2.6,0.3,3.5c0.2,1,0.6,1.8,1.2,2.4c0.6,0.7,1.4,1.2,2.3,1.5c1,0.3,2.2,0.6,3.8,0.8L427,137.3z"/>
	<path class="st4" d="M435.2,111.7c0-4.4,0.7-8.2,2-11.5s3-6.1,5.2-8.3c2.2-2.2,4.6-3.8,7.4-5c2.8-1.1,5.7-1.7,8.6-1.7
		c6.9,0,12.2,2.1,16.1,6.4c3.8,4.3,5.8,10.6,5.8,19.1c0,0.6,0,1.4,0,2.1c0,0.8-0.1,1.5-0.1,2.1h-32.9c0.3,4,1.7,7.1,4.2,9.3
		c2.5,2.2,6.2,3.3,10.9,3.3c2.8,0,5.4-0.3,7.7-0.8c2.3-0.5,4.2-1,5.5-1.6l1.5,9.4c-0.6,0.3-1.5,0.7-2.6,1c-1.1,0.4-2.4,0.7-3.8,1
		s-3,0.5-4.6,0.7c-1.7,0.2-3.3,0.3-5.1,0.3c-4.4,0-8.2-0.7-11.5-2c-3.2-1.3-5.9-3.1-8-5.4c-2.1-2.3-3.7-5.1-4.7-8.2
		C435.7,118.9,435.2,115.4,435.2,111.7z M468.7,106.5c0-1.6-0.2-3.1-0.7-4.5c-0.4-1.4-1.1-2.7-2-3.7s-1.9-1.9-3.1-2.5
		s-2.7-0.9-4.4-0.9c-1.8,0-3.3,0.3-4.7,1s-2.5,1.5-3.4,2.6s-1.6,2.3-2.1,3.7c-0.5,1.4-0.9,2.8-1,4.3H468.7z"/>
	<path class="st4" d="M504.9,128.1c3.1,0,5.3-0.4,6.7-1.1c1.4-0.7,2.1-2,2.1-3.8c0-1.7-0.7-3-2.2-4.1s-4-2.3-7.4-3.5
		c-2.1-0.8-4-1.6-5.8-2.4c-1.8-0.9-3.3-1.9-4.5-3c-1.3-1.1-2.3-2.5-3-4.2s-1.1-3.6-1.1-6c0-4.6,1.7-8.2,5.1-10.8c3.4-2.6,8-4,13.7-4
		c2.9,0,5.7,0.3,8.4,0.8s4.7,1.1,6,1.6l-2.1,9.4c-1.3-0.6-2.9-1.1-4.9-1.6s-4.3-0.7-6.9-0.7c-2.4,0-4.3,0.4-5.7,1.2
		c-1.5,0.8-2.2,2-2.2,3.7c0,0.8,0.1,1.6,0.4,2.2s0.8,1.2,1.5,1.8c0.7,0.5,1.6,1.1,2.8,1.6c1.1,0.5,2.5,1.1,4.2,1.7c2.7,1,5.1,2,7,3
		s3.5,2.1,4.7,3.3c1.2,1.2,2.1,2.7,2.7,4.2c0.6,1.6,0.9,3.5,0.9,5.7c0,4.8-1.8,8.4-5.3,10.8s-8.6,3.7-15.1,3.7
		c-4.4,0-7.9-0.4-10.6-1.1c-2.7-0.7-4.5-1.3-5.6-1.8l2-9.6c1.7,0.7,3.8,1.4,6.2,2C499.2,127.8,501.9,128.1,504.9,128.1z"/>
</g>
<path class="st5" d="M128.2,169.6c1,1.7,2.7,2.9,3.4,4.9c-1.1,0.1-1.6-0.9-2.3-1.4c-24.2-19.6-50.9-34.2-81.2-42
	c-15.3-4-30.8-6.3-46.7-5.6c-1.5,0.1-1.8-0.3-1.1-1.7c4.1-8.2,8.2-16.5,12.2-24.8c0.5-0.9,0.9-1.2,1.9-0.9c3.1,0.9,6.3,1.7,9.4,2.5
	c1.3,0.3,1.3,0.9,0.8,2c-1.4,3-2.6,6.2-4.1,9.2c-0.9,1.8-0.7,2.5,1.5,2.8c18.9,2.8,37.3,8.4,54.5,16.7c18.4,8.8,35,20.8,49.1,35.5
	c0.4,0.4,0.6,1,1.3,0.9v-0.1c0,0.4,0.1,0.7,0.6,0.6h-0.1c-0.2,0.6,0.2,0.8,0.6,1.1l0,0C128.1,169.4,128.2,169.5,128.2,169.6z"/>
</svg>
