<svg id="Layer_1" data-name="Layer 1" xmlns="http://www.w3.org/2000/svg" viewBox="0 0 528.69 191.13"><defs><style>.cls-1{fill:#f6f6f6;}.cls-2{fill:#272c6c;}.cls-3{fill:#b5c738;}.cls-4{font-size:95.42px;font-family:Ubuntu-Medium, Ubuntu;font-weight:500;}.cls-4,.cls-5{fill:#1e96d1;}</style></defs><title>socialnoticeicon</title><path class="cls-1" d="M478.66,450.68l0,.24v-.19a62.39,62.39,0,0,0-2.26-19c-5.05-19.85-15.88-36.36-29.82-51-13-13.68-28.23-24.53-44.54-33.89-1.53-.88-2.08-1.46-1.05-3.29q15-26.62,29.78-53.38c.91-1.65,1.72-1.93,3.49-1.31,9.21,3.22,17.06,8.6,24.34,14.95l-.47.49c-.92-.16-1.84-.28-2.75-.47a84.42,84.42,0,0,0-25.86-1.24c-1.5.14-3,.14-4,1.93q-10.68,19.47-21.6,38.8c-.78,1.39-.57,2,.78,2.79,3.72,2.12,7.41,4.3,11,6.65a3.19,3.19,0,0,0,4.13,0,35.1,35.1,0,0,1,44.42,5.71c10.87,11.71,12.57,28,4.26,42.08a3.73,3.73,0,0,0,0,4.46,96.28,96.28,0,0,1,9.93,22.39,80.12,80.12,0,0,1,3.44,22.17c.39,0,.6.06.75,0a7.09,7.09,0,0,0,.95-.58c19.14-13.15,30.74-31.32,34.39-54.09a80,80,0,0,0-46.16-85.6c-.64-.29-1.58-1.16-2-.56-.93,1.33-1.09.21-1.49-.26a153.17,153.17,0,0,0-39.49-33c-2.3-1.34-3-.71-4.08,1.3q-19.14,35.37-38.5,70.61c-1.13,2.06-.91,2.76,1.2,3.75a204.28,204.28,0,0,1,57.72,40.22c16.08,16.14,28.15,34.64,33,57.28-.54,0-.75-.36-.95-.83a135.81,135.81,0,0,0-16.3-27.67,147.18,147.18,0,0,0-37.49-35.46,162.33,162.33,0,0,0-51.47-22.52c-1.79-.43-2.82-.95-1.64-3.21,8.59-16.42,17-32.92,25.57-49.37,1.84-3.53,1.88-3.43,5.86-2.3,1.19.34,2.81,1.37,3.64-.58.63-1.46,1.47-2.78,2.23-4.15s.75-2.27-1-3.09c-4.26-2.06-8.44-4.29-12.56-6.61-1.65-.93-2.25-.56-3.09,1.05q-18.28,35-36.7,69.88c-2.31,4.38-2.31,4.37,2.45,5.42a201.48,201.48,0,0,1,109.42,66.11c1.92,2.28,4.43,4.16,5.5,7.12-.68.05-.92-.54-1.28-.92a169,169,0,0,0-49.07-35.54,189.43,189.43,0,0,0-54.47-16.7c-2.18-.33-2.4-1-1.52-2.79,1.45-3,2.65-6.15,4.07-9.18.52-1.11.49-1.69-.78-2-3.16-.81-6.31-1.6-9.43-2.52-1.06-.31-1.48,0-1.93.88q-6,12.42-12.16,24.8c-.71,1.41-.48,1.74,1.07,1.68,15.87-.68,31.39,1.67,46.7,5.63,30.24,7.83,57,22.43,81.16,42,.68.56,1.16,1.52,2.27,1.41.48.91.76,2.15,2.24,1.23A2.71,2.71,0,0,0,478.66,450.68Zm-1.84,3.14c-.44-.46-.67-.76-.94-1-34.23-28.71-73-46.73-118-50.14-1.85-.14-1.92.44-1.56,1.94,1.81,7.57,4.37,15,8.9,21.24,3.83,5.3,4.88,10.47,2.83,16.5a28.55,28.55,0,0,0-.78,3.83c-1.21,6.46-2.41,12.93-3.66,19.65,9.75-3.38,19.14-6.65,28.54-9.9,1.19-.41,2.28-.81,3.67-.05a78,78,0,0,0,33.76,9.74A80.36,80.36,0,0,0,476.82,453.82Z" transform="translate(-344.71 -274.72)"/><path class="cls-2" d="M478.15,448.59c-4.82-22.64-16.89-41.14-33-57.28a204.28,204.28,0,0,0-57.72-40.22c-2.11-1-2.33-1.69-1.2-3.75q19.38-35.23,38.5-70.61c1.09-2,1.78-2.64,4.08-1.3a153.17,153.17,0,0,1,39.49,33c.4.47.56,1.59,1.49.26.42-.6,1.36.27,2,.56A80,80,0,0,1,518,394.86c-3.65,22.77-15.25,40.94-34.39,54.09a7.09,7.09,0,0,1-.95.58c-.15.07-.36,0-.75,0a80.12,80.12,0,0,0-3.44-22.17A96.28,96.28,0,0,0,468.52,405a3.73,3.73,0,0,1,0-4.46c8.31-14.1,6.61-30.37-4.26-42.08a35.1,35.1,0,0,0-44.42-5.71,3.19,3.19,0,0,1-4.13,0c-3.58-2.35-7.27-4.53-11-6.65-1.35-.77-1.56-1.4-.78-2.79q10.89-19.35,21.6-38.8c1-1.79,2.47-1.79,4-1.93a84.42,84.42,0,0,1,25.86,1.24c.91.19,1.83.31,2.75.47.26.33.74.48.94.22s-.31-.46-.47-.71c-7.28-6.35-15.13-11.73-24.34-14.95-1.77-.62-2.58-.34-3.49,1.31Q415.94,316.86,401,343.49c-1,1.83-.48,2.41,1.05,3.29,16.31,9.36,31.52,20.21,44.54,33.89,13.94,14.66,24.77,31.17,29.82,51a62.39,62.39,0,0,1,2.26,19l0-.05a2.71,2.71,0,0,1-.13-.3C478.54,449.76,478.74,449.09,478.15,448.59Z" transform="translate(-344.71 -274.72)"/><path class="cls-2" d="M476.82,453.82a80.36,80.36,0,0,1-47.22,11.82,78,78,0,0,1-33.76-9.74c-1.39-.76-2.48-.36-3.67.05-9.4,3.25-18.79,6.52-28.54,9.9,1.25-6.72,2.45-13.19,3.66-19.65a28.55,28.55,0,0,1,.78-3.83c2.05-6,1-11.2-2.83-16.5-4.53-6.28-7.09-13.67-8.9-21.24-.36-1.5-.29-2.08,1.56-1.94,45,3.41,83.75,21.43,118,50.14C476.15,453.06,476.38,453.36,476.82,453.82Z" transform="translate(-344.71 -274.72)"/><path class="cls-3" d="M478.15,448.59c.59.5.39,1.17.38,1.79-1.48.92-1.76-.32-2.24-1.23-.68-1.93-2.35-3.18-3.39-4.86-.06,0-.1-.1-.13-.29v0c0-.46.11-1-.57-1.14l.06.05-.62-.62,0,.06c-1.07-3-3.58-4.84-5.5-7.12a201.48,201.48,0,0,0-109.42-66.11c-4.76-1-4.76-1-2.45-5.42q18.36-34.94,36.7-69.88c.84-1.61,1.44-2,3.09-1.05,4.12,2.32,8.3,4.55,12.56,6.61,1.71.82,1.67,1.83,1,3.09s-1.6,2.69-2.23,4.15c-.83,2-2.45.92-3.64.58-4-1.13-4-1.23-5.86,2.3-8.53,16.45-17,33-25.57,49.37-1.18,2.26-.15,2.78,1.64,3.21a162.33,162.33,0,0,1,51.47,22.52,147.18,147.18,0,0,1,37.49,35.46,135.81,135.81,0,0,1,16.3,27.67C477.4,448.23,477.61,448.57,478.15,448.59Z" transform="translate(-344.71 -274.72)"/><text class="cls-4" transform="translate(187.29 136.37)">Articles</text><path class="cls-5" d="M472.9,444.29c1,1.68,2.71,2.93,3.39,4.86-1.11.11-1.59-.85-2.27-1.41-24.16-19.6-50.92-34.2-81.16-42-15.31-4-30.83-6.31-46.7-5.63-1.55.06-1.78-.27-1.07-1.68q6.15-12.37,12.16-24.8c.45-.92.87-1.19,1.93-.88,3.12.92,6.27,1.71,9.43,2.52,1.27.32,1.3.9.78,2-1.42,3-2.62,6.16-4.07,9.18-.88,1.83-.66,2.46,1.52,2.79a189.43,189.43,0,0,1,54.47,16.7,169,169,0,0,1,49.07,35.54c.36.38.6,1,1.28.92l0-.06c0,.44.09.73.62.62l-.06-.05c-.22.59.23.84.57,1.14v0A1.08,1.08,0,0,1,472.9,444.29Z" transform="translate(-344.71 -274.72)"/></svg>