<svg id="Layer_1" data-name="Layer 1" xmlns="http://www.w3.org/2000/svg" viewBox="0 0 20 16"><defs><style>.cls-1{fill:#fff;}</style></defs><title>twitter</title><path class="cls-1" d="M22,5.91a8.32,8.32,0,0,1-2.36.63,4,4,0,0,0,1.81-2.23,8.41,8.41,0,0,1-2.61,1,4.12,4.12,0,0,0-3-1.28,4.08,4.08,0,0,0-4.11,4,3.93,3.93,0,0,0,.11.92A11.66,11.66,0,0,1,3.39,4.75a4,4,0,0,0,1.27,5.4,4.14,4.14,0,0,1-1.85-.51v0a4.05,4.05,0,0,0,3.28,4A3.9,3.9,0,0,1,5,13.79a3.94,3.94,0,0,1-.77-.07,4.11,4.11,0,0,0,3.83,2.81A8.29,8.29,0,0,1,3,18.25c-.33,0-.66,0-1-.05A11.75,11.75,0,0,0,8.29,20,11.5,11.5,0,0,0,20,8.52V8A8.31,8.31,0,0,0,22,5.91Z" transform="translate(-2 -4.01)"/></svg>