<?xml version="1.0" encoding="utf-8"?>
<!-- Generator: Adobe Illustrator 23.0.1, SVG Export Plug-In . SVG Version: 6.00 Build 0)  -->
<svg version="1.1" id="Layer_1" xmlns="http://www.w3.org/2000/svg" xmlns:xlink="http://www.w3.org/1999/xlink" x="0px" y="0px"
	 viewBox="0 0 497 710" style="enable-background:new 0 0 497 710;" xml:space="preserve">
<style type="text/css">
	.st0{fill:none;}
	.st1{fill:#FFFFFF;}
	.st2{fill:#B5C738;}
</style>
<title>users</title>
<path class="st0" d="M248.5,284c39.2,0,71-31.8,71-71v-71c0-39.2-31.8-71-71-71s-71,31.8-71,71v71C177.5,252.2,209.3,284,248.5,284z
	"/>
<path class="st1" d="M367.6,357.3c-0.7-0.3-1.3-0.5-2-0.8c-18.5-6.4-38.8,3.4-45.2,21.9c-6.4,18.5,3.4,38.8,21.9,45.2
	C392.7,442.8,426,491.1,426,545v58.5c0,19.6-15.9,35.5-35.5,35.5l0,0h-284C86.9,639,71,623.1,71,603.5l0,0v-61.8
	c0-52.2,31.9-99.1,80.5-118.2c0.6-0.2,1.2-0.5,1.8-0.7c18-7.9,26.1-28.8,18.3-46.8c-7.8-17.7-28.2-25.9-46.1-18.5
	C49.8,387.3,0,460.4,0,541.7v61.8C0,662.3,47.7,710,106.5,710l0,0h284c58.8,0,106.5-47.7,106.5-106.5l0,0V545
	C497,461.7,445.5,387,367.6,357.3z"/>
<path class="st2" d="M248.5,355c78.4,0,142-63.6,142-142v-71c0-78.4-63.6-142-142-142s-142,63.6-142,142v71
	C106.5,291.4,170.1,355,248.5,355z M177.5,142c0-39.2,31.8-71,71-71s71,31.8,71,71v71c0,39.2-31.8,71-71,71s-71-31.8-71-71V142z"/>
</svg>
