<svg id="Layer_1" data-name="Layer 1" xmlns="http://www.w3.org/2000/svg" viewBox="0 0 497 710"><defs><style>.cls-1{fill:none;}.cls-2{fill:#fff;}.cls-3{fill:#f94144;}</style></defs><title>users</title><path class="cls-1" d="M625,294a71,71,0,0,0,71-71V152a71,71,0,0,0-142,0v71A71,71,0,0,0,625,294Z" transform="translate(-376.5 -10)"/><path class="cls-2" d="M744.14,367.34c-.66-.27-1.33-.53-2-.76a35.5,35.5,0,1,0-23.28,67.08A129.85,129.85,0,0,1,802.5,555V613.5A35.5,35.5,0,0,1,767,649H483a35.5,35.5,0,0,1-35.5-35.5V551.73A127.08,127.08,0,0,1,528,433.51c.62-.22,1.23-.46,1.84-.72A35.5,35.5,0,0,0,502,367.48,198.07,198.07,0,0,0,376.5,551.73V613.5A106.5,106.5,0,0,0,483,720H767A106.5,106.5,0,0,0,873.5,613.5V555A200.88,200.88,0,0,0,744.14,367.34Z" transform="translate(-376.5 -10)"/><path class="cls-3" d="M625,365A142,142,0,0,0,767,223V152a142,142,0,0,0-284,0v71A142,142,0,0,0,625,365ZM554,152a71,71,0,0,1,142,0v71a71,71,0,0,1-142,0Z" transform="translate(-376.5 -10)"/></svg>